<svg width="34" height="33" viewBox="0 0 34 33" fill="none" xmlns="http://www.w3.org/2000/svg">
<path opacity="0.2" d="M27.3126 15.5177V23.7188C27.3126 24.8128 26.878 25.862 26.1044 26.6356C25.3308 27.4092 24.2816 27.8438 23.1876 27.8438H10.8126C9.71858 27.8438 8.66937 27.4092 7.89578 26.6356C7.12219 25.862 6.6876 24.8128 6.6876 23.7188V15.5177L13.9063 6.1875H20.0938L27.3126 15.5177Z" fill="#207CFD"/>
<path d="M31.4001 16.1132L29.2834 4.76947C29.2317 4.49297 29.124 4.22996 28.9668 3.99663C28.8097 3.7633 28.6065 3.56458 28.3697 3.41269C28.133 3.2608 27.8676 3.15894 27.59 3.1134C27.3124 3.06785 27.0285 3.07957 26.7556 3.14783L26.7156 3.15943L19.9454 5.15619H14.0544L7.28427 3.16588L7.24431 3.15428C6.97142 3.08601 6.68744 3.07429 6.40985 3.11984C6.13226 3.16539 5.86692 3.26724 5.63015 3.41913C5.39337 3.57102 5.19018 3.76975 5.03305 4.00307C4.87592 4.2364 4.76818 4.49941 4.71646 4.77592L2.59982 16.1132C2.50931 16.5673 2.5765 17.0386 2.79027 17.4493C3.00405 17.86 3.3516 18.1854 3.77545 18.3717C4.04688 18.4961 4.34179 18.5612 4.64041 18.5624C4.99783 18.5623 5.34864 18.4661 5.65619 18.284V23.7187C5.65619 25.0862 6.19943 26.3977 7.16642 27.3647C8.1334 28.3317 9.44492 28.8749 10.8124 28.8749H23.1874C24.555 28.8749 25.8665 28.3317 26.8335 27.3647C27.8004 26.3977 28.3437 25.0862 28.3437 23.7187V18.2853C28.6509 18.4671 29.0012 18.5632 29.3582 18.5637C29.6571 18.5629 29.9524 18.4983 30.2244 18.3742C30.6488 18.1878 30.9967 17.862 31.2105 17.4508C31.4243 17.0396 31.4912 16.5677 31.4001 16.1132ZM4.62494 16.4999L6.74287 5.15619L12.166 6.75076L4.62494 16.4999ZM23.1874 26.8124H18.0312V25.1766L19.792 23.4171C19.9856 23.2235 20.0943 22.9611 20.0943 22.6874C20.0943 22.4138 19.9856 22.1513 19.792 21.9578C19.5985 21.7643 19.3361 21.6556 19.0624 21.6556C18.7888 21.6556 18.5263 21.7643 18.3328 21.9578L16.9999 23.292L15.667 21.9578C15.4735 21.7643 15.2111 21.6556 14.9374 21.6556C14.6638 21.6556 14.4013 21.7643 14.2078 21.9578C14.0143 22.1513 13.9056 22.4138 13.9056 22.6874C13.9056 22.9611 14.0143 23.2235 14.2078 23.4171L15.9687 25.1766V26.8124H10.8124C9.99192 26.8124 9.20502 26.4865 8.62483 25.9063C8.04464 25.3261 7.71869 24.5392 7.71869 23.7187V15.8696L14.4128 7.21869H19.5871L26.2812 15.8696V23.7187C26.2812 24.5392 25.9552 25.3261 25.375 25.9063C24.7949 26.4865 24.0079 26.8124 23.1874 26.8124ZM29.3749 16.4999L21.8339 6.75076L27.257 5.15619L29.3749 16.4999ZM13.9062 18.0468C13.9062 18.3528 13.8155 18.6518 13.6455 18.9062C13.4755 19.1606 13.2339 19.3589 12.9513 19.4759C12.6686 19.593 12.3576 19.6237 12.0575 19.564C11.7575 19.5043 11.4818 19.357 11.2655 19.1406C11.0492 18.9243 10.9018 18.6487 10.8422 18.3486C10.7825 18.0485 10.8131 17.7375 10.9302 17.4549C11.0473 17.1722 11.2455 16.9306 11.4999 16.7606C11.7543 16.5907 12.0534 16.4999 12.3593 16.4999C12.7696 16.4999 13.163 16.6629 13.4531 16.953C13.7432 17.2431 13.9062 17.6366 13.9062 18.0468ZM23.1874 18.0468C23.1874 18.3528 23.0967 18.6518 22.9267 18.9062C22.7568 19.1606 22.5152 19.3589 22.2325 19.4759C21.9499 19.593 21.6388 19.6237 21.3388 19.564C21.0387 19.5043 20.7631 19.357 20.5468 19.1406C20.3304 18.9243 20.1831 18.6487 20.1234 18.3486C20.0637 18.0485 20.0944 17.7375 20.2114 17.4549C20.3285 17.1722 20.5268 16.9306 20.7812 16.7606C21.0355 16.5907 21.3346 16.4999 21.6406 16.4999C22.0508 16.4999 22.4443 16.6629 22.7344 16.953C23.0245 17.2431 23.1874 17.6366 23.1874 18.0468Z" fill="#081023"/>
</svg>
