<svg width="15" height="15" viewBox="0 0 15 15" fill="none" xmlns="http://www.w3.org/2000/svg">
<g id="ArrowElbowUpRight">
<path id="Vector" opacity="0.2" d="M12.1875 4.6875L9.375 7.5V1.875L12.1875 4.6875Z" fill="#207CFD"/>
<path id="Vector_2" d="M12.5191 4.35586L9.70664 1.54336C9.64108 1.47773 9.55753 1.43303 9.46655 1.41491C9.37557 1.39679 9.28127 1.40608 9.19557 1.44159C9.10987 1.4771 9.03663 1.53723 8.98513 1.61439C8.93363 1.69154 8.90618 1.78224 8.90625 1.875V4.21875H3.75C3.62568 4.21875 3.50645 4.26814 3.41854 4.35605C3.33064 4.44395 3.28125 4.56318 3.28125 4.6875V13.125C3.28125 13.2493 3.33064 13.3686 3.41854 13.4565C3.50645 13.5444 3.62568 13.5938 3.75 13.5938C3.87432 13.5938 3.99355 13.5444 4.08146 13.4565C4.16936 13.3686 4.21875 13.2493 4.21875 13.125V5.15625H8.90625V7.5C8.90618 7.59277 8.93363 7.68347 8.98513 7.76062C9.03663 7.83777 9.10987 7.89791 9.19557 7.93342C9.28127 7.96893 9.37557 7.97821 9.46655 7.96009C9.55753 7.94198 9.64108 7.89727 9.70664 7.83164L12.5191 5.01914C12.5627 4.97561 12.5973 4.92391 12.6209 4.86701C12.6445 4.8101 12.6566 4.7491 12.6566 4.6875C12.6566 4.6259 12.6445 4.56491 12.6209 4.508C12.5973 4.45109 12.5627 4.3994 12.5191 4.35586ZM9.84375 6.36856V3.00645L11.5248 4.6875L9.84375 6.36856Z" fill="#081023"/>
</g>
</svg>
