<svg width="15" height="15" viewBox="0 0 15 15" fill="none" xmlns="http://www.w3.org/2000/svg">
<g id="ArrowUp">
<path id="Vector" opacity="0.2" d="M11.7188 6.5625H3.28125L7.5 2.34375L11.7188 6.5625Z" fill="#207CFD"/>
<path id="Vector_2" d="M12.0504 6.23086L7.83164 2.01211C7.78811 1.96853 7.73641 1.93395 7.67951 1.91036C7.6226 1.88677 7.5616 1.87463 7.5 1.87463C7.4384 1.87463 7.3774 1.88677 7.3205 1.91036C7.26359 1.93395 7.2119 1.96853 7.16836 2.01211L2.94961 6.23086C2.88398 6.29642 2.83928 6.37997 2.82116 6.47095C2.80304 6.56193 2.81233 6.65623 2.84784 6.74193C2.88335 6.82763 2.94348 6.90087 3.02064 6.95237C3.09779 7.00387 3.18849 7.03132 3.28125 7.03125H7.03125V12.6562C7.03125 12.7806 7.08064 12.8998 7.16855 12.9877C7.25645 13.0756 7.37568 13.125 7.5 13.125C7.62432 13.125 7.74355 13.0756 7.83146 12.9877C7.91937 12.8998 7.96875 12.7806 7.96875 12.6562V7.03125H11.7188C11.8115 7.03132 11.9022 7.00387 11.9794 6.95237C12.0565 6.90087 12.1167 6.82763 12.1522 6.74193C12.1877 6.65623 12.197 6.56193 12.1788 6.47095C12.1607 6.37997 12.116 6.29642 12.0504 6.23086ZM4.4127 6.09375L7.5 3.00644L10.5873 6.09375H4.4127Z" fill="#081023"/>
</g>
</svg>
