<svg width="15" height="15" viewBox="0 0 15 15" fill="none" xmlns="http://www.w3.org/2000/svg">
<g id="ArrowUpRight">
<path id="Vector" opacity="0.2" d="M11.25 3.75V9.84375L5.15625 3.75H11.25Z" fill="#081023"/>
<path id="Vector_2" d="M11.25 3.28125H5.15627C5.0635 3.28118 4.9728 3.30863 4.89565 3.36013C4.8185 3.41163 4.75836 3.48487 4.72285 3.57057C4.68734 3.65627 4.67806 3.75057 4.69617 3.84155C4.71429 3.93253 4.759 4.01608 4.82463 4.08164L7.54045 6.79688L3.41838 10.9184C3.37482 10.9619 3.34028 11.0136 3.31671 11.0705C3.29314 11.1274 3.28101 11.1884 3.28101 11.25C3.28101 11.3116 3.29314 11.3726 3.31671 11.4295C3.34028 11.4864 3.37482 11.5381 3.41838 11.5816C3.46193 11.6252 3.51363 11.6597 3.57053 11.6833C3.62744 11.7069 3.68843 11.719 3.75002 11.719C3.81161 11.719 3.8726 11.7069 3.9295 11.6833C3.9864 11.6597 4.03811 11.6252 4.08166 11.5816L8.20314 7.45957L10.9184 10.1754C10.9839 10.241 11.0675 10.2857 11.1585 10.3038C11.2494 10.322 11.3438 10.3127 11.4294 10.2772C11.5151 10.2417 11.5884 10.1815 11.6399 10.1044C11.6914 10.0272 11.7188 9.93651 11.7188 9.84375V3.75C11.7188 3.62568 11.6694 3.50645 11.5815 3.41854C11.4936 3.33064 11.3743 3.28125 11.25 3.28125ZM10.7813 8.7123L8.53478 6.46582L6.28771 4.21875H10.7813V8.7123Z" fill="#081023"/>
</g>
</svg>
