<svg width="15" height="15" viewBox="0 0 15 15" fill="none" xmlns="http://www.w3.org/2000/svg">
<g id="ArrowUpLeft">
<path id="Vector" opacity="0.2" d="M9.84375 3.75L3.75 9.84375V3.75H9.84375Z" fill="#207CFD"/>
<path id="Vector_2" d="M11.5816 10.9184L7.45957 6.79688L10.1754 4.08164C10.241 4.01608 10.2857 3.93253 10.3038 3.84155C10.322 3.75057 10.3127 3.65627 10.2772 3.57057C10.2417 3.48487 10.1815 3.41163 10.1044 3.36013C10.0272 3.30863 9.93651 3.28118 9.84375 3.28125H3.75C3.62568 3.28125 3.50645 3.33064 3.41854 3.41854C3.33064 3.50645 3.28125 3.62568 3.28125 3.75V9.84375C3.28118 9.93651 3.30863 10.0272 3.36013 10.1044C3.41163 10.1815 3.48487 10.2417 3.57057 10.2772C3.65627 10.3127 3.75057 10.322 3.84155 10.3038C3.93253 10.2857 4.01608 10.241 4.08164 10.1754L6.79688 7.45957L10.9184 11.5816C10.9619 11.6252 11.0136 11.6597 11.0705 11.6833C11.1274 11.7069 11.1884 11.719 11.25 11.719C11.3116 11.719 11.3726 11.7069 11.4295 11.6833C11.4864 11.6597 11.5381 11.6252 11.5816 11.5816C11.6252 11.5381 11.6597 11.4864 11.6833 11.4295C11.7069 11.3726 11.719 11.3116 11.719 11.25C11.719 11.1884 11.7069 11.1274 11.6833 11.0705C11.6597 11.0136 11.6252 10.9619 11.5816 10.9184ZM4.21875 4.21875H8.7123L6.46582 6.46523L4.21875 8.7123V4.21875Z" fill="#081023"/>
</g>
</svg>
