<svg width="15" height="15" viewBox="0 0 15 15" fill="none" xmlns="http://www.w3.org/2000/svg">
<g id="ArrowElbowUpLeft">
<path id="Vector" opacity="0.2" d="M5.625 1.875V7.5L2.8125 4.6875L5.625 1.875Z" fill="#081023"/>
<path id="Vector_2" d="M11.25 4.21875H6.09375V1.875C6.09383 1.78224 6.06637 1.69154 6.01487 1.61439C5.96337 1.53723 5.89013 1.4771 5.80444 1.44159C5.71874 1.40608 5.62443 1.39679 5.53345 1.41491C5.44248 1.43303 5.35892 1.47773 5.29336 1.54336L2.48086 4.35586C2.43728 4.3994 2.4027 4.45109 2.37912 4.508C2.35553 4.56491 2.34338 4.6259 2.34338 4.6875C2.34338 4.7491 2.35553 4.8101 2.37912 4.86701C2.4027 4.92391 2.43728 4.97561 2.48086 5.01914L5.29336 7.83164C5.35892 7.89727 5.44248 7.94198 5.53345 7.96009C5.62443 7.97821 5.71874 7.96893 5.80444 7.93342C5.89013 7.89791 5.96337 7.83777 6.01487 7.76062C6.06637 7.68347 6.09383 7.59277 6.09375 7.5V5.15625H10.7813V13.125C10.7813 13.2493 10.8306 13.3686 10.9185 13.4565C11.0065 13.5444 11.1257 13.5938 11.25 13.5938C11.3743 13.5938 11.4936 13.5444 11.5815 13.4565C11.6694 13.3686 11.7188 13.2493 11.7188 13.125V4.6875C11.7188 4.56318 11.6694 4.44395 11.5815 4.35605C11.4936 4.26814 11.3743 4.21875 11.25 4.21875ZM5.15625 6.36856L3.4752 4.6875L5.15625 3.00645V6.36856Z" fill="#081023"/>
</g>
</svg>
