<svg width="15" height="15" viewBox="0 0 15 15" fill="none" xmlns="http://www.w3.org/2000/svg">
<g id="Baby">
<path id="Vector" opacity="0.2" d="M13.125 7.5C13.125 8.61252 12.7951 9.70006 12.177 10.6251C11.5589 11.5501 10.6804 12.2711 9.6526 12.6968C8.62476 13.1226 7.49376 13.234 6.40262 13.0169C5.31148 12.7999 4.3092 12.2641 3.52253 11.4775C2.73586 10.6908 2.20013 9.68853 1.98309 8.59738C1.76604 7.50624 1.87744 6.37524 2.30318 5.34741C2.72892 4.31957 3.44989 3.44107 4.37492 2.82298C5.29995 2.2049 6.38748 1.875 7.5 1.875C8.99185 1.875 10.4226 2.46763 11.4775 3.52252C12.5324 4.57742 13.125 6.00816 13.125 7.5Z" fill="#081023"/>
<path id="Vector_2" d="M5.39063 8.20312C5.25156 8.20312 5.11562 8.16189 4.99999 8.08463C4.88436 8.00737 4.79424 7.89755 4.74102 7.76907C4.68781 7.64059 4.67388 7.49922 4.70101 7.36283C4.72814 7.22643 4.79511 7.10115 4.89344 7.00282C4.99178 6.90448 5.11706 6.83752 5.25345 6.81038C5.38985 6.78325 5.53122 6.79718 5.6597 6.8504C5.78818 6.90361 5.89799 6.99374 5.97525 7.10936C6.05252 7.22499 6.09375 7.36093 6.09375 7.5C6.09375 7.68648 6.01967 7.86532 5.88781 7.99718C5.75595 8.12905 5.57711 8.20312 5.39063 8.20312ZM9.60938 6.79687C9.47031 6.79687 9.33437 6.83811 9.21874 6.91537C9.10311 6.99263 9.01299 7.10245 8.95977 7.23093C8.90656 7.3594 8.89263 7.50078 8.91976 7.63717C8.94689 7.77357 9.01386 7.89885 9.11219 7.99718C9.21053 8.09552 9.33581 8.16248 9.4722 8.18961C9.6086 8.21674 9.74997 8.20282 9.87845 8.1496C10.0069 8.09638 10.1167 8.00626 10.194 7.89063C10.2713 7.77501 10.3125 7.63906 10.3125 7.5C10.3125 7.31352 10.2384 7.13468 10.1066 7.00282C9.9747 6.87095 9.79586 6.79687 9.60938 6.79687ZM8.89043 9.44707C8.47294 9.70618 7.99136 9.84348 7.5 9.84348C7.00864 9.84348 6.52706 9.70618 6.10957 9.44707C6.00437 9.38071 5.87711 9.35887 5.7558 9.38634C5.63448 9.41381 5.52905 9.48835 5.4627 9.59355C5.39634 9.69876 5.3745 9.82602 5.40197 9.94733C5.42944 10.0686 5.50398 10.1741 5.60918 10.2404C6.17646 10.5941 6.83153 10.7815 7.5 10.7815C8.16847 10.7815 8.82355 10.5941 9.39082 10.2404C9.49603 10.1741 9.57057 10.0686 9.59804 9.94733C9.62551 9.82602 9.60366 9.69876 9.53731 9.59355C9.47095 9.48835 9.36552 9.41381 9.24421 9.38634C9.12289 9.35887 8.99564 9.38071 8.89043 9.44707ZM13.5938 7.5C13.5938 8.70523 13.2364 9.88339 12.5668 10.8855C11.8972 11.8876 10.9455 12.6687 9.83198 13.1299C8.71849 13.5911 7.49324 13.7118 6.31117 13.4767C5.1291 13.2415 4.0433 12.6612 3.19107 11.8089C2.33884 10.9567 1.75847 9.8709 1.52334 8.68883C1.28821 7.50676 1.40889 6.28151 1.87011 5.16802C2.33133 4.05454 3.11238 3.10282 4.1145 2.43323C5.11661 1.76364 6.29477 1.40625 7.5 1.40625C9.11564 1.40796 10.6646 2.05052 11.807 3.19295C12.9495 4.33538 13.592 5.88436 13.5938 7.5ZM12.6563 7.5C12.6546 6.17264 12.1418 4.89691 11.2243 3.93772C10.3068 2.97853 9.05508 2.40958 7.7291 2.34902C7.05 3.30352 7.03125 4.21172 7.03125 4.21875C7.03125 4.34307 7.08064 4.4623 7.16855 4.55021C7.25645 4.63811 7.37568 4.6875 7.5 4.6875C7.62432 4.6875 7.74355 4.63811 7.83146 4.55021C7.91937 4.4623 7.96875 4.34307 7.96875 4.21875C7.96875 4.09443 8.01814 3.9752 8.10605 3.88729C8.19395 3.79939 8.31318 3.75 8.4375 3.75C8.56182 3.75 8.68105 3.79939 8.76896 3.88729C8.85687 3.9752 8.90625 4.09443 8.90625 4.21875C8.90625 4.59171 8.75809 4.9494 8.49437 5.21312C8.23065 5.47684 7.87296 5.625 7.5 5.625C7.12704 5.625 6.76936 5.47684 6.50563 5.21312C6.24191 4.9494 6.09375 4.59171 6.09375 4.21875C6.09375 4.17598 6.10137 3.38086 6.58946 2.42402C5.62404 2.59723 4.72805 3.0422 4.00663 3.70671C3.28521 4.37123 2.76829 5.22772 2.51652 6.17569C2.26475 7.12365 2.28858 8.12377 2.58522 9.05867C2.88186 9.99356 3.43899 10.8245 4.19124 11.4539C4.9435 12.0833 5.85966 12.485 6.83224 12.6121C7.80481 12.7391 8.79343 12.5861 9.6821 12.171C10.5708 11.7559 11.3226 11.096 11.8494 10.2686C12.3762 9.44127 12.6561 8.48083 12.6563 7.5Z" fill="#081023"/>
</g>
</svg>
