<svg width="16" height="15" viewBox="0 0 16 15" fill="none" xmlns="http://www.w3.org/2000/svg">
<g id="Bank">
<path id="Vector" opacity="0.2" d="M14.5 5.625H1.5L8 1.875L14.5 5.625Z" fill="#081023"/>
<path id="Vector_2" d="M1.5 6.09376H3V9.84376H2C1.86739 9.84376 1.74021 9.89315 1.64645 9.98106C1.55268 10.069 1.5 10.1882 1.5 10.3125C1.5 10.4368 1.55268 10.5561 1.64645 10.644C1.74021 10.7319 1.86739 10.7813 2 10.7813H14C14.1326 10.7813 14.2598 10.7319 14.3536 10.644C14.4473 10.5561 14.5 10.4368 14.5 10.3125C14.5 10.1882 14.4473 10.069 14.3536 9.98106C14.2598 9.89315 14.1326 9.84376 14 9.84376H13V6.09376H14.5C14.6088 6.09366 14.7146 6.0603 14.8013 5.99873C14.888 5.93717 14.951 5.85076 14.9806 5.75262C15.0102 5.65448 15.0049 5.54997 14.9654 5.45493C14.9259 5.35989 14.8545 5.27951 14.7619 5.22599L8.26188 1.47599C8.18311 1.43059 8.09246 1.40656 8 1.40656C7.90754 1.40656 7.81689 1.43059 7.73812 1.47599L1.23812 5.22599C1.14552 5.27951 1.07406 5.35989 1.03458 5.45493C0.995107 5.54997 0.989773 5.65448 1.01939 5.75262C1.04901 5.85076 1.11195 5.93717 1.19869 5.99873C1.28542 6.0603 1.39121 6.09366 1.5 6.09376ZM4 6.09376H6V9.84376H4V6.09376ZM9 6.09376V9.84376H7V6.09376H9ZM12 9.84376H10V6.09376H12V9.84376ZM8 2.42521L12.7338 5.15626H3.26625L8 2.42521ZM15.5 12.1875C15.5 12.3118 15.4473 12.4311 15.3536 12.519C15.2598 12.6069 15.1326 12.6563 15 12.6563H1C0.867392 12.6563 0.740215 12.6069 0.646447 12.519C0.552678 12.4311 0.5 12.3118 0.5 12.1875C0.5 12.0632 0.552678 11.944 0.646447 11.8561C0.740215 11.7681 0.867392 11.7188 1 11.7188H15C15.1326 11.7188 15.2598 11.7681 15.3536 11.8561C15.4473 11.944 15.5 12.0632 15.5 12.1875Z" fill="#081023"/>
</g>
</svg>
