<svg width="15" height="15" viewBox="0 0 15 15" fill="none" xmlns="http://www.w3.org/2000/svg">
<g id="BeerStein">
<path id="Vector" opacity="0.2" d="M11.25 4.21875V12.1875C11.25 12.3118 11.2006 12.4311 11.1127 12.519C11.0248 12.6069 10.9056 12.6563 10.7812 12.6563H3.28125C3.15693 12.6563 3.0377 12.6069 2.94979 12.519C2.86189 12.4311 2.8125 12.3118 2.8125 12.1875V4.21875H11.25Z" fill="#081023"/>
<path id="Vector_2" d="M6.09375 6.09375V10.7812C6.09375 10.9056 6.04436 11.0248 5.95646 11.1127C5.86855 11.2006 5.74932 11.25 5.625 11.25C5.50068 11.25 5.38145 11.2006 5.29354 11.1127C5.20564 11.0248 5.15625 10.9056 5.15625 10.7812V6.09375C5.15625 5.96943 5.20564 5.8502 5.29354 5.76229C5.38145 5.67439 5.50068 5.625 5.625 5.625C5.74932 5.625 5.86855 5.67439 5.95646 5.76229C6.04436 5.8502 6.09375 5.96943 6.09375 6.09375ZM8.4375 5.625C8.31318 5.625 8.19395 5.67439 8.10604 5.76229C8.01814 5.8502 7.96875 5.96943 7.96875 6.09375V10.7812C7.96875 10.9056 8.01814 11.0248 8.10604 11.1127C8.19395 11.2006 8.31318 11.25 8.4375 11.25C8.56182 11.25 8.68105 11.2006 8.76896 11.1127C8.85686 11.0248 8.90625 10.9056 8.90625 10.7812V6.09375C8.90625 5.96943 8.85686 5.8502 8.76896 5.76229C8.68105 5.67439 8.56182 5.625 8.4375 5.625ZM14.0625 6.5625V10.3125C14.0625 10.6855 13.9143 11.0431 13.6506 11.3069C13.3869 11.5706 13.0292 11.7188 12.6562 11.7188H11.7188V12.1875C11.7188 12.4361 11.62 12.6746 11.4442 12.8504C11.2683 13.0262 11.0299 13.125 10.7812 13.125H3.28125C3.03261 13.125 2.79415 13.0262 2.61834 12.8504C2.44252 12.6746 2.34375 12.4361 2.34375 12.1875V4.21875C2.34375 2.40938 4.02598 0.9375 6.09375 0.9375C7.07637 0.9375 8.02207 1.27734 8.71992 1.875H9.375C9.9966 1.875 10.5927 2.12193 11.0323 2.56147C11.4718 3.00101 11.7188 3.59715 11.7188 4.21875V5.15625H12.6562C13.0292 5.15625 13.3869 5.30441 13.6506 5.56813C13.9143 5.83185 14.0625 6.18954 14.0625 6.5625ZM3.33984 3.75H10.7004C10.6035 3.4759 10.424 3.23857 10.1866 3.07068C9.94929 2.90279 9.66573 2.81259 9.375 2.8125H8.53945C8.41872 2.81249 8.30266 2.76589 8.21543 2.68242C7.6793 2.16797 6.90645 1.875 6.09375 1.875C4.73555 1.875 3.59941 2.68125 3.33984 3.75ZM10.7812 12.1875V11.26C10.7812 11.2564 10.7812 11.2535 10.7812 11.25C10.7812 11.2465 10.7812 11.2436 10.7812 11.24V4.6875H3.28125V12.1875H10.7812ZM13.125 6.5625C13.125 6.43818 13.0756 6.31895 12.9877 6.23104C12.8998 6.14314 12.7806 6.09375 12.6562 6.09375H11.7188V10.7812H12.6562C12.7806 10.7812 12.8998 10.7319 12.9877 10.644C13.0756 10.556 13.125 10.4368 13.125 10.3125V6.5625Z" fill="#081023"/>
</g>
</svg>
