<svg width="22" height="22" viewBox="0 0 22 22" fill="none" xmlns="http://www.w3.org/2000/svg">
<g id="MedalMilitary">
<path id="Vector" opacity="0.2" d="M14.4375 15.8125C14.4375 16.4924 14.2359 17.157 13.8582 17.7223C13.4805 18.2876 12.9436 18.7282 12.3155 18.9883C11.6874 19.2485 10.9962 19.3166 10.3294 19.1839C9.66257 19.0513 9.05006 18.7239 8.56932 18.2432C8.08858 17.7624 7.76119 17.1499 7.62855 16.4831C7.49591 15.8163 7.56399 15.1251 7.82416 14.497C8.08434 13.8689 8.52493 13.332 9.09023 12.9543C9.65552 12.5766 10.3201 12.375 11 12.375C11.9117 12.375 12.786 12.7372 13.4307 13.3818C14.0753 14.0265 14.4375 14.9008 14.4375 15.8125ZM17.7891 3.4375H14.4375V10.8127L18.1088 9.14375C18.2441 9.08231 18.3589 8.98317 18.4394 8.8582C18.5198 8.73322 18.5626 8.5877 18.5625 8.43906V4.21094C18.5625 4.00581 18.481 3.80908 18.336 3.66403C18.1909 3.51899 17.9942 3.4375 17.7891 3.4375ZM7.5625 3.4375H4.21094C4.00581 3.4375 3.80908 3.51899 3.66403 3.66403C3.51899 3.80908 3.4375 4.00581 3.4375 4.21094V8.43906C3.43742 8.5877 3.48018 8.73322 3.56065 8.8582C3.64112 8.98317 3.7559 9.08231 3.89125 9.14375L7.5625 10.8127V3.4375Z" fill="#FAFAFA" fill-opacity="0.980392"/>
<path id="Vector_2" d="M17.7891 2.75H4.21094C3.82347 2.75 3.45188 2.90392 3.1779 3.1779C2.90392 3.45188 2.75 3.82347 2.75 4.21094V8.43992C2.75036 8.72067 2.83161 8.99536 2.98402 9.23113C3.13642 9.46691 3.35354 9.65377 3.60938 9.76937L8.98906 12.2143C8.19251 12.66 7.5663 13.3574 7.20852 14.1972C6.85073 15.0369 6.78159 15.9716 7.01192 16.8549C7.24225 17.7381 7.75903 18.52 8.48133 19.0781C9.20363 19.6362 10.0906 19.939 11.0034 19.939C11.9162 19.939 12.8032 19.6362 13.5255 19.0781C14.2478 18.52 14.7646 17.7381 14.995 16.8549C15.2253 15.9716 15.1561 15.0369 14.7984 14.1972C14.4406 13.3574 13.8144 12.66 13.0178 12.2143L18.3906 9.76937C18.6465 9.65377 18.8636 9.46691 19.016 9.23113C19.1684 8.99536 19.2496 8.72067 19.25 8.43992V4.21094C19.25 3.82347 19.0961 3.45188 18.8221 3.1779C18.5481 2.90392 18.1765 2.75 17.7891 2.75ZM13.75 4.125V10.3701L11 11.6196L8.25 10.3701V4.125H13.75ZM4.125 8.43992V4.21094C4.125 4.18815 4.13405 4.16629 4.15017 4.15017C4.16629 4.13405 4.18815 4.125 4.21094 4.125H6.875V9.74445L4.1757 8.51813C4.16063 8.51135 4.14782 8.50036 4.13883 8.48649C4.12984 8.47262 4.12503 8.45645 4.125 8.43992ZM11 18.5625C10.4561 18.5625 9.92442 18.4012 9.47218 18.099C9.01995 17.7969 8.66747 17.3674 8.45933 16.8649C8.25119 16.3624 8.19673 15.8094 8.30284 15.276C8.40895 14.7426 8.67086 14.2526 9.05546 13.868C9.44005 13.4834 9.93005 13.2214 10.4635 13.1153C10.997 13.0092 11.5499 13.0637 12.0524 13.2718C12.5549 13.48 12.9844 13.8324 13.2865 14.2847C13.5887 14.7369 13.75 15.2686 13.75 15.8125C13.75 16.5418 13.4603 17.2413 12.9445 17.757C12.4288 18.2728 11.7293 18.5625 11 18.5625ZM17.875 8.43992C17.875 8.45645 17.8702 8.47262 17.8612 8.48649C17.8522 8.50036 17.8394 8.51135 17.8243 8.51813L15.125 9.74445V4.125H17.7891C17.8119 4.125 17.8337 4.13405 17.8498 4.15017C17.8659 4.16629 17.875 4.18815 17.875 4.21094V8.43992Z" fill="#081023"/>
</g>
</svg>
