<svg width="15" height="15" viewBox="0 0 15 15" fill="none" xmlns="http://www.w3.org/2000/svg">
<g id="Coffee">
<path id="Vector" opacity="0.2" d="M12.1875 5.15625V7.96875C12.1877 8.95583 11.9046 9.92223 11.3717 10.7532C10.8389 11.5841 10.0788 12.2446 9.18164 12.6562H4.88086C3.98371 12.2446 3.22358 11.5841 2.69075 10.7532C2.15793 9.92223 1.8748 8.95583 1.875 7.96875V5.15625H12.1875Z" fill="#207CFD"/>
<path id="Vector_2" d="M4.6875 3.28125V1.40625C4.6875 1.28193 4.73689 1.1627 4.82479 1.07479C4.9127 0.986886 5.03193 0.9375 5.15625 0.9375C5.28057 0.9375 5.3998 0.986886 5.48771 1.07479C5.57561 1.1627 5.625 1.28193 5.625 1.40625V3.28125C5.625 3.40557 5.57561 3.5248 5.48771 3.61271C5.3998 3.70061 5.28057 3.75 5.15625 3.75C5.03193 3.75 4.9127 3.70061 4.82479 3.61271C4.73689 3.5248 4.6875 3.40557 4.6875 3.28125ZM7.03125 3.75C7.15557 3.75 7.2748 3.70061 7.36271 3.61271C7.45061 3.5248 7.5 3.40557 7.5 3.28125V1.40625C7.5 1.28193 7.45061 1.1627 7.36271 1.07479C7.2748 0.986886 7.15557 0.9375 7.03125 0.9375C6.90693 0.9375 6.7877 0.986886 6.69979 1.07479C6.61189 1.1627 6.5625 1.28193 6.5625 1.40625V3.28125C6.5625 3.40557 6.61189 3.5248 6.69979 3.61271C6.7877 3.70061 6.90693 3.75 7.03125 3.75ZM8.90625 3.75C9.03057 3.75 9.1498 3.70061 9.23771 3.61271C9.32561 3.5248 9.375 3.40557 9.375 3.28125V1.40625C9.375 1.28193 9.32561 1.1627 9.23771 1.07479C9.1498 0.986886 9.03057 0.9375 8.90625 0.9375C8.78193 0.9375 8.6627 0.986886 8.57479 1.07479C8.48689 1.1627 8.4375 1.28193 8.4375 1.40625V3.28125C8.4375 3.40557 8.48689 3.5248 8.57479 3.61271C8.6627 3.70061 8.78193 3.75 8.90625 3.75ZM14.5312 7.03125V7.5C14.5311 8.09622 14.3037 8.66996 13.8953 9.10441C13.487 9.53886 12.9285 9.80136 12.3334 9.83848C12.0137 10.7429 11.4693 11.5512 10.7514 12.1875H12.1875C12.3118 12.1875 12.431 12.2369 12.519 12.3248C12.6069 12.4127 12.6562 12.5319 12.6562 12.6562C12.6562 12.7806 12.6069 12.8998 12.519 12.9877C12.431 13.0756 12.3118 13.125 12.1875 13.125H1.875C1.75068 13.125 1.63145 13.0756 1.54354 12.9877C1.45564 12.8998 1.40625 12.7806 1.40625 12.6562C1.40625 12.5319 1.45564 12.4127 1.54354 12.3248C1.63145 12.2369 1.75068 12.1875 1.875 12.1875H3.31289C2.71482 11.6591 2.23564 11.0099 1.90698 10.2827C1.57832 9.55545 1.40765 8.76679 1.40625 7.96875V5.15625C1.40625 5.03193 1.45564 4.9127 1.54354 4.82479C1.63145 4.73689 1.75068 4.6875 1.875 4.6875H12.1875C12.8091 4.6875 13.4052 4.93443 13.8448 5.37397C14.2843 5.81351 14.5312 6.40965 14.5312 7.03125ZM11.7187 5.625H2.34375V7.96875C2.34556 8.84888 2.59428 9.71083 3.06164 10.4566C3.529 11.2024 4.19624 11.8021 4.9875 12.1875H9.075C9.86626 11.8021 10.5335 11.2024 11.0009 10.4566C11.4682 9.71083 11.7169 8.84888 11.7187 7.96875V5.625ZM13.5937 7.03125C13.5937 6.74052 13.5035 6.45696 13.3356 6.21961C13.1677 5.98225 12.9304 5.80277 12.6562 5.70586V7.96875C12.6559 8.26311 12.6324 8.55698 12.5859 8.84766C12.8768 8.76173 13.1321 8.58408 13.3137 8.34122C13.4953 8.09835 13.5935 7.80327 13.5937 7.5V7.03125Z" fill="#081023"/>
</g>
</svg>
