<svg width="15" height="15" viewBox="0 0 15 15" fill="none" xmlns="http://www.w3.org/2000/svg">
<path opacity="0.2" d="M13.125 4.6875V11.25C13.125 11.4986 13.0262 11.7371 12.8504 11.9129C12.6746 12.0887 12.4361 12.1875 12.1875 12.1875H2.8125C2.56386 12.1875 2.3254 12.0887 2.14959 11.9129C1.97377 11.7371 1.875 11.4986 1.875 11.25V4.6875C1.875 4.43886 1.97377 4.2004 2.14959 4.02459C2.3254 3.84877 2.56386 3.75 2.8125 3.75H4.6875L5.625 2.34375H9.375L10.3125 3.75H12.1875C12.4361 3.75 12.6746 3.84877 12.8504 4.02459C13.0262 4.2004 13.125 4.43886 13.125 4.6875Z" fill="#207CFD"/>
<path d="M12.1875 3.28125H10.5633L9.76465 2.08359C9.72186 2.01946 9.66392 1.96688 9.59595 1.93049C9.52798 1.89411 9.45209 1.87505 9.375 1.875H5.625C5.54791 1.87505 5.47202 1.89411 5.40405 1.93049C5.33608 1.96688 5.27814 2.01946 5.23535 2.08359L4.43613 3.28125H2.8125C2.43954 3.28125 2.08185 3.42941 1.81813 3.69313C1.55441 3.95685 1.40625 4.31454 1.40625 4.6875V11.25C1.40625 11.623 1.55441 11.9806 1.81813 12.2444C2.08185 12.5081 2.43954 12.6562 2.8125 12.6562H12.1875C12.5605 12.6562 12.9181 12.5081 13.1819 12.2444C13.4456 11.9806 13.5938 11.623 13.5938 11.25V4.6875C13.5938 4.31454 13.4456 3.95685 13.1819 3.69313C12.9181 3.42941 12.5605 3.28125 12.1875 3.28125ZM12.6562 11.25C12.6562 11.3743 12.6069 11.4935 12.519 11.5815C12.431 11.6694 12.3118 11.7187 12.1875 11.7187H2.8125C2.68818 11.7187 2.56895 11.6694 2.48104 11.5815C2.39314 11.4935 2.34375 11.3743 2.34375 11.25V4.6875C2.34375 4.56318 2.39314 4.44395 2.48104 4.35604C2.56895 4.26814 2.68818 4.21875 2.8125 4.21875H4.6875C4.76469 4.2188 4.8407 4.19979 4.90878 4.1634C4.97686 4.12701 5.03489 4.07437 5.07773 4.01016L5.87578 2.8125H9.12363L9.92227 4.01016C9.96511 4.07437 10.0231 4.12701 10.0912 4.1634C10.1593 4.19979 10.2353 4.2188 10.3125 4.21875H12.1875C12.3118 4.21875 12.431 4.26814 12.519 4.35604C12.6069 4.44395 12.6562 4.56318 12.6562 4.6875V11.25ZM9.84375 7.96875C9.84375 8.09307 9.79436 8.2123 9.70646 8.30021C9.61855 8.38811 9.49932 8.4375 9.375 8.4375H7.96875V9.84375C7.96875 9.96807 7.91936 10.0873 7.83146 10.1752C7.74355 10.2631 7.62432 10.3125 7.5 10.3125C7.37568 10.3125 7.25645 10.2631 7.16854 10.1752C7.08064 10.0873 7.03125 9.96807 7.03125 9.84375V8.4375H5.625C5.50068 8.4375 5.38145 8.38811 5.29354 8.30021C5.20564 8.2123 5.15625 8.09307 5.15625 7.96875C5.15625 7.84443 5.20564 7.7252 5.29354 7.63729C5.38145 7.54939 5.50068 7.5 5.625 7.5H7.03125V6.09375C7.03125 5.96943 7.08064 5.8502 7.16854 5.76229C7.25645 5.67439 7.37568 5.625 7.5 5.625C7.62432 5.625 7.74355 5.67439 7.83146 5.76229C7.91936 5.8502 7.96875 5.96943 7.96875 6.09375V7.5H9.375C9.49932 7.5 9.61855 7.54939 9.70646 7.63729C9.79436 7.7252 9.84375 7.84443 9.84375 7.96875Z" fill="#081023"/>
</svg>
