<svg width="29" height="29" viewBox="0 0 29 29" fill="none" xmlns="http://www.w3.org/2000/svg">
<path opacity="0.2" d="M23.0472 7.59695H19.5957L17.8699 5.0083H10.9668L9.24108 7.59695H5.78955C5.33185 7.59695 4.89289 7.77877 4.56925 8.10241C4.2456 8.42606 4.06378 8.86501 4.06378 9.32271V21.4031C4.06378 21.8608 4.2456 22.2997 4.56925 22.6234C4.89289 22.947 5.33185 23.1288 5.78955 23.1288H23.0472C23.5049 23.1288 23.9439 22.947 24.2675 22.6234C24.5911 22.2997 24.773 21.8608 24.773 21.4031V9.32271C24.773 8.86501 24.5911 8.42606 24.2675 8.10241C23.9439 7.77877 23.5049 7.59695 23.0472 7.59695ZM14.4184 18.8144C13.6504 18.8144 12.8997 18.5867 12.2611 18.16C11.6226 17.7334 11.1249 17.1269 10.831 16.4174C10.5371 15.7079 10.4602 14.9271 10.61 14.1739C10.7598 13.4207 11.1297 12.7288 11.6727 12.1858C12.2157 11.6427 12.9076 11.2729 13.6608 11.1231C14.4141 10.9733 15.1948 11.0502 15.9043 11.3441C16.6138 11.6379 17.2203 12.1356 17.6469 12.7742C18.0736 13.4127 18.3013 14.1635 18.3013 14.9315C18.3013 15.9613 17.8923 16.9489 17.1641 17.6771C16.4359 18.4053 15.4482 18.8144 14.4184 18.8144Z" fill="#207CFD"/>
<path d="M23.0472 6.73416H20.0573L18.5872 4.52949C18.5084 4.41144 18.4018 4.31464 18.2767 4.24766C18.1516 4.18068 18.0118 4.14559 17.8699 4.14551H10.9669C10.825 4.14559 10.6853 4.18068 10.5601 4.24766C10.435 4.31464 10.3284 4.41144 10.2496 4.52949L8.77839 6.73416H5.78958C5.10302 6.73416 4.44459 7.00689 3.95913 7.49235C3.47366 7.97782 3.20093 8.63625 3.20093 9.3228V21.4032C3.20093 22.0897 3.47366 22.7481 3.95913 23.2336C4.44459 23.7191 5.10302 23.9918 5.78958 23.9918H23.0472C23.7338 23.9918 24.3922 23.7191 24.8777 23.2336C25.3631 22.7481 25.6359 22.0897 25.6359 21.4032V9.3228C25.6359 8.63625 25.3631 7.97782 24.8777 7.49235C24.3922 7.00689 23.7338 6.73416 23.0472 6.73416ZM23.9101 21.4032C23.9101 21.632 23.8192 21.8515 23.6574 22.0133C23.4956 22.1751 23.2761 22.266 23.0472 22.266H5.78958C5.56073 22.266 5.34125 22.1751 5.17943 22.0133C5.0176 21.8515 4.92669 21.632 4.92669 21.4032V9.3228C4.92669 9.09395 5.0176 8.87448 5.17943 8.71265C5.34125 8.55083 5.56073 8.45992 5.78958 8.45992H9.24111C9.3832 8.46001 9.52312 8.42501 9.64844 8.35803C9.77376 8.29104 9.88059 8.19414 9.95946 8.07594L11.4285 5.87127H17.4072L18.8773 8.07594C18.9562 8.19414 19.063 8.29104 19.1884 8.35803C19.3137 8.42501 19.4536 8.46001 19.5957 8.45992H23.0472C23.2761 8.45992 23.4956 8.55083 23.6574 8.71265C23.8192 8.87448 23.9101 9.09395 23.9101 9.3228V21.4032ZM14.4184 10.1857C13.4798 10.1857 12.5622 10.464 11.7817 10.9855C11.0013 11.507 10.393 12.2482 10.0338 13.1154C9.6746 13.9826 9.58062 14.9368 9.76374 15.8574C9.94686 16.778 10.3989 17.6236 11.0626 18.2874C11.7263 18.9511 12.5719 19.4031 13.4925 19.5862C14.4131 19.7693 15.3674 19.6753 16.2346 19.3161C17.1018 18.9569 17.843 18.3486 18.3644 17.5682C18.8859 16.7877 19.1643 15.8702 19.1643 14.9315C19.1628 13.6733 18.6624 12.467 17.7727 11.5773C16.8829 10.6876 15.6766 10.1871 14.4184 10.1857ZM14.4184 17.9516C13.8211 17.9516 13.2372 17.7745 12.7405 17.4427C12.2439 17.1108 11.8568 16.6391 11.6282 16.0873C11.3996 15.5354 11.3398 14.9282 11.4563 14.3424C11.5729 13.7565 11.8605 13.2184 12.2829 12.796C12.7052 12.3736 13.2434 12.086 13.8292 11.9695C14.4151 11.853 15.0223 11.9128 15.5741 12.1413C16.126 12.3699 16.5977 12.757 16.9295 13.2537C17.2614 13.7503 17.4385 14.3342 17.4385 14.9315C17.4385 15.7325 17.1203 16.5007 16.5539 17.0671C15.9876 17.6334 15.2194 17.9516 14.4184 17.9516Z" fill="#081023"/>
</svg>
