<svg width="16" height="15" viewBox="0 0 16 15" fill="none" xmlns="http://www.w3.org/2000/svg">
<g id="Car">
<path id="Vector" opacity="0.2" d="M11.5 10.7812H14V12.1875C14 12.3118 13.9473 12.431 13.8536 12.519C13.7598 12.6069 13.6326 12.6562 13.5 12.6562H12C11.8674 12.6562 11.7402 12.6069 11.6464 12.519C11.5527 12.431 11.5 12.3118 11.5 12.1875V10.7812ZM2 12.1875C2 12.3118 2.05268 12.431 2.14645 12.519C2.24021 12.6069 2.36739 12.6562 2.5 12.6562H4C4.13261 12.6562 4.25979 12.6069 4.35355 12.519C4.44732 12.431 4.5 12.3118 4.5 12.1875V10.7812H2V12.1875ZM12.1319 3.09082C12.0926 3.00798 12.0285 2.93759 11.9474 2.88819C11.8663 2.83879 11.7717 2.8125 11.675 2.8125H4.325C4.22829 2.8125 4.13366 2.83879 4.05257 2.88819C3.97148 2.93759 3.90741 3.00798 3.86812 3.09082L2 7.03125H14L12.1319 3.09082Z" fill="#207CFD"/>
<path id="Vector_2" d="M15 6.5625H14.325L12.5887 2.90039C12.5102 2.7347 12.382 2.59393 12.2199 2.49514C12.0577 2.39634 11.8684 2.34375 11.675 2.34375H4.325C4.13159 2.34375 3.94233 2.39634 3.78014 2.49514C3.61796 2.59393 3.48982 2.7347 3.41125 2.90039L1.675 6.5625H1C0.867392 6.5625 0.740215 6.61189 0.646447 6.69979C0.552678 6.7877 0.5 6.90693 0.5 7.03125C0.5 7.15557 0.552678 7.2748 0.646447 7.36271C0.740215 7.45061 0.867392 7.5 1 7.5H1.5V12.1875C1.5 12.4361 1.60536 12.6746 1.79289 12.8504C1.98043 13.0262 2.23478 13.125 2.5 13.125H4C4.26522 13.125 4.51957 13.0262 4.70711 12.8504C4.89464 12.6746 5 12.4361 5 12.1875V11.25H11V12.1875C11 12.4361 11.1054 12.6746 11.2929 12.8504C11.4804 13.0262 11.7348 13.125 12 13.125H13.5C13.7652 13.125 14.0196 13.0262 14.2071 12.8504C14.3946 12.6746 14.5 12.4361 14.5 12.1875V7.5H15C15.1326 7.5 15.2598 7.45061 15.3536 7.36271C15.4473 7.2748 15.5 7.15557 15.5 7.03125C15.5 6.90693 15.4473 6.7877 15.3536 6.69979C15.2598 6.61189 15.1326 6.5625 15 6.5625ZM4.325 3.28125H11.675L13.2306 6.5625H2.76938L4.325 3.28125ZM4 12.1875H2.5V11.25H4V12.1875ZM12 12.1875V11.25H13.5V12.1875H12ZM13.5 10.3125H2.5V7.5H13.5V10.3125ZM3.5 8.90625C3.5 8.78193 3.55268 8.6627 3.64645 8.57479C3.74021 8.48689 3.86739 8.4375 4 8.4375H5C5.13261 8.4375 5.25979 8.48689 5.35355 8.57479C5.44732 8.6627 5.5 8.78193 5.5 8.90625C5.5 9.03057 5.44732 9.1498 5.35355 9.23771C5.25979 9.32561 5.13261 9.375 5 9.375H4C3.86739 9.375 3.74021 9.32561 3.64645 9.23771C3.55268 9.1498 3.5 9.03057 3.5 8.90625ZM10.5 8.90625C10.5 8.78193 10.5527 8.6627 10.6464 8.57479C10.7402 8.48689 10.8674 8.4375 11 8.4375H12C12.1326 8.4375 12.2598 8.48689 12.3536 8.57479C12.4473 8.6627 12.5 8.78193 12.5 8.90625C12.5 9.03057 12.4473 9.1498 12.3536 9.23771C12.2598 9.32561 12.1326 9.375 12 9.375H11C10.8674 9.375 10.7402 9.32561 10.6464 9.23771C10.5527 9.1498 10.5 9.03057 10.5 8.90625Z" fill="#081023"/>
</g>
</svg>
