<svg width="15" height="15" viewBox="0 0 15 15" fill="none" xmlns="http://www.w3.org/2000/svg">
<g id="Chair">
<path id="Vector" opacity="0.2" d="M3.28125 5.15625V2.34375C3.28125 2.21943 3.33064 2.1002 3.41854 2.01229C3.50645 1.92439 3.62568 1.875 3.75 1.875H11.25C11.3743 1.875 11.4935 1.92439 11.5815 2.01229C11.6694 2.1002 11.7188 2.21943 11.7188 2.34375V5.15625C11.7188 5.28057 11.6694 5.3998 11.5815 5.48771C11.4935 5.57561 11.3743 5.625 11.25 5.625H3.75C3.62568 5.625 3.50645 5.57561 3.41854 5.48771C3.33064 5.3998 3.28125 5.28057 3.28125 5.15625ZM12.1875 8.4375H2.8125C2.68818 8.4375 2.56895 8.48689 2.48104 8.57479C2.39314 8.6627 2.34375 8.78193 2.34375 8.90625V9.84375C2.34375 9.96807 2.39314 10.0873 2.48104 10.1752C2.56895 10.2631 2.68818 10.3125 2.8125 10.3125H12.1875C12.3118 10.3125 12.431 10.2631 12.519 10.1752C12.6069 10.0873 12.6562 9.96807 12.6562 9.84375V8.90625C12.6562 8.78193 12.6069 8.6627 12.519 8.57479C12.431 8.48689 12.3118 8.4375 12.1875 8.4375Z" fill="#081023"/>
<path id="Vector_2" d="M12.1875 7.96875H10.3125V6.09375H11.25C11.4986 6.09375 11.7371 5.99498 11.9129 5.81916C12.0887 5.64335 12.1875 5.40489 12.1875 5.15625V2.34375C12.1875 2.09511 12.0887 1.85665 11.9129 1.68084C11.7371 1.50502 11.4986 1.40625 11.25 1.40625H3.75C3.50136 1.40625 3.2629 1.50502 3.08709 1.68084C2.91127 1.85665 2.8125 2.09511 2.8125 2.34375V5.15625C2.8125 5.40489 2.91127 5.64335 3.08709 5.81916C3.2629 5.99498 3.50136 6.09375 3.75 6.09375H4.6875V7.96875H2.8125C2.56386 7.96875 2.3254 8.06752 2.14959 8.24334C1.97377 8.41915 1.875 8.65761 1.875 8.90625V9.84375C1.875 10.0924 1.97377 10.3308 2.14959 10.5067C2.3254 10.6825 2.56386 10.7812 2.8125 10.7812H3.28125V13.125C3.28125 13.2493 3.33064 13.3685 3.41854 13.4565C3.50645 13.5444 3.62568 13.5938 3.75 13.5938C3.87432 13.5938 3.99355 13.5444 4.08146 13.4565C4.16936 13.3685 4.21875 13.2493 4.21875 13.125V10.7812H10.7813V13.125C10.7813 13.2493 10.8306 13.3685 10.9185 13.4565C11.0065 13.5444 11.1257 13.5938 11.25 13.5938C11.3743 13.5938 11.4935 13.5444 11.5815 13.4565C11.6694 13.3685 11.7188 13.2493 11.7188 13.125V10.7812H12.1875C12.4361 10.7812 12.6746 10.6825 12.8504 10.5067C13.0262 10.3308 13.125 10.0924 13.125 9.84375V8.90625C13.125 8.65761 13.0262 8.41915 12.8504 8.24334C12.6746 8.06752 12.4361 7.96875 12.1875 7.96875ZM3.75 2.34375H11.25V5.15625H3.75V2.34375ZM5.625 6.09375H9.375V7.96875H5.625V6.09375ZM12.1875 9.84375H2.8125V8.90625H12.1875V9.84375Z" fill="#081023"/>
</g>
</svg>
