<svg width="16" height="15" viewBox="0 0 16 15" fill="none" xmlns="http://www.w3.org/2000/svg">
<g id="Church">
<path id="Vector" opacity="0.2" d="M14 8.90625V12.6562H11.5V7.5L14 8.90625ZM2 12.6562H4.5V7.5L2 8.90625V12.6562Z" fill="#081023"/>
<path id="Vector_2" d="M14.2575 8.5043L12 7.23457V6.09375C12.0008 6.01076 11.9781 5.92905 11.9341 5.85699C11.8902 5.78493 11.8267 5.72509 11.75 5.68359L8.5 3.94688V2.8125H9.5C9.63261 2.8125 9.75979 2.76311 9.85355 2.67521C9.94732 2.5873 10 2.46807 10 2.34375C10 2.21943 9.94732 2.1002 9.85355 2.01229C9.75979 1.92439 9.63261 1.875 9.5 1.875H8.5V0.9375C8.5 0.81318 8.44732 0.693951 8.35355 0.606044C8.25979 0.518136 8.13261 0.46875 8 0.46875C7.86739 0.46875 7.74022 0.518136 7.64645 0.606044C7.55268 0.693951 7.5 0.81318 7.5 0.9375V1.875H6.5C6.36739 1.875 6.24022 1.92439 6.14645 2.01229C6.05268 2.1002 6 2.21943 6 2.34375C6 2.46807 6.05268 2.5873 6.14645 2.67521C6.24022 2.76311 6.36739 2.8125 6.5 2.8125H7.5V3.94688L4.25 5.68652C4.17333 5.72802 4.10978 5.78786 4.06586 5.85992C4.02193 5.93198 3.99921 6.01369 4 6.09668V7.2375L1.7425 8.5043C1.66851 8.54597 1.60729 8.6049 1.56479 8.67533C1.52229 8.74577 1.49997 8.82533 1.5 8.90625V12.6562C1.5 12.7806 1.55268 12.8998 1.64645 12.9877C1.74021 13.0756 1.86739 13.125 2 13.125H7C7.13261 13.125 7.25979 13.0756 7.35355 12.9877C7.44732 12.8998 7.5 12.7806 7.5 12.6562V9.84375C7.5 9.71943 7.55268 9.6002 7.64645 9.51229C7.74022 9.42439 7.86739 9.375 8 9.375C8.13261 9.375 8.25979 9.42439 8.35355 9.51229C8.44732 9.6002 8.5 9.71943 8.5 9.84375V12.6562C8.5 12.7806 8.55268 12.8998 8.64645 12.9877C8.74022 13.0756 8.86739 13.125 9 13.125H14C14.1326 13.125 14.2598 13.0756 14.3536 12.9877C14.4473 12.8998 14.5 12.7806 14.5 12.6562V8.90625C14.5 8.82533 14.4777 8.74577 14.4352 8.67533C14.3927 8.6049 14.3315 8.54597 14.2575 8.5043ZM2.5 9.17168L4 8.32793V12.1875H2.5V9.17168ZM8 8.4375C7.60218 8.4375 7.22064 8.58566 6.93934 8.84938C6.65804 9.1131 6.5 9.47079 6.5 9.84375V12.1875H5V6.36562L8 4.7584L11 6.36562V12.1875H9.5V9.84375C9.5 9.47079 9.34197 9.1131 9.06066 8.84938C8.77936 8.58566 8.39783 8.4375 8 8.4375ZM13.5 12.1875H12V8.32793L13.5 9.17168V12.1875Z" fill="#081023"/>
</g>
</svg>
