<svg width="15" height="15" viewBox="0 0 15 15" fill="none" xmlns="http://www.w3.org/2000/svg">
<g id="Storefront">
<path id="Vector" opacity="0.2" d="M13.125 5.625V6.5625C13.125 7.05978 12.9275 7.53669 12.5758 7.88832C12.2242 8.23996 11.7473 8.4375 11.25 8.4375C10.7527 8.4375 10.2758 8.23996 9.92418 7.88832C9.57255 7.53669 9.375 7.05978 9.375 6.5625V5.625H5.625V6.5625C5.625 7.05978 5.42746 7.53669 5.07583 7.88832C4.72419 8.23996 4.24728 8.4375 3.75 8.4375C3.25272 8.4375 2.77581 8.23996 2.42417 7.88832C2.07254 7.53669 1.875 7.05978 1.875 6.5625V5.625L2.71523 2.68359C2.74315 2.58598 2.80201 2.50007 2.88295 2.43879C2.96389 2.3775 3.06254 2.34415 3.16406 2.34375H11.8359C11.9378 2.34377 12.0368 2.37695 12.1181 2.43826C12.1994 2.49958 12.2585 2.58569 12.2865 2.68359L13.125 5.625Z" fill="#081023"/>
<path id="Vector_2" d="M13.5938 5.625C13.594 5.58142 13.5881 5.53802 13.5762 5.49609L12.7354 2.55469C12.6788 2.35952 12.5607 2.18787 12.3986 2.06537C12.2365 1.94287 12.0391 1.87609 11.8359 1.875H3.16406C2.96088 1.87609 2.7635 1.94287 2.6014 2.06537C2.43929 2.18787 2.32116 2.35952 2.26465 2.55469L1.42441 5.49609C1.41231 5.53799 1.40619 5.58139 1.40625 5.625V6.5625C1.40625 6.92636 1.49097 7.28521 1.65369 7.61066C1.81641 7.9361 2.05267 8.21919 2.34375 8.4375V12.1875C2.34375 12.4361 2.44252 12.6746 2.61834 12.8504C2.79415 13.0262 3.03261 13.125 3.28125 13.125H11.7188C11.9674 13.125 12.2058 13.0262 12.3817 12.8504C12.5575 12.6746 12.6563 12.4361 12.6563 12.1875V8.4375C12.9473 8.21919 13.1836 7.9361 13.3463 7.61066C13.509 7.28521 13.5938 6.92636 13.5938 6.5625V5.625ZM3.16406 2.8125H11.8359L12.5051 5.15625H2.49668L3.16406 2.8125ZM6.09375 6.09375H8.90625V6.5625C8.90625 6.93546 8.75809 7.29315 8.49437 7.55687C8.23065 7.82059 7.87296 7.96875 7.5 7.96875C7.12704 7.96875 6.76935 7.82059 6.50563 7.55687C6.24191 7.29315 6.09375 6.93546 6.09375 6.5625V6.09375ZM5.15625 6.09375V6.5625C5.15625 6.93546 5.00809 7.29315 4.74437 7.55687C4.48065 7.82059 4.12296 7.96875 3.75 7.96875C3.37704 7.96875 3.01935 7.82059 2.75563 7.55687C2.49191 7.29315 2.34375 6.93546 2.34375 6.5625V6.09375H5.15625ZM11.7188 12.1875H3.28125V8.85938C3.43556 8.89048 3.59258 8.90618 3.75 8.90625C4.11386 8.90625 4.47271 8.82154 4.79816 8.65881C5.1236 8.49609 5.40669 8.25983 5.625 7.96875C5.84331 8.25983 6.1264 8.49609 6.45184 8.65881C6.77729 8.82154 7.13615 8.90625 7.5 8.90625C7.86386 8.90625 8.22272 8.82154 8.54816 8.65881C8.8736 8.49609 9.15669 8.25983 9.375 7.96875C9.59331 8.25983 9.8764 8.49609 10.2018 8.65881C10.5273 8.82154 10.8861 8.90625 11.25 8.90625C11.4074 8.90618 11.5644 8.89048 11.7188 8.85938V12.1875ZM11.25 7.96875C10.877 7.96875 10.5194 7.82059 10.2556 7.55687C9.99191 7.29315 9.84375 6.93546 9.84375 6.5625V6.09375H12.6563V6.5625C12.6563 6.93546 12.5081 7.29315 12.2444 7.55687C11.9806 7.82059 11.623 7.96875 11.25 7.96875Z" fill="#081023"/>
</g>
</svg>
