<svg width="28" height="28" viewBox="0 0 28 28" fill="none" xmlns="http://www.w3.org/2000/svg">
<path opacity="0.2" d="M24.2729 14C24.2729 16.0479 23.6656 18.0499 22.5278 19.7527C21.3901 21.4555 19.7729 22.7827 17.8808 23.5664C15.9888 24.3501 13.9068 24.5551 11.8982 24.1556C9.88964 23.7561 8.04463 22.7699 6.59652 21.3218C5.1484 19.8737 4.16222 18.0287 3.76269 16.0201C3.36315 14.0115 3.56821 11.9295 4.35192 10.0374C5.13564 8.14539 6.46281 6.52823 8.16562 5.39045C9.86842 4.25267 11.8704 3.64539 13.9183 3.64539C16.6645 3.64539 19.2983 4.73631 21.2401 6.67818C23.182 8.62004 24.2729 11.2538 24.2729 14Z" fill="#207CFD"/>
<path d="M17.9804 11.159L15.1383 14L17.9804 16.841C18.0606 16.9212 18.1242 17.0164 18.1676 17.1211C18.211 17.2259 18.2333 17.3381 18.2333 17.4515C18.2333 17.5649 18.211 17.6772 18.1676 17.7819C18.1242 17.8867 18.0606 17.9818 17.9804 18.062C17.9003 18.1422 17.8051 18.2058 17.7003 18.2492C17.5956 18.2926 17.4833 18.3149 17.3699 18.3149C17.2566 18.3149 17.1443 18.2926 17.0395 18.2492C16.9348 18.2058 16.8396 18.1422 16.7594 18.062L13.9184 15.2199L11.0774 18.062C10.9972 18.1422 10.902 18.2058 10.7973 18.2492C10.6925 18.2926 10.5803 18.3149 10.4669 18.3149C10.3535 18.3149 10.2412 18.2926 10.1365 18.2492C10.0317 18.2058 9.93656 18.1422 9.85639 18.062C9.77622 17.9818 9.71262 17.8867 9.66923 17.7819C9.62585 17.6772 9.60351 17.5649 9.60351 17.4515C9.60351 17.3381 9.62585 17.2259 9.66923 17.1211C9.71262 17.0164 9.77622 16.9212 9.85639 16.841L12.6985 14L9.85639 11.159C9.69448 10.997 9.60351 10.7774 9.60351 10.5485C9.60351 10.3195 9.69448 10.0999 9.85639 9.93797C10.0183 9.77606 10.2379 9.6851 10.4669 9.6851C10.6959 9.6851 10.9155 9.77606 11.0774 9.93797L13.9184 12.7801L16.7594 9.93797C16.8396 9.8578 16.9348 9.79421 17.0395 9.75082C17.1443 9.70743 17.2566 9.6851 17.3699 9.6851C17.4833 9.6851 17.5956 9.70743 17.7003 9.75082C17.8051 9.79421 17.9003 9.8578 17.9804 9.93797C18.0606 10.0181 18.1242 10.1133 18.1676 10.2181C18.211 10.3228 18.2333 10.4351 18.2333 10.5485C18.2333 10.6618 18.211 10.7741 18.1676 10.8789C18.1242 10.9836 18.0606 11.0788 17.9804 11.159ZM25.1359 14C25.1359 16.2186 24.478 18.3874 23.2454 20.2321C22.0128 22.0768 20.2609 23.5146 18.2111 24.3636C16.1614 25.2126 13.906 25.4348 11.73 25.0019C9.55401 24.5691 7.55525 23.5007 5.98645 21.9319C4.41766 20.3632 3.3493 18.3644 2.91647 16.1884C2.48364 14.0124 2.70579 11.757 3.55481 9.70725C4.40384 7.65752 5.84161 5.90559 7.68631 4.673C9.53102 3.44041 11.6998 2.78252 13.9184 2.78252C16.8925 2.78566 19.7439 3.9685 21.8469 6.07151C23.9499 8.17451 25.1327 11.0259 25.1359 14ZM23.4101 14C23.4101 12.1227 22.8534 10.2876 21.8105 8.72668C20.7675 7.16578 19.2851 5.9492 17.5507 5.2308C15.8163 4.51239 13.9079 4.32442 12.0667 4.69066C10.2255 5.0569 8.53419 5.9609 7.20676 7.28834C5.87932 8.61578 4.97532 10.307 4.60908 12.1483C4.24284 13.9895 4.43081 15.8979 5.14921 17.6323C5.86762 19.3667 7.08419 20.8491 8.6451 21.8921C10.206 22.935 12.0411 23.4917 13.9184 23.4917C16.4349 23.4888 18.8475 22.4879 20.6269 20.7085C22.4063 18.9291 23.4073 16.5165 23.4101 14Z" fill="#081023"/>
</svg>
