<svg width="15" height="15" viewBox="0 0 15 15" fill="none" xmlns="http://www.w3.org/2000/svg">
<g id="TShirt">
<path id="Vector" opacity="0.2" d="M14.4791 4.61543L13.35 6.77227C13.3072 6.85129 13.2436 6.91716 13.1662 6.96279C13.0888 7.00842 13.0004 7.03209 12.9105 7.03125H11.25V2.34375L14.284 3.99902C14.3915 4.05498 14.4724 4.15131 14.509 4.26687C14.5456 4.38244 14.5348 4.50779 14.4791 4.61543ZM0.520872 4.61543L1.64997 6.77227C1.69278 6.85129 1.7563 6.91716 1.83373 6.96279C1.91116 7.00842 1.99956 7.03209 2.08943 7.03125H3.74997V2.34375L0.715989 3.99902C0.608459 4.05498 0.527521 4.15131 0.490941 4.26687C0.45436 4.38244 0.465124 4.50779 0.520872 4.61543Z" fill="#081023"/>
<path id="Vector_2" d="M14.5073 3.58711L11.4745 1.93359C11.4058 1.89557 11.3286 1.87542 11.2501 1.875H9.37505C9.25073 1.875 9.1315 1.92439 9.0436 2.01229C8.95569 2.1002 8.9063 2.21943 8.9063 2.34375C8.9063 2.71671 8.75814 3.0744 8.49442 3.33812C8.2307 3.60184 7.87301 3.75 7.50005 3.75C7.12709 3.75 6.76941 3.60184 6.50568 3.33812C6.24196 3.0744 6.0938 2.71671 6.0938 2.34375C6.0938 2.21943 6.04442 2.1002 5.95651 2.01229C5.8686 1.92439 5.74937 1.875 5.62505 1.875H3.75005C3.67132 1.87533 3.59394 1.89548 3.52505 1.93359L0.492826 3.58711C0.276675 3.70134 0.114642 3.89662 0.0422581 4.13014C-0.0301259 4.36366 -0.00695379 4.61635 0.106694 4.83281L1.2358 6.98965C1.31789 7.14472 1.44095 7.27429 1.59158 7.36428C1.74221 7.45426 1.91464 7.50121 2.09009 7.5H3.2813V12.1875C3.2813 12.4361 3.38007 12.6746 3.55589 12.8504C3.73171 13.0262 3.97016 13.125 4.2188 13.125H10.7813C11.0299 13.125 11.2684 13.0262 11.4442 12.8504C11.62 12.6746 11.7188 12.4361 11.7188 12.1875V7.5H12.9106C13.0861 7.50121 13.2585 7.45426 13.4091 7.36428C13.5597 7.27429 13.6828 7.14472 13.7649 6.98965L14.894 4.83281C15.0076 4.61628 15.0307 4.36353 14.9582 4.13001C14.8857 3.89648 14.7235 3.70124 14.5073 3.58711ZM2.09009 6.5625C2.08143 6.56291 2.07291 6.56021 2.06607 6.55488L0.942826 4.40977L3.2813 3.13359V6.5625H2.09009ZM10.7813 12.1875H4.2188V2.8125H5.20318C5.31133 3.34169 5.59893 3.81729 6.01736 4.15885C6.43578 4.50042 6.95934 4.68697 7.49947 4.68697C8.0396 4.68697 8.56315 4.50042 8.98158 4.15885C9.4 3.81729 9.68761 3.34169 9.79576 2.8125H10.7813V12.1875ZM12.9346 6.5543C12.9314 6.55722 12.9276 6.55945 12.9235 6.56086C12.9193 6.56227 12.915 6.56283 12.9106 6.5625H11.7188V3.13359L14.0579 4.40977L12.9346 6.5543Z" fill="#081023"/>
</g>
</svg>
