<svg width="15" height="15" viewBox="0 0 15 15" fill="none" xmlns="http://www.w3.org/2000/svg">
<g id="Martini">
<path id="Vector" opacity="0.2" d="M11.7188 4.21875L7.5 8.4375L3.28125 4.21875H11.7188Z" fill="#081023"/>
<path id="Vector_2" d="M13.9254 2.67539C13.991 2.60983 14.0357 2.52628 14.0538 2.4353C14.072 2.34432 14.0627 2.25002 14.0272 2.16432C13.9917 2.07862 13.9315 2.00538 13.8544 1.95388C13.7772 1.90238 13.6865 1.87493 13.5938 1.875H1.40625C1.31349 1.87493 1.22279 1.90238 1.14564 1.95388C1.06848 2.00538 1.00835 2.07862 0.972836 2.16432C0.937327 2.25002 0.928044 2.34432 0.946161 2.4353C0.964278 2.52628 1.00898 2.60983 1.07461 2.67539L7.03125 8.63144V12.1875H5.15625C5.03193 12.1875 4.9127 12.2369 4.8248 12.3248C4.73689 12.4127 4.6875 12.5319 4.6875 12.6562C4.6875 12.7806 4.73689 12.8998 4.8248 12.9877C4.9127 13.0756 5.03193 13.125 5.15625 13.125H9.84375C9.96807 13.125 10.0873 13.0756 10.1752 12.9877C10.2631 12.8998 10.3125 12.7806 10.3125 12.6562C10.3125 12.5319 10.2631 12.4127 10.1752 12.3248C10.0873 12.2369 9.96807 12.1875 9.84375 12.1875H7.96875V8.63144L13.9254 2.67539ZM4.4127 4.6875H10.5873L7.5 7.77481L4.4127 4.6875ZM12.4623 2.8125L11.5248 3.75H3.4752L2.5377 2.8125H12.4623Z" fill="#081023"/>
</g>
</svg>
