<svg width="15" height="15" viewBox="0 0 15 15" fill="none" xmlns="http://www.w3.org/2000/svg">
<g id="Cookie">
<path id="Vector" opacity="0.2" d="M13.125 7.5C13.125 8.61252 12.7951 9.70006 12.177 10.6251C11.5589 11.5501 10.6804 12.2711 9.6526 12.6968C8.62476 13.1226 7.49376 13.234 6.40262 13.0169C5.31148 12.7999 4.3092 12.2641 3.52253 11.4775C2.73586 10.6908 2.20013 9.68853 1.98309 8.59738C1.76604 7.50624 1.87744 6.37524 2.30318 5.34741C2.72892 4.31957 3.44989 3.44107 4.37492 2.82298C5.29995 2.2049 6.38748 1.875 7.5 1.875C7.5 2.62092 7.79632 3.33629 8.32376 3.86374C8.85121 4.39118 9.56658 4.6875 10.3125 4.6875C10.3125 5.43342 10.6088 6.14879 11.1363 6.67624C11.6637 7.20368 12.3791 7.5 13.125 7.5Z" fill="#081023"/>
<path id="Vector_2" d="M9.63809 9.58066C9.73618 9.67909 9.8029 9.80438 9.82983 9.94071C9.85677 10.077 9.8427 10.2183 9.78941 10.3466C9.73612 10.475 9.646 10.5846 9.53042 10.6618C9.41485 10.7389 9.279 10.7801 9.14004 10.7801C9.00108 10.7801 8.86523 10.7389 8.74966 10.6618C8.63408 10.5846 8.54396 10.475 8.49067 10.3466C8.43738 10.2183 8.42332 10.077 8.45025 9.94071C8.47718 9.80438 8.54391 9.67909 8.64199 9.58066C8.70732 9.51511 8.78494 9.4631 8.8704 9.42762C8.95587 9.39213 9.0475 9.37386 9.14004 9.37386C9.23258 9.37386 9.32421 9.39213 9.40968 9.42762C9.49515 9.4631 9.57277 9.51511 9.63809 9.58066ZM4.89199 9.11191C4.79391 9.21034 4.72718 9.33563 4.70025 9.47196C4.67332 9.60829 4.68738 9.74954 4.74067 9.87787C4.79396 10.0062 4.88408 10.1159 4.99966 10.193C5.11524 10.2702 5.25108 10.3114 5.39004 10.3114C5.529 10.3114 5.66485 10.2702 5.78042 10.193C5.896 10.1159 5.98612 10.0062 6.03941 9.87787C6.0927 9.74954 6.10677 9.60829 6.07983 9.47196C6.0529 9.33563 5.98618 9.21034 5.88809 9.11191C5.82279 9.04654 5.74524 8.99468 5.65988 8.95929C5.57452 8.92391 5.48303 8.9057 5.39063 8.9057C5.29823 8.9057 5.20673 8.92391 5.12137 8.95929C5.03601 8.99468 4.95847 9.04654 4.89317 9.11191H4.89199ZM5.41934 6.82676C5.51743 6.72833 5.58415 6.60304 5.61108 6.46671C5.63802 6.33039 5.62395 6.18914 5.57066 6.0608C5.51737 5.93246 5.42725 5.82279 5.31167 5.74564C5.1961 5.66849 5.06025 5.62731 4.92129 5.62731C4.78233 5.62731 4.64649 5.66849 4.53091 5.74564C4.41533 5.82279 4.32521 5.93246 4.27192 6.0608C4.21863 6.18914 4.20457 6.33039 4.2315 6.46671C4.25843 6.60304 4.32516 6.72833 4.42324 6.82676C4.48864 6.89223 4.56633 6.94415 4.65183 6.97954C4.73734 7.01493 4.82899 7.03308 4.92154 7.03298C5.01408 7.03287 5.10569 7.01449 5.19111 6.9789C5.27653 6.94331 5.35409 6.89121 5.41934 6.82559V6.82676ZM8.23184 6.76816C8.13341 6.67007 8.00812 6.60335 7.87179 6.57642C7.73547 6.54949 7.59422 6.56355 7.46588 6.61684C7.33754 6.67013 7.22787 6.76025 7.15072 6.87583C7.07357 6.9914 7.03239 7.12725 7.03239 7.26621C7.03239 7.40517 7.07357 7.54102 7.15072 7.65659C7.22787 7.77217 7.33754 7.86229 7.46588 7.91558C7.59422 7.96887 7.73547 7.98294 7.87179 7.956C8.00812 7.92907 8.13341 7.86235 8.23184 7.76426C8.29739 7.69893 8.3494 7.62131 8.38489 7.53585C8.42037 7.45038 8.43864 7.35875 8.43864 7.26621C8.43864 7.17367 8.42037 7.08204 8.38489 6.99657C8.3494 6.91111 8.29739 6.83349 8.23184 6.76816ZM13.5938 7.5C13.5938 8.70523 13.2364 9.88339 12.5668 10.8855C11.8972 11.8876 10.9455 12.6687 9.83198 13.1299C8.71849 13.5911 7.49324 13.7118 6.31117 13.4767C5.1291 13.2415 4.0433 12.6612 3.19107 11.8089C2.33884 10.9567 1.75847 9.8709 1.52334 8.68883C1.28821 7.50676 1.40889 6.28151 1.87011 5.16802C2.33133 4.05454 3.11238 3.10282 4.1145 2.43323C5.11661 1.76364 6.29477 1.40625 7.5 1.40625C7.62432 1.40625 7.74355 1.45564 7.83146 1.54354C7.91937 1.63145 7.96875 1.75068 7.96875 1.875C7.96875 2.4966 8.21568 3.09274 8.65522 3.53228C9.09476 3.97182 9.6909 4.21875 10.3125 4.21875C10.4368 4.21875 10.5561 4.26814 10.644 4.35604C10.7319 4.44395 10.7813 4.56318 10.7813 4.6875C10.7813 5.3091 11.0282 5.90524 11.4677 6.34478C11.9073 6.78432 12.5034 7.03125 13.125 7.03125C13.2493 7.03125 13.3686 7.08064 13.4565 7.16854C13.5444 7.25645 13.5938 7.37568 13.5938 7.5ZM12.6381 7.93301C11.936 7.82646 11.2873 7.49556 10.789 6.98977C10.2906 6.48399 9.96925 5.83049 9.87305 5.12695C9.16952 5.03075 8.51601 4.70944 8.01023 4.21105C7.50444 3.71266 7.17354 3.06395 7.06699 2.36191C6.08755 2.44447 5.15212 2.80525 4.37089 3.40174C3.58967 3.99824 2.99522 4.8056 2.65758 5.7287C2.31993 6.6518 2.25317 7.65218 2.46514 8.61196C2.67712 9.57174 3.15901 10.4509 3.85404 11.146C4.54906 11.841 5.42826 12.3229 6.38804 12.5349C7.34782 12.7468 8.3482 12.6801 9.2713 12.3424C10.1944 12.0048 11.0018 11.4103 11.5983 10.6291C12.1948 9.84789 12.5555 8.91245 12.6381 7.93301Z" fill="#081023"/>
</g>
</svg>
