<svg width="24" height="24" viewBox="0 0 24 24" fill="none" xmlns="http://www.w3.org/2000/svg">
<path d="M3.96932 8.46936C4.03898 8.39963 4.1217 8.34431 4.21274 8.30657C4.30379 8.26883 4.40139 8.2494 4.49995 8.2494C4.59851 8.2494 4.69611 8.26883 4.78715 8.30657C4.8782 8.34431 4.96092 8.39963 5.03057 8.46936L11.9999 15.4397L18.9693 8.46937C19.1101 8.32863 19.3009 8.24957 19.4999 8.24957C19.699 8.24957 19.8898 8.32863 20.0306 8.46937C20.1713 8.6101 20.2504 8.80097 20.2504 8.99999C20.2504 9.19901 20.1713 9.38989 20.0306 9.53062L12.5306 17.0306C12.4609 17.1003 12.3782 17.1557 12.2872 17.1934C12.1961 17.2312 12.0985 17.2506 11.9999 17.2506C11.9014 17.2506 11.8038 17.2312 11.7127 17.1934C11.6217 17.1557 11.539 17.1003 11.4693 17.0306L3.96932 9.53061C3.89959 9.46096 3.84427 9.37824 3.80653 9.28719C3.76878 9.19615 3.74936 9.09855 3.74936 8.99999C3.74936 8.90143 3.76878 8.80383 3.80653 8.71278C3.84427 8.62174 3.89959 8.53902 3.96932 8.46936Z" fill="black"/>
</svg>
