<svg width="19" height="20" viewBox="0 0 19 20" fill="none" xmlns="http://www.w3.org/2000/svg">
<path opacity="0.2" d="M16.4281 7.32513L14.3214 9.43188L10.3437 5.4542L12.4504 3.34745C12.557 3.24097 12.7015 3.18115 12.8521 3.18115C13.0028 3.18115 13.1472 3.24097 13.2538 3.34745L16.4281 6.51965C16.4812 6.57245 16.5233 6.63521 16.552 6.70433C16.5807 6.77344 16.5955 6.84755 16.5955 6.92239C16.5955 6.99724 16.5807 7.07135 16.552 7.14046C16.5233 7.20957 16.4812 7.27233 16.4281 7.32513Z" fill="#207CFD"/>
<path d="M16.8302 6.11986L13.6559 2.94624C13.5503 2.84068 13.425 2.75695 13.2871 2.69982C13.1492 2.64269 13.0014 2.61328 12.8522 2.61328C12.7029 2.61328 12.5551 2.64269 12.4172 2.69982C12.2793 2.75695 12.154 2.84068 12.0484 2.94624L3.28974 11.7049C3.18375 11.8101 3.09972 11.9353 3.04253 12.0732C2.98534 12.2111 2.95613 12.359 2.95661 12.5083V15.6826C2.95661 15.984 3.07635 16.2731 3.28948 16.4862C3.50261 16.6994 3.79168 16.8191 4.09309 16.8191H16.0261C16.1768 16.8191 16.3214 16.7592 16.4279 16.6527C16.5345 16.5461 16.5944 16.4016 16.5944 16.2509C16.5944 16.1002 16.5345 15.9556 16.4279 15.8491C16.3214 15.7425 16.1768 15.6826 16.0261 15.6826H8.87483L16.8302 7.72727C16.9357 7.62173 17.0195 7.49644 17.0766 7.35854C17.1337 7.22063 17.1631 7.07283 17.1631 6.92356C17.1631 6.7743 17.1337 6.62649 17.0766 6.48859C17.0195 6.35069 16.9357 6.2254 16.8302 6.11986ZM4.09309 12.5083L10.3437 6.25766L13.5181 9.43199L7.26742 15.6826H4.09309V12.5083ZM14.3214 8.62864L11.1478 5.45431L12.8525 3.74959L16.0261 6.92392L14.3214 8.62864Z" fill="#081023"/>
</svg>
