<svg width="15" height="16" viewBox="0 0 15 16" fill="none" xmlns="http://www.w3.org/2000/svg">
<path opacity="0.2" d="M13.125 3.78125L7.5 8.9375L1.875 3.78125H13.125Z" fill="#207CFD"/>
<path d="M13.125 3.3125H1.875C1.75068 3.3125 1.63145 3.36189 1.54354 3.44979C1.45564 3.5377 1.40625 3.65693 1.40625 3.78125V11.75C1.40625 11.9986 1.50502 12.2371 1.68084 12.4129C1.85665 12.5887 2.09511 12.6875 2.34375 12.6875H12.6562C12.9049 12.6875 13.1433 12.5887 13.3192 12.4129C13.495 12.2371 13.5938 11.9986 13.5938 11.75V3.78125C13.5938 3.65693 13.5444 3.5377 13.4565 3.44979C13.3685 3.36189 13.2493 3.3125 13.125 3.3125ZM11.9197 4.25L7.5 8.30176L3.08027 4.25H11.9197ZM12.6562 11.75H2.34375V4.84707L7.18301 9.2832C7.26949 9.36259 7.38261 9.40664 7.5 9.40664C7.61739 9.40664 7.73051 9.36259 7.81699 9.2832L12.6562 4.84707V11.75Z" fill="#081023"/>
</svg>
