<svg width="15" height="16" viewBox="0 0 15 16" fill="none" xmlns="http://www.w3.org/2000/svg">
<path opacity="0.2" d="M13.125 6.59375C12.14 7.81309 10.3342 9.40625 7.5 9.40625C4.66582 9.40625 2.85996 7.81309 1.875 6.59375C2.85996 5.37441 4.66582 3.78125 7.5 3.78125C10.3342 3.78125 12.14 5.37441 13.125 6.59375Z" fill="#207CFD"/>
<path d="M13.3594 10.7539C13.3059 10.7844 13.2468 10.8041 13.1857 10.8118C13.1245 10.8195 13.0625 10.815 13.003 10.7987C12.9436 10.7824 12.888 10.7545 12.8393 10.7166C12.7907 10.6788 12.75 10.6317 12.7196 10.5781L11.6063 8.63279C10.959 9.07042 10.2451 9.40009 9.49222 9.60896L9.83616 11.6726C9.84631 11.7334 9.84439 11.7955 9.8305 11.8556C9.81661 11.9156 9.79104 11.9722 9.75523 12.0224C9.71942 12.0725 9.67409 12.115 9.62182 12.1476C9.56956 12.1802 9.51138 12.2022 9.45062 12.2123C9.42562 12.2164 9.40035 12.2185 9.37503 12.2187C9.26414 12.2186 9.1569 12.1791 9.07236 12.1073C8.98782 12.0355 8.93147 11.9361 8.91331 11.8267L8.57523 9.80057C7.86226 9.89978 7.13898 9.89978 6.42601 9.80057L6.08792 11.8267C6.06973 11.9363 6.01321 12.0359 5.92843 12.1077C5.84365 12.1795 5.73612 12.2188 5.62503 12.2187C5.59912 12.2186 5.57326 12.2165 5.54769 12.2123C5.48693 12.2022 5.42875 12.1802 5.37648 12.1476C5.32421 12.115 5.27888 12.0725 5.24307 12.0224C5.20727 11.9722 5.18169 11.9156 5.1678 11.8556C5.15392 11.7955 5.15199 11.7334 5.16214 11.6726L5.50784 9.60896C4.75528 9.39943 4.04171 9.06916 3.39495 8.63103L2.28519 10.5781C2.22303 10.6864 2.12039 10.7656 1.99984 10.7982C1.8793 10.8309 1.75073 10.8143 1.64241 10.7521C1.5341 10.69 1.45492 10.5873 1.42228 10.4668C1.38964 10.3462 1.40623 10.2177 1.46839 10.1094L2.64027 8.05857C2.22864 7.70296 1.85014 7.31072 1.50941 6.8867C1.46691 6.83925 1.43453 6.78365 1.41425 6.72327C1.39396 6.6629 1.38619 6.59902 1.39141 6.53555C1.39663 6.47207 1.41473 6.41032 1.44461 6.35407C1.47448 6.29783 1.51551 6.24826 1.56518 6.20839C1.61486 6.16852 1.67213 6.1392 1.73351 6.12221C1.7949 6.10521 1.8591 6.10091 1.9222 6.10955C1.9853 6.1182 2.04598 6.13961 2.10053 6.17248C2.15508 6.20536 2.20236 6.24901 2.23948 6.30076C3.21214 7.50428 4.9137 8.93748 7.50003 8.93748C10.0864 8.93748 11.7879 7.50252 12.7606 6.30076C12.7973 6.24795 12.8444 6.20325 12.8992 6.16945C12.9539 6.13565 13.015 6.11347 13.0786 6.10429C13.1423 6.09511 13.2071 6.09912 13.2692 6.11609C13.3312 6.13305 13.3891 6.1626 13.4392 6.20289C13.4893 6.24319 13.5306 6.29336 13.5605 6.3503C13.5904 6.40724 13.6083 6.46973 13.613 6.53387C13.6177 6.59801 13.6092 6.66243 13.5879 6.72313C13.5667 6.78383 13.5332 6.83951 13.4895 6.8867C13.1488 7.31072 12.7702 7.70296 12.3586 8.05857L13.5305 10.1094C13.562 10.1628 13.5825 10.222 13.5909 10.2834C13.5993 10.3449 13.5955 10.4074 13.5796 10.4674C13.5637 10.5273 13.536 10.5835 13.4982 10.6327C13.4604 10.6819 13.4132 10.7231 13.3594 10.7539Z" fill="#081023"/>
</svg>
