<svg width="15" height="16" viewBox="0 0 15 16" fill="none" xmlns="http://www.w3.org/2000/svg">
<path opacity="0.2" d="M7.5 3.78125C2.8125 3.78125 0.9375 8 0.9375 8C0.9375 8 2.8125 12.2188 7.5 12.2188C12.1875 12.2188 14.0625 8 14.0625 8C14.0625 8 12.1875 3.78125 7.5 3.78125ZM7.5 10.3438C7.03645 10.3438 6.58331 10.2063 6.19788 9.94876C5.81245 9.69122 5.51205 9.32518 5.33466 8.89692C5.15726 8.46865 5.11085 7.9974 5.20128 7.54276C5.29172 7.08811 5.51494 6.6705 5.84272 6.34272C6.1705 6.01494 6.58811 5.79172 7.04276 5.70128C7.4974 5.61085 7.96865 5.65726 8.39691 5.83466C8.82518 6.01205 9.19122 6.31245 9.44876 6.69788C9.70629 7.08331 9.84375 7.53645 9.84375 8C9.84375 8.6216 9.59682 9.21774 9.15728 9.65728C8.71774 10.0968 8.1216 10.3438 7.5 10.3438Z" fill="#207CFD"/>
<path d="M14.4908 7.81016C14.4703 7.76387 13.974 6.66289 12.8707 5.55957C11.4006 4.08945 9.54375 3.3125 7.49999 3.3125C5.45624 3.3125 3.59941 4.08945 2.12929 5.55957C1.02597 6.66289 0.527338 7.76562 0.509174 7.81016C0.482522 7.8701 0.46875 7.93498 0.46875 8.00059C0.46875 8.06619 0.482522 8.13107 0.509174 8.19101C0.529682 8.2373 1.02597 9.33769 2.12929 10.441C3.59941 11.9105 5.45624 12.6875 7.49999 12.6875C9.54375 12.6875 11.4006 11.9105 12.8707 10.441C13.974 9.33769 14.4703 8.2373 14.4908 8.19101C14.5175 8.13107 14.5312 8.06619 14.5312 8.00059C14.5312 7.93498 14.5175 7.8701 14.4908 7.81016ZM7.49999 11.75C5.69648 11.75 4.12089 11.0943 2.8166 9.80176C2.28143 9.26955 1.82612 8.66267 1.46484 8C1.82602 7.33727 2.28134 6.73038 2.8166 6.19824C4.12089 4.90566 5.69648 4.25 7.49999 4.25C9.30351 4.25 10.8791 4.90566 12.1834 6.19824C12.7196 6.73025 13.1759 7.33714 13.5381 8C13.1156 8.78867 11.2752 11.75 7.49999 11.75ZM7.49999 5.1875C6.94373 5.1875 6.39997 5.35245 5.93745 5.66149C5.47494 5.97053 5.11445 6.40979 4.90158 6.9237C4.68871 7.43762 4.63301 8.00312 4.74154 8.54869C4.85006 9.09426 5.11792 9.5954 5.51126 9.98874C5.90459 10.3821 6.40573 10.6499 6.9513 10.7585C7.49687 10.867 8.06237 10.8113 8.57629 10.5984C9.09021 10.3855 9.52946 10.0251 9.8385 9.56254C10.1475 9.10003 10.3125 8.55626 10.3125 8C10.3117 7.25432 10.0152 6.5394 9.48788 6.01212C8.9606 5.48484 8.24568 5.18828 7.49999 5.1875ZM7.49999 9.875C7.12915 9.875 6.76664 9.76503 6.4583 9.559C6.14996 9.35298 5.90963 9.06014 5.76772 8.71753C5.62581 8.37492 5.58867 7.99792 5.66102 7.63421C5.73337 7.27049 5.91195 6.9364 6.17417 6.67417C6.43639 6.41195 6.77049 6.23337 7.1342 6.16103C7.49791 6.08868 7.87491 6.12581 8.21753 6.26773C8.56014 6.40964 8.85297 6.64996 9.059 6.95831C9.26503 7.26665 9.37499 7.62916 9.37499 8C9.37499 8.49728 9.17745 8.97419 8.82582 9.32582C8.47419 9.67745 7.99728 9.875 7.49999 9.875Z" fill="#081023"/>
</svg>
