<svg width="15" height="15" viewBox="0 0 15 15" fill="none" xmlns="http://www.w3.org/2000/svg">
<g id="Factory">
<path id="Vector" opacity="0.2" d="M12.6562 7.96875V12.6562H2.34375V5.15625L6.09375 7.96875V5.15625L9.84375 7.96875H12.6562Z" fill="#081023"/>
<path id="Vector_2" d="M6.79687 10.3125C6.79687 10.4368 6.74749 10.556 6.65958 10.644C6.57167 10.7319 6.45245 10.7812 6.32812 10.7812H4.6875C4.56318 10.7812 4.44395 10.7319 4.35604 10.644C4.26814 10.556 4.21875 10.4368 4.21875 10.3125C4.21875 10.1882 4.26814 10.069 4.35604 9.98104C4.44395 9.89314 4.56318 9.84375 4.6875 9.84375H6.32812C6.45245 9.84375 6.57167 9.89314 6.65958 9.98104C6.74749 10.069 6.79687 10.1882 6.79687 10.3125ZM10.3125 9.84375H8.67187C8.54755 9.84375 8.42833 9.89314 8.34042 9.98104C8.25251 10.069 8.20312 10.1882 8.20312 10.3125C8.20312 10.4368 8.25251 10.556 8.34042 10.644C8.42833 10.7319 8.54755 10.7812 8.67187 10.7812H10.3125C10.4368 10.7812 10.556 10.7319 10.644 10.644C10.7319 10.556 10.7812 10.4368 10.7812 10.3125C10.7812 10.1882 10.7319 10.069 10.644 9.98104C10.556 9.89314 10.4368 9.84375 10.3125 9.84375ZM14.5312 12.6562C14.5312 12.7806 14.4819 12.8998 14.394 12.9877C14.306 13.0756 14.1868 13.125 14.0625 13.125H0.9375C0.81318 13.125 0.693951 13.0756 0.606044 12.9877C0.518136 12.8998 0.46875 12.7806 0.46875 12.6562C0.46875 12.5319 0.518136 12.4127 0.606044 12.3248C0.693951 12.2369 0.81318 12.1875 0.9375 12.1875H1.875V5.15625C1.875 5.0692 1.89924 4.98386 1.94501 4.90981C1.99077 4.83576 2.05626 4.77592 2.13412 4.73699C2.21198 4.69806 2.29915 4.68158 2.38585 4.68939C2.47255 4.69721 2.55536 4.72902 2.625 4.78125L5.625 7.03125V5.15625C5.625 5.0692 5.64924 4.98386 5.69501 4.90981C5.74077 4.83576 5.80626 4.77592 5.88412 4.73699C5.96198 4.69806 6.04915 4.68158 6.13585 4.68939C6.22255 4.69721 6.30536 4.72902 6.375 4.78125L8.64492 6.4834L9.32227 1.74258C9.35507 1.51954 9.46675 1.31566 9.63705 1.16794C9.80734 1.02023 10.025 0.938465 10.2504 0.9375H11.3121C11.5375 0.938465 11.7552 1.02023 11.9255 1.16794C12.0957 1.31566 12.2074 1.51954 12.2402 1.74258L13.1191 7.90254C13.1191 7.90254 13.1238 7.94824 13.1238 7.96875V12.1875H14.0613C14.123 12.1873 14.1841 12.1994 14.2411 12.2228C14.2981 12.2463 14.3499 12.2808 14.3935 12.3244C14.4372 12.3679 14.4718 12.4196 14.4955 12.4766C14.5191 12.5335 14.5312 12.5946 14.5312 12.6562ZM9.50039 7.125L10.0002 7.5H12.116L11.3121 1.875H10.2504L9.50039 7.125ZM2.8125 12.1875H12.1875V8.4375H9.84375C9.74233 8.4375 9.64364 8.4046 9.5625 8.34375L8.71875 7.71094L6.5625 6.09375V7.96875C6.5625 8.0558 6.53826 8.14114 6.49249 8.21519C6.44673 8.28924 6.38124 8.34908 6.30338 8.38801C6.22552 8.42694 6.13835 8.44342 6.05165 8.43561C5.96495 8.42779 5.88214 8.39598 5.8125 8.34375L2.8125 6.09375V12.1875Z" fill="#081023"/>
</g>
</svg>
