<svg width="15" height="15" viewBox="0 0 15 15" fill="none" xmlns="http://www.w3.org/2000/svg">
<g id="ShirtFolded">
<path id="Vector" opacity="0.2" d="M12.1875 3.75V12.6562C12.1875 12.7806 12.1381 12.8998 12.0502 12.9877C11.9623 13.0756 11.8431 13.125 11.7187 13.125H3.28125C3.15693 13.125 3.0377 13.0756 2.94979 12.9877C2.86189 12.8998 2.8125 12.7806 2.8125 12.6562V3.75C2.8125 3.62568 2.86189 3.50645 2.94979 3.41854C3.0377 3.33064 3.15693 3.28125 3.28125 3.28125H4.6875V6.5625C4.68747 6.6516 4.71283 6.73886 4.76061 6.81406C4.80839 6.88927 4.87662 6.94929 4.9573 6.98711C5.03797 7.02493 5.12775 7.03897 5.21612 7.02759C5.30449 7.01621 5.38779 6.97988 5.45625 6.92285L7.5 5.15625L9.54375 6.92168C9.61213 6.97864 9.69532 7.01495 9.78358 7.02638C9.87185 7.0378 9.96154 7.02386 10.0422 6.98619C10.1228 6.94851 10.191 6.88866 10.2389 6.81363C10.2868 6.73861 10.3123 6.6515 10.3125 6.5625V3.28125H11.7187C11.8431 3.28125 11.9623 3.33064 12.0502 3.41854C12.1381 3.50645 12.1875 3.62568 12.1875 3.75ZM5.625 2.34375L7.5 5.15625L9.375 2.34375H5.625Z" fill="#207CFD"/>
<path id="Vector_2" d="M11.7188 2.8125H10.5064L9.70664 2.01211C9.61837 1.92466 9.49926 1.87541 9.375 1.875H5.625H5.59629H5.58281C5.47464 1.88517 5.37336 1.9326 5.29629 2.00918L4.49355 2.8125H3.28125C3.03261 2.8125 2.79415 2.91127 2.61834 3.08709C2.44252 3.2629 2.34375 3.50136 2.34375 3.75V12.6562C2.34375 12.9049 2.44252 13.1433 2.61834 13.3192C2.79415 13.495 3.03261 13.5938 3.28125 13.5938H11.7188C11.9674 13.5938 12.2058 13.495 12.3817 13.3192C12.5575 13.1433 12.6562 12.9049 12.6562 12.6562V3.75C12.6562 3.50136 12.5575 3.2629 12.3817 3.08709C12.2058 2.91127 11.9674 2.8125 11.7188 2.8125ZM9.84375 3.4752V6.5625L8.11934 5.07187L9.44766 3.07969L9.84375 3.4752ZM7.5 4.31133L6.50391 2.8125H8.50195L7.5 4.31133ZM5.55234 3.08086L6.88066 5.07305L5.15625 6.5625V3.4752L5.55234 3.08086ZM3.28125 3.75H4.21875V6.5625C4.21765 6.7409 4.26796 6.91584 4.36366 7.06641C4.45936 7.21697 4.5964 7.33679 4.7584 7.41152C4.88298 7.46965 5.01877 7.49985 5.15625 7.5C5.37495 7.4996 5.58654 7.42223 5.75391 7.28145C5.75632 7.27981 5.75849 7.27784 5.76035 7.27559L7.03125 6.18047V12.6562H3.28125V3.75ZM11.7188 12.6562H7.96875V6.18047L9.2373 7.27617C9.23916 7.27842 9.24133 7.2804 9.24375 7.28203C9.41181 7.42312 9.62431 7.50032 9.84375 7.5C9.98215 7.49964 10.1188 7.46884 10.2439 7.40977C10.4052 7.33481 10.5416 7.21513 10.6369 7.06493C10.7321 6.91473 10.7822 6.74035 10.7812 6.5625V3.75H11.7188V12.6562Z" fill="#081023"/>
</g>
</svg>
