<svg width="15" height="15" viewBox="0 0 15 15" fill="none" xmlns="http://www.w3.org/2000/svg">
<g id="Dress">
<path id="Vector" opacity="0.2" d="M11.7188 13.125H3.28128C3.20373 13.125 3.12741 13.1057 3.05914 13.0689C2.99088 13.0321 2.9328 12.979 2.89013 12.9142C2.84745 12.8495 2.8215 12.7752 2.8146 12.698C2.80771 12.6207 2.82008 12.543 2.85061 12.4717L5.62503 6.56251L4.28557 4.46017C4.24177 4.38726 4.21863 4.30381 4.21863 4.21876C4.21863 4.13371 4.24177 4.05026 4.28557 3.97736L5.62503 2.06427L6.03518 2.57814C6.21083 2.79797 6.4337 2.97545 6.68728 3.09742C6.94086 3.21939 7.21864 3.28273 7.50003 3.28273C7.78141 3.28273 8.05919 3.21939 8.31277 3.09742C8.56635 2.97545 8.78922 2.79797 8.96487 2.57814L9.37503 2.06486L10.7145 3.97794C10.7583 4.05085 10.7814 4.1343 10.7814 4.21935C10.7814 4.3044 10.7583 4.38785 10.7145 4.46075L9.37503 6.56251L12.1489 12.4717C12.1794 12.5429 12.1917 12.6206 12.1849 12.6978C12.178 12.775 12.1521 12.8493 12.1095 12.914C12.0669 12.9787 12.0089 13.0319 11.9407 13.0687C11.8725 13.1055 11.7963 13.1249 11.7188 13.125Z" fill="#081023"/>
<path id="Vector_2" d="M12.58 12.2871C12.5782 12.2821 12.5761 12.2772 12.5736 12.2725L9.90872 6.59707L11.1099 4.71152L11.1163 4.70098C11.2037 4.5553 11.2499 4.38862 11.2499 4.21875C11.2499 4.04888 11.2037 3.8822 11.1163 3.73652C11.1111 3.72715 11.1046 3.71777 11.0988 3.70898L9.84368 1.91602V0.46875C9.84368 0.34443 9.79429 0.225201 9.70639 0.137294C9.61848 0.049386 9.49925 0 9.37493 0C9.25061 0 9.13138 0.049386 9.04347 0.137294C8.95556 0.225201 8.90618 0.34443 8.90618 0.46875V1.89961L8.59798 2.28516C8.46623 2.44982 8.29914 2.58275 8.10906 2.67409C7.91899 2.76544 7.71081 2.81287 7.49993 2.81287C7.28905 2.81287 7.08086 2.76544 6.89079 2.67409C6.70072 2.58275 6.53363 2.44982 6.40188 2.28516L6.09368 1.89961V0.46875C6.09368 0.34443 6.04429 0.225201 5.95638 0.137294C5.86848 0.049386 5.74925 0 5.62493 0C5.50061 0 5.38138 0.049386 5.29347 0.137294C5.20556 0.225201 5.15618 0.34443 5.15618 0.46875V1.91602L3.9011 3.70898C3.89524 3.71777 3.8888 3.72715 3.88352 3.73652C3.79614 3.8822 3.74999 4.04888 3.74999 4.21875C3.74999 4.38862 3.79614 4.5553 3.88352 4.70098L3.88997 4.71152L5.09114 6.59707L2.4263 12.2725C2.4238 12.2772 2.42164 12.2821 2.41985 12.2871C2.35878 12.4297 2.33404 12.5852 2.34783 12.7396C2.36162 12.8941 2.41352 13.0427 2.49888 13.1722C2.58424 13.3017 2.70038 13.408 2.83691 13.4816C2.97344 13.5551 3.12609 13.5937 3.28118 13.5938H11.7187C11.8738 13.5938 12.0265 13.5553 12.1631 13.4818C12.2998 13.4082 12.416 13.302 12.5014 13.1725C12.5868 13.043 12.6388 12.8943 12.6526 12.7398C12.6664 12.5852 12.6417 12.4297 12.5806 12.2871H12.58ZM4.68743 4.21875L5.65012 2.8459L5.66946 2.87051C5.88903 3.14509 6.16756 3.36675 6.48442 3.51909C6.80128 3.67142 7.14835 3.75051 7.49993 3.75051C7.8515 3.75051 8.19858 3.67142 8.51544 3.51909C8.8323 3.36675 9.11083 3.14509 9.3304 2.87051L9.34973 2.8459L10.3124 4.21875L9.11829 6.09375H5.88215L4.68743 4.21875ZM3.28118 12.6562L5.922 7.03125H9.07669L11.7187 12.6562H3.28118Z" fill="#081023"/>
</g>
</svg>
