<svg width="15" height="15" viewBox="0 0 15 15" fill="none" xmlns="http://www.w3.org/2000/svg">
<g id="FirstAid">
<path id="Vector" opacity="0.2" d="M13.125 6.09375V8.90625C13.125 9.03057 13.0756 9.1498 12.9877 9.23771C12.8998 9.32561 12.7806 9.375 12.6563 9.375H9.375V12.6563C9.375 12.7806 9.32561 12.8998 9.23771 12.9877C9.1498 13.0756 9.03057 13.125 8.90625 13.125H6.09375C5.96943 13.125 5.8502 13.0756 5.76229 12.9877C5.67439 12.8998 5.625 12.7806 5.625 12.6563V9.375H2.34375C2.21943 9.375 2.1002 9.32561 2.01229 9.23771C1.92439 9.1498 1.875 9.03057 1.875 8.90625V6.09375C1.875 5.96943 1.92439 5.8502 2.01229 5.76229C2.1002 5.67439 2.21943 5.625 2.34375 5.625H5.625V2.34375C5.625 2.21943 5.67439 2.1002 5.76229 2.01229C5.8502 1.92439 5.96943 1.875 6.09375 1.875H8.90625C9.03057 1.875 9.1498 1.92439 9.23771 2.01229C9.32561 2.1002 9.375 2.21943 9.375 2.34375V5.625H12.6563C12.7806 5.625 12.8998 5.67439 12.9877 5.76229C13.0756 5.8502 13.125 5.96943 13.125 6.09375Z" fill="#207CFD"/>
<path id="Vector_2" d="M12.6562 5.15625H9.84375V2.34375C9.84375 2.09511 9.74498 1.85665 9.56916 1.68084C9.39335 1.50502 9.15489 1.40625 8.90625 1.40625H6.09375C5.84511 1.40625 5.60665 1.50502 5.43084 1.68084C5.25502 1.85665 5.15625 2.09511 5.15625 2.34375V5.15625H2.34375C2.09511 5.15625 1.85665 5.25502 1.68084 5.43084C1.50502 5.60665 1.40625 5.84511 1.40625 6.09375V8.90625C1.40625 9.15489 1.50502 9.39335 1.68084 9.56916C1.85665 9.74498 2.09511 9.84375 2.34375 9.84375H5.15625V12.6562C5.15625 12.9049 5.25502 13.1433 5.43084 13.3192C5.60665 13.495 5.84511 13.5938 6.09375 13.5938H8.90625C9.15489 13.5938 9.39335 13.495 9.56916 13.3192C9.74498 13.1433 9.84375 12.9049 9.84375 12.6562V9.84375H12.6562C12.9049 9.84375 13.1433 9.74498 13.3192 9.56916C13.495 9.39335 13.5938 9.15489 13.5938 8.90625V6.09375C13.5938 5.84511 13.495 5.60665 13.3192 5.43084C13.1433 5.25502 12.9049 5.15625 12.6562 5.15625ZM12.6562 8.90625H9.375C9.25068 8.90625 9.13145 8.95564 9.04354 9.04354C8.95564 9.13145 8.90625 9.25068 8.90625 9.375V12.6562H6.09375V9.375C6.09375 9.25068 6.04436 9.13145 5.95646 9.04354C5.86855 8.95564 5.74932 8.90625 5.625 8.90625H2.34375V6.09375H5.625C5.74932 6.09375 5.86855 6.04436 5.95646 5.95646C6.04436 5.86855 6.09375 5.74932 6.09375 5.625V2.34375H8.90625V5.625C8.90625 5.74932 8.95564 5.86855 9.04354 5.95646C9.13145 6.04436 9.25068 6.09375 9.375 6.09375H12.6562V8.90625Z" fill="#081023"/>
</g>
</svg>
