<svg width="15" height="15" viewBox="0 0 15 15" fill="none" xmlns="http://www.w3.org/2000/svg">
<g id="ForkKnife">
<path id="Vector" opacity="0.2" d="M12.1875 2.34375V9.84375H8.90625C8.90625 9.84375 8.90625 3.75 12.1875 2.34375Z" fill="#081023"/>
<path id="Vector_2" d="M4.21875 5.15623V2.34373C4.21875 2.21941 4.26814 2.10018 4.35605 2.01227C4.44396 1.92436 4.56318 1.87498 4.6875 1.87498C4.81182 1.87498 4.93105 1.92436 5.01896 2.01227C5.10687 2.10018 5.15625 2.21941 5.15625 2.34373V5.15623C5.15625 5.28055 5.10687 5.39977 5.01896 5.48768C4.93105 5.57559 4.81182 5.62498 4.6875 5.62498C4.56318 5.62498 4.44396 5.57559 4.35605 5.48768C4.26814 5.39977 4.21875 5.28055 4.21875 5.15623ZM12.6563 2.34373V13.125C12.6563 13.2493 12.6069 13.3685 12.519 13.4564C12.4311 13.5443 12.3118 13.5937 12.1875 13.5937C12.0632 13.5937 11.944 13.5443 11.856 13.4564C11.7681 13.3685 11.7188 13.2493 11.7188 13.125V10.3125H8.90625C8.78193 10.3125 8.66271 10.2631 8.5748 10.1752C8.48689 10.0873 8.4375 9.96805 8.4375 9.84373C8.45927 8.72088 8.60109 7.60359 8.86055 6.51091C9.4336 4.13845 10.5199 2.54822 12.0029 1.91306C12.0742 1.88253 12.152 1.87016 12.2292 1.87705C12.3064 1.88395 12.3807 1.9099 12.4455 1.95258C12.5102 1.99525 12.5634 2.05333 12.6002 2.12159C12.6369 2.18986 12.6562 2.26618 12.6563 2.34373ZM11.7188 3.15818C9.83379 4.59783 9.46465 8.10466 9.39258 9.37498H11.7188V3.15818ZM7.02481 2.26697C7.01563 2.20542 6.99428 2.14631 6.96202 2.0931C6.92976 2.03988 6.88722 1.99363 6.83689 1.95702C6.78656 1.92042 6.72945 1.89421 6.66888 1.87991C6.60832 1.86561 6.54551 1.86352 6.48413 1.87375C6.42274 1.88398 6.36401 1.90633 6.31135 1.9395C6.2587 1.97267 6.21317 2.01599 6.17744 2.06693C6.1417 2.11788 6.11647 2.17543 6.1032 2.23623C6.08994 2.29704 6.08892 2.35987 6.1002 2.42107L6.5625 5.19314C6.5625 5.69042 6.36496 6.16733 6.01333 6.51897C5.6617 6.8706 5.18479 7.06814 4.6875 7.06814C4.19022 7.06814 3.71331 6.8706 3.36168 6.51897C3.01005 6.16733 2.8125 5.69042 2.8125 5.19314L3.27422 2.42107C3.2855 2.35987 3.28448 2.29704 3.27122 2.23623C3.25796 2.17543 3.23272 2.11788 3.19699 2.06693C3.16125 2.01599 3.11572 1.97267 3.06307 1.9395C3.01041 1.90633 2.95168 1.88398 2.8903 1.87375C2.82891 1.86352 2.76611 1.86561 2.70554 1.87991C2.64497 1.89421 2.58786 1.92042 2.53753 1.95702C2.4872 1.99363 2.44467 2.03988 2.4124 2.0931C2.38014 2.14631 2.35879 2.20542 2.34961 2.26697L1.88086 5.07947C1.87685 5.10486 1.87489 5.13052 1.875 5.15623C1.87594 5.82057 2.11168 6.4632 2.54055 6.97056C2.96943 7.47792 3.56384 7.81735 4.21875 7.92888V13.125C4.21875 13.2493 4.26814 13.3685 4.35605 13.4564C4.44396 13.5443 4.56318 13.5937 4.6875 13.5937C4.81182 13.5937 4.93105 13.5443 5.01896 13.4564C5.10687 13.3685 5.15625 13.2493 5.15625 13.125V7.92888C5.81117 7.81735 6.40558 7.47792 6.83446 6.97056C7.26333 6.4632 7.49907 5.82057 7.5 5.15623C7.49992 5.13051 7.49777 5.10484 7.49356 5.07947L7.02481 2.26697Z" fill="#081023"/>
</g>
</svg>
