<svg width="15" height="16" viewBox="0 0 15 16" fill="none" xmlns="http://www.w3.org/2000/svg">
<g id="GameController">
<path id="Vector" opacity="0.2" d="M12.7065 12.9731C12.4468 13.022 12.1799 13.0034 11.9283 12.9189C11.6768 12.8343 11.4481 12.6864 11.2616 12.4875L8.79419 9.5H10.078C10.5229 9.50051 10.9624 9.39698 11.3658 9.19669C11.7691 8.99641 12.1263 8.70424 12.4123 8.34076C12.6984 7.97728 12.9062 7.55133 13.0212 7.09292C13.1362 6.6345 13.1556 6.15477 13.078 5.6875L14.0366 10.9481C14.1115 11.4047 14.0136 11.8744 13.7642 12.2541C13.5148 12.6337 13.1344 12.8923 12.7065 12.9731Z" fill="#081023"/>
<path id="Vector_2" d="M10.3125 7H8.9062C8.78188 7 8.66265 6.94732 8.57475 6.85355C8.48684 6.75979 8.43745 6.63261 8.43745 6.5C8.43745 6.36739 8.48684 6.24021 8.57475 6.14645C8.66265 6.05268 8.78188 6 8.9062 6H10.3125C10.4368 6 10.556 6.05268 10.6439 6.14645C10.7318 6.24021 10.7812 6.36739 10.7812 6.5C10.7812 6.63261 10.7318 6.75979 10.6439 6.85355C10.556 6.94732 10.4368 7 10.3125 7ZM6.0937 6H5.62495V5.5C5.62495 5.36739 5.57557 5.24021 5.48766 5.14645C5.39975 5.05268 5.28052 5 5.1562 5C5.03188 5 4.91265 5.05268 4.82475 5.14645C4.73684 5.24021 4.68745 5.36739 4.68745 5.5V6H4.2187C4.09438 6 3.97515 6.05268 3.88725 6.14645C3.79934 6.24021 3.74995 6.36739 3.74995 6.5C3.74995 6.63261 3.79934 6.75979 3.88725 6.85355C3.97515 6.94732 4.09438 7 4.2187 7H4.68745V7.5C4.68745 7.63261 4.73684 7.75979 4.82475 7.85355C4.91265 7.94732 5.03188 8 5.1562 8C5.28052 8 5.39975 7.94732 5.48766 7.85355C5.57557 7.75979 5.62495 7.63261 5.62495 7.5V7H6.0937C6.21802 7 6.33725 6.94732 6.42516 6.85355C6.51307 6.75979 6.56245 6.63261 6.56245 6.5C6.56245 6.36739 6.51307 6.24021 6.42516 6.14645C6.33725 6.05268 6.21802 6 6.0937 6ZM14.1492 12.5406C13.9725 12.8097 13.7427 13.0343 13.476 13.1985C13.2093 13.3628 12.9121 13.4628 12.6053 13.4914C12.2985 13.5201 11.9895 13.4767 11.7001 13.3644C11.4107 13.2521 11.1478 13.0735 10.93 12.8413C10.923 12.8338 10.916 12.8263 10.9095 12.8181L8.58276 10H6.4148L4.09038 12.8181L4.06987 12.8413C3.6739 13.2627 3.13747 13.4996 2.57808 13.5C2.27013 13.4999 1.96594 13.4278 1.68688 13.2889C1.40783 13.15 1.16066 12.9476 0.962757 12.696C0.764852 12.4443 0.621006 12.1495 0.541323 11.8322C0.461639 11.5149 0.448052 11.1829 0.501515 10.8594C0.501233 10.8565 0.501233 10.8535 0.501515 10.8506L1.46069 5.595C1.60345 4.72817 2.02803 3.94273 2.65985 3.3767C3.29166 2.81066 4.09028 2.50025 4.91538 2.5H10.0781C10.9007 2.5014 11.6969 2.81004 12.3284 3.37233C12.9599 3.93462 13.3868 4.71505 13.5351 5.57812C13.5351 5.58188 13.5351 5.58562 13.5351 5.58938L14.4943 10.85C14.4946 10.8529 14.4946 10.8558 14.4943 10.8588C14.5439 11.1495 14.539 11.4479 14.4797 11.7366C14.4205 12.0253 14.3081 12.2986 14.1492 12.5406ZM10.0781 9C10.7618 9 11.4176 8.71027 11.9011 8.19454C12.3846 7.67882 12.6562 6.97935 12.6562 6.25C12.6562 5.52065 12.3846 4.82118 11.9011 4.30546C11.4176 3.78973 10.7618 3.5 10.0781 3.5H4.91538C4.31008 3.50058 3.72436 3.72883 3.26126 4.14461C2.79817 4.56038 2.48737 5.13704 2.38355 5.77313V5.78125L1.42378 11.0369C1.38136 11.2974 1.4175 11.5656 1.52701 11.8029C1.63652 12.0401 1.81375 12.2343 2.03322 12.3573C2.25269 12.4803 2.50308 12.5259 2.74839 12.4875C2.9937 12.4492 3.22127 12.3288 3.39839 12.1438L5.85464 9.16938C5.89862 9.11616 5.95271 9.07353 6.01333 9.04432C6.07394 9.01512 6.13969 9.00001 6.2062 9H10.0781ZM13.5761 11.0369L13.064 8.22437C12.7491 8.76687 12.3095 9.21467 11.787 9.52539C11.2645 9.83611 10.6763 9.99946 10.0781 10H9.83198L11.6015 12.1444C11.7349 12.2828 11.8972 12.3855 12.0751 12.4441C12.2529 12.5026 12.4412 12.5154 12.6246 12.4812C12.93 12.4237 13.2016 12.2394 13.3799 11.9687C13.5581 11.6979 13.6285 11.3629 13.5755 11.0369H13.5761Z" fill="#081023"/>
</g>
</svg>
