<svg width="15" height="15" viewBox="0 0 15 15" fill="none" xmlns="http://www.w3.org/2000/svg">
<g id="ChargingStation">
<path id="Vector" opacity="0.2" d="M9.84375 3.28125V12.6562H3.28125V3.28125C3.28125 3.03261 3.38002 2.79415 3.55584 2.61834C3.73165 2.44252 3.97011 2.34375 4.21875 2.34375H8.90625C9.15489 2.34375 9.39335 2.44252 9.56916 2.61834C9.74498 2.79415 9.84375 3.03261 9.84375 3.28125Z" fill="#081023"/>
<path id="Vector_2" d="M7.88789 7.23691C7.93094 7.30034 7.95778 7.37335 7.96605 7.44956C7.97432 7.52577 7.96378 7.60284 7.93535 7.67402L6.99785 10.0178C6.95146 10.1332 6.86111 10.2255 6.74667 10.2744C6.63222 10.3232 6.50306 10.3246 6.3876 10.2782C6.27214 10.2318 6.17983 10.1415 6.13099 10.027C6.08214 9.91259 6.08076 9.78343 6.12715 9.66797L6.80742 7.96875H5.625C5.54817 7.96888 5.47249 7.95013 5.40462 7.91414C5.33674 7.87816 5.27875 7.82604 5.23575 7.76237C5.19275 7.69871 5.16605 7.62545 5.15801 7.54905C5.14998 7.47265 5.16084 7.39544 5.18965 7.32422L6.12715 4.98047C6.15023 4.9233 6.18435 4.87123 6.22756 4.82725C6.27076 4.78326 6.32221 4.74822 6.37896 4.72411C6.4357 4.70001 6.49665 4.68732 6.5583 4.68677C6.61995 4.68622 6.68111 4.69781 6.73828 4.7209C6.79545 4.74398 6.84752 4.7781 6.8915 4.82131C6.93549 4.86451 6.97053 4.91596 6.99464 4.97271C7.01874 5.02946 7.03143 5.0904 7.03198 5.15205C7.03253 5.2137 7.02094 5.27486 6.99785 5.33203L6.31758 7.03125H7.5C7.57653 7.03126 7.6519 7.05001 7.71951 7.08586C7.78713 7.12171 7.84494 7.17357 7.88789 7.23691ZM14.5312 5.07598V9.84375C14.5312 10.2167 14.3831 10.5744 14.1194 10.8381C13.8556 11.1018 13.498 11.25 13.125 11.25C12.752 11.25 12.3944 11.1018 12.1306 10.8381C11.8669 10.5744 11.7188 10.2167 11.7188 9.84375V7.5C11.7188 7.37568 11.6694 7.25645 11.5815 7.16854C11.4935 7.08064 11.3743 7.03125 11.25 7.03125H10.3125V12.1875H11.25C11.3743 12.1875 11.4935 12.2369 11.5815 12.3248C11.6694 12.4127 11.7188 12.5319 11.7188 12.6563C11.7188 12.7806 11.6694 12.8998 11.5815 12.9877C11.4935 13.0756 11.3743 13.125 11.25 13.125H1.875C1.75068 13.125 1.63145 13.0756 1.54354 12.9877C1.45564 12.8998 1.40625 12.7806 1.40625 12.6563C1.40625 12.5319 1.45564 12.4127 1.54354 12.3248C1.63145 12.2369 1.75068 12.1875 1.875 12.1875H2.8125V3.28125C2.8125 2.90829 2.96066 2.5506 3.22438 2.28688C3.4881 2.02316 3.84579 1.875 4.21875 1.875H8.90625C9.27921 1.875 9.6369 2.02316 9.90062 2.28688C10.1643 2.5506 10.3125 2.90829 10.3125 3.28125V6.09375H11.25C11.623 6.09375 11.9806 6.24191 12.2444 6.50563C12.5081 6.76935 12.6562 7.12704 12.6562 7.5V9.84375C12.6562 9.96807 12.7056 10.0873 12.7935 10.1752C12.8815 10.2631 13.0007 10.3125 13.125 10.3125C13.2493 10.3125 13.3685 10.2631 13.4565 10.1752C13.5444 10.0873 13.5938 9.96807 13.5938 9.84375V5.07598C13.5934 4.95223 13.5441 4.83365 13.4566 4.74609L12.3246 3.61289C12.2367 3.52493 12.1872 3.40564 12.1872 3.28125C12.1872 3.15686 12.2367 3.03757 12.3246 2.94961C12.4126 2.86165 12.5319 2.81224 12.6562 2.81224C12.7806 2.81224 12.8999 2.86165 12.9879 2.94961L14.1211 4.08164C14.2518 4.21207 14.3553 4.3671 14.4257 4.53777C14.4961 4.70843 14.532 4.89136 14.5312 5.07598ZM9.375 12.1875V3.28125C9.375 3.15693 9.32561 3.0377 9.23771 2.94979C9.1498 2.86189 9.03057 2.8125 8.90625 2.8125H4.21875C4.09443 2.8125 3.9752 2.86189 3.88729 2.94979C3.79939 3.0377 3.75 3.15693 3.75 3.28125V12.1875H9.375Z" fill="#081023"/>
</g>
</svg>
