<svg width="34" height="33" viewBox="0 0 34 33" fill="none" xmlns="http://www.w3.org/2000/svg">
<path opacity="0.2" d="M22.1563 7.21875V27.8438H7.71878V7.21875C7.71878 6.67174 7.93608 6.14714 8.32287 5.76034C8.70967 5.37355 9.23427 5.15625 9.78128 5.15625H20.0938C20.6408 5.15625 21.1654 5.37355 21.5522 5.76034C21.939 6.14714 22.1563 6.67174 22.1563 7.21875Z" fill="#207CFD"/>
<path d="M17.8534 15.9212C17.9481 16.0607 18.0072 16.2214 18.0254 16.389C18.0436 16.5567 18.0204 16.7262 17.9578 16.8829L15.8953 22.0391C15.7933 22.2931 15.5945 22.4962 15.3427 22.6037C15.0909 22.7111 14.8068 22.7141 14.5528 22.6121C14.2988 22.51 14.0957 22.3113 13.9882 22.0595C13.8808 21.8077 13.8777 21.5236 13.9798 21.2695L15.4764 17.5313H12.8751C12.706 17.5315 12.5395 17.4903 12.3902 17.4111C12.2409 17.3319 12.1133 17.2173 12.0187 17.0772C11.9241 16.9372 11.8654 16.776 11.8477 16.6079C11.83 16.4398 11.8539 16.27 11.9173 16.1133L13.9798 10.957C14.0306 10.8313 14.1056 10.7167 14.2007 10.6199C14.2957 10.5232 14.4089 10.4461 14.5338 10.3931C14.6586 10.34 14.7927 10.3121 14.9283 10.3109C15.064 10.3097 15.1985 10.3352 15.3243 10.386C15.4501 10.4368 15.5646 10.5118 15.6614 10.6069C15.7581 10.7019 15.8352 10.8151 15.8883 10.94C15.9413 11.0648 15.9692 11.1989 15.9704 11.3345C15.9716 11.4701 15.9461 11.6047 15.8953 11.7305L14.3987 15.4688H17.0001C17.1684 15.4688 17.3342 15.51 17.483 15.5889C17.6317 15.6678 17.7589 15.7819 17.8534 15.9212ZM32.4688 11.1671V21.6563C32.4688 22.4768 32.1429 23.2637 31.5627 23.8439C30.9825 24.4241 30.1956 24.75 29.3751 24.75C28.5545 24.75 27.7676 24.4241 27.1874 23.8439C26.6073 23.2637 26.2813 22.4768 26.2813 21.6563V16.5C26.2813 16.2265 26.1727 15.9642 25.9793 15.7708C25.7859 15.5774 25.5236 15.4688 25.2501 15.4688H23.1876V26.8125H25.2501C25.5236 26.8125 25.7859 26.9212 25.9793 27.1145C26.1727 27.3079 26.2813 27.5702 26.2813 27.8438C26.2813 28.1173 26.1727 28.3796 25.9793 28.573C25.7859 28.7664 25.5236 28.875 25.2501 28.875H4.62506C4.35156 28.875 4.08925 28.7664 3.89586 28.573C3.70246 28.3796 3.59381 28.1173 3.59381 27.8438C3.59381 27.5702 3.70246 27.3079 3.89586 27.1145C4.08925 26.9212 4.35156 26.8125 4.62506 26.8125H6.68756V7.21875C6.68756 6.39824 7.01351 5.61133 7.5937 5.03114C8.17389 4.45095 8.9608 4.125 9.78131 4.125H20.0938C20.9143 4.125 21.7012 4.45095 22.2814 5.03114C22.8616 5.61133 23.1876 6.39824 23.1876 7.21875V13.4063H25.2501C26.0706 13.4063 26.8575 13.7322 27.4377 14.3124C28.0179 14.8926 28.3438 15.6795 28.3438 16.5V21.6563C28.3438 21.9298 28.4525 22.1921 28.6459 22.3855C28.8393 22.5789 29.1016 22.6875 29.3751 22.6875C29.6486 22.6875 29.9109 22.5789 30.1043 22.3855C30.2977 22.1921 30.4063 21.9298 30.4063 21.6563V11.1671C30.4055 10.8949 30.2971 10.634 30.1047 10.4414L27.6142 7.94836C27.4207 7.75486 27.312 7.49241 27.312 7.21875C27.312 6.94509 27.4207 6.68265 27.6142 6.48914C27.8077 6.29564 28.0702 6.18693 28.3438 6.18693C28.6175 6.18693 28.8799 6.29564 29.0734 6.48914L31.5665 8.97961C31.8539 9.26656 32.0817 9.60762 32.2365 9.98309C32.3914 10.3586 32.4704 10.761 32.4688 11.1671ZM21.1251 26.8125V7.21875C21.1251 6.94525 21.0164 6.68294 20.823 6.48955C20.6296 6.29615 20.3673 6.1875 20.0938 6.1875H9.78131C9.50781 6.1875 9.2455 6.29615 9.05211 6.48955C8.85871 6.68294 8.75006 6.94525 8.75006 7.21875V26.8125H21.1251Z" fill="#081023"/>
</svg>
