<svg width="15" height="15" viewBox="0 0 15 15" fill="none" xmlns="http://www.w3.org/2000/svg">
<g id="Gift">
<path id="Vector" opacity="0.2" d="M12.1875 7.5V11.7187C12.1875 11.8431 12.1381 11.9623 12.0502 12.0502C11.9623 12.1381 11.8431 12.1875 11.7187 12.1875H3.28125C3.15693 12.1875 3.0377 12.1381 2.94979 12.0502C2.86189 11.9623 2.8125 11.8431 2.8125 11.7187V7.5H12.1875Z" fill="#081023"/>
<path id="Vector_2" d="M12.6562 4.21877H10.6008C10.6236 4.19944 10.6471 4.18069 10.6693 4.16018C10.8473 4.00208 10.9907 3.80896 11.0906 3.59291C11.1905 3.37685 11.2448 3.1425 11.25 2.90452C11.2577 2.64417 11.2121 2.385 11.116 2.14291C11.0199 1.90082 10.8754 1.68092 10.6912 1.49672C10.5071 1.31252 10.2872 1.1679 10.0452 1.07174C9.8031 0.975578 9.54394 0.929905 9.28359 0.937525C9.04551 0.942653 8.81105 0.996871 8.59489 1.09679C8.37872 1.1967 8.18551 1.34016 8.02734 1.51819C7.80848 1.77184 7.63056 2.0581 7.5 2.36663C7.36944 2.0581 7.19152 1.77184 6.97266 1.51819C6.81449 1.34016 6.62128 1.1967 6.40511 1.09679C6.18895 0.996871 5.95449 0.942653 5.71641 0.937525C5.45606 0.929905 5.1969 0.975578 4.95484 1.07174C4.71278 1.1679 4.49293 1.31252 4.30878 1.49672C4.12463 1.68092 3.98008 1.90082 3.88399 2.14291C3.7879 2.385 3.7423 2.64417 3.75 2.90452C3.75521 3.1425 3.80947 3.37685 3.90938 3.59291C4.00929 3.80896 4.15271 4.00208 4.33066 4.16018C4.35293 4.17952 4.37637 4.19827 4.39922 4.21877H2.34375C2.09511 4.21877 1.85665 4.31755 1.68084 4.49336C1.50502 4.66918 1.40625 4.90763 1.40625 5.15627V7.03127C1.40625 7.27991 1.50502 7.51837 1.68084 7.69419C1.85665 7.87 2.09511 7.96877 2.34375 7.96877V11.7188C2.34375 11.9674 2.44252 12.2059 2.61834 12.3817C2.79415 12.5575 3.03261 12.6563 3.28125 12.6563H11.7188C11.9674 12.6563 12.2058 12.5575 12.3817 12.3817C12.5575 12.2059 12.6562 11.9674 12.6562 11.7188V7.96877C12.9049 7.96877 13.1433 7.87 13.3192 7.69419C13.495 7.51837 13.5938 7.27991 13.5938 7.03127V5.15627C13.5938 4.90763 13.495 4.66918 13.3192 4.49336C13.1433 4.31755 12.9049 4.21877 12.6562 4.21877ZM8.73047 2.13928C8.80469 2.05732 8.89505 1.99159 8.99588 1.94622C9.09672 1.90084 9.20584 1.8768 9.31641 1.87561H9.34512C9.47471 1.87642 9.60283 1.90309 9.72199 1.95405C9.84114 2.00501 9.94892 2.07925 10.039 2.1724C10.1291 2.26555 10.1997 2.37575 10.2467 2.49653C10.2936 2.61732 10.316 2.74626 10.3125 2.87581C10.3113 2.98637 10.2873 3.0955 10.2419 3.19633C10.1965 3.29716 10.1308 3.38752 10.0488 3.46174C9.49277 3.95393 8.56992 4.12737 7.99805 4.18831C8.06836 3.5678 8.26172 2.66604 8.73047 2.13928ZM4.9752 2.16038C5.1568 1.97879 5.40276 1.87624 5.65957 1.87502H5.68828C5.79885 1.87622 5.90797 1.90026 6.0088 1.94563C6.10964 1.991 6.2 2.05674 6.27422 2.1387C6.76582 2.69417 6.93926 3.61526 7.0002 4.18479C6.43066 4.1262 5.50957 3.95042 4.9541 3.45881C4.87214 3.38459 4.80641 3.29423 4.76103 3.1934C4.71566 3.09257 4.69162 2.98344 4.69043 2.87288C4.6868 2.74118 4.70996 2.61011 4.7585 2.48764C4.80705 2.36516 4.87998 2.25382 4.97285 2.16038H4.9752ZM2.34375 5.15627H7.03125V7.03127H2.34375V5.15627ZM3.28125 7.96877H7.03125V11.7188H3.28125V7.96877ZM11.7188 11.7188H7.96875V7.96877H11.7188V11.7188ZM12.6562 7.03127H7.96875V5.15627H12.6562V7.03127Z" fill="#081023"/>
</g>
</svg>
