<svg width="15" height="15" viewBox="0 0 15 15" fill="none" xmlns="http://www.w3.org/2000/svg">
<g id="Handbag">
<path id="Vector" opacity="0.2" d="M13.1203 12.1875H1.87964C1.81322 12.188 1.74746 12.1743 1.68672 12.1474C1.62598 12.1205 1.57165 12.081 1.52733 12.0315C1.483 11.9821 1.4497 11.9237 1.42963 11.8604C1.40956 11.7971 1.40317 11.7302 1.41089 11.6643L2.24586 4.63301C2.26001 4.51866 2.31547 4.41344 2.40181 4.33714C2.48814 4.26084 2.59939 4.21874 2.71461 4.21875H12.2853C12.4005 4.21874 12.5118 4.26084 12.5981 4.33714C12.6844 4.41344 12.7399 4.51866 12.7541 4.63301L13.589 11.6643C13.5967 11.7302 13.5904 11.7971 13.5703 11.8604C13.5502 11.9237 13.5169 11.9821 13.4726 12.0315C13.4283 12.081 13.3739 12.1205 13.3132 12.1474C13.2525 12.1743 13.1867 12.188 13.1203 12.1875Z" fill="#081023"/>
<path id="Vector_2" d="M14.0561 11.6086L13.2205 4.57734C13.1934 4.34825 13.0828 4.1372 12.9098 3.98456C12.7369 3.83191 12.5137 3.7484 12.283 3.75H10.3125C10.3125 3.00408 10.0162 2.28871 9.48876 1.76126C8.96131 1.23382 8.24594 0.9375 7.50002 0.9375C6.7541 0.9375 6.03873 1.23382 5.51128 1.76126C4.98383 2.28871 4.68752 3.00408 4.68752 3.75H2.71467C2.48398 3.7484 2.26081 3.83191 2.08785 3.98456C1.91488 4.1372 1.80427 4.34825 1.77717 4.57734L0.94162 11.6086C0.926308 11.7398 0.938907 11.8728 0.978592 11.9988C1.01828 12.1249 1.08415 12.2411 1.17189 12.3398C1.26027 12.439 1.36857 12.5185 1.48972 12.573C1.61088 12.6275 1.74216 12.6559 1.87502 12.6562H13.1203C13.254 12.6566 13.3862 12.6285 13.5082 12.574C13.6302 12.5194 13.7392 12.4396 13.8281 12.3398C13.9155 12.2409 13.9809 12.1246 14.0202 11.9986C14.0595 11.8725 14.0717 11.7397 14.0561 11.6086ZM7.50002 1.875C7.9973 1.875 8.47421 2.07254 8.82584 2.42417C9.17747 2.77581 9.37502 3.25272 9.37502 3.75H5.62502C5.62502 3.25272 5.82256 2.77581 6.17419 2.42417C6.52582 2.07254 7.00274 1.875 7.50002 1.875ZM1.87502 11.7188L2.71467 4.6875H4.68752V6.09375C4.68752 6.21807 4.7369 6.3373 4.82481 6.42521C4.91272 6.51311 5.03195 6.5625 5.15627 6.5625C5.28059 6.5625 5.39982 6.51311 5.48772 6.42521C5.57563 6.3373 5.62502 6.21807 5.62502 6.09375V4.6875H9.37502V6.09375C9.37502 6.21807 9.4244 6.3373 9.51231 6.42521C9.60022 6.51311 9.71945 6.5625 9.84377 6.5625C9.96809 6.5625 10.0873 6.51311 10.1752 6.42521C10.2631 6.3373 10.3125 6.21807 10.3125 6.09375V4.6875H12.2901L13.1203 11.7188H1.87502Z" fill="#081023"/>
</g>
</svg>
