<svg width="33" height="33" viewBox="0 0 33 33" fill="none" xmlns="http://www.w3.org/2000/svg">
<path opacity="0.2" d="M29.9063 12.1172C29.9063 20.625 16.5001 27.8438 16.5001 27.8438C16.5001 27.8438 3.09381 20.625 3.09381 12.1172C3.09381 10.271 3.82719 8.50049 5.13262 7.19506C6.43805 5.88963 8.20859 5.15625 10.0547 5.15625C12.9667 5.15625 15.4611 6.74309 16.5001 9.28125C17.539 6.74309 20.0334 5.15625 22.9454 5.15625C24.7915 5.15625 26.5621 5.88963 27.8675 7.19506C29.1729 8.50049 29.9063 10.271 29.9063 12.1172Z" fill="#207CFD"/>
<path d="M22.9454 4.125C20.2835 4.125 17.9529 5.26969 16.5001 7.20457C15.0473 5.26969 12.7167 4.125 10.0548 4.125C7.93588 4.12739 5.90443 4.97019 4.40612 6.4685C2.90781 7.9668 2.06501 9.99826 2.06262 12.1172C2.06262 21.1406 15.4418 28.4445 16.0116 28.7461C16.1617 28.8269 16.3296 28.8692 16.5001 28.8692C16.6706 28.8692 16.8385 28.8269 16.9887 28.7461C17.5584 28.4445 30.9376 21.1406 30.9376 12.1172C30.9352 9.99826 30.0924 7.9668 28.5941 6.4685C27.0958 4.97019 25.0644 4.12739 22.9454 4.125ZM16.5001 26.6578C14.1463 25.2863 4.12512 19.0382 4.12512 12.1172C4.12717 10.5452 4.75256 9.03811 5.86415 7.92653C6.97574 6.81494 8.48279 6.18955 10.0548 6.1875C12.562 6.1875 14.6671 7.52297 15.5462 9.66797C15.6239 9.85711 15.7561 10.0189 15.9259 10.1327C16.0958 10.2466 16.2956 10.3074 16.5001 10.3074C16.7046 10.3074 16.9045 10.2466 17.0743 10.1327C17.2442 10.0189 17.3763 9.85711 17.454 9.66797C18.3332 7.5191 20.4382 6.1875 22.9454 6.1875C24.5175 6.18955 26.0245 6.81494 27.1361 7.92653C28.2477 9.03811 28.8731 10.5452 28.8751 12.1172C28.8751 19.0279 18.8514 25.285 16.5001 26.6578Z" fill="#081023"/>
</svg>
