<svg width="22" height="22" viewBox="0 0 22 22" fill="none" xmlns="http://www.w3.org/2000/svg">
<path opacity="0.2" d="M19.9375 8.07812C19.9375 13.75 11 18.5625 11 18.5625C11 18.5625 2.0625 13.75 2.0625 8.07812C2.0625 6.84735 2.55142 5.66699 3.42171 4.79671C4.29199 3.92642 5.47235 3.4375 6.70312 3.4375C8.64445 3.4375 10.3073 4.49539 11 6.1875C11.6927 4.49539 13.3555 3.4375 15.2969 3.4375C16.5276 3.4375 17.708 3.92642 18.5783 4.79671C19.4486 5.66699 19.9375 6.84735 19.9375 8.07812Z" fill="#207CFD"/>
<path d="M15.2969 2.75C13.5223 2.75 11.9686 3.51312 11.0001 4.80305C10.0315 3.51312 8.4778 2.75 6.70319 2.75C5.29057 2.75159 3.93626 3.31346 2.93739 4.31233C1.93852 5.3112 1.37665 6.66551 1.37506 8.07812C1.37506 14.0938 10.2945 18.963 10.6744 19.1641C10.7745 19.2179 10.8864 19.2461 11.0001 19.2461C11.1137 19.2461 11.2256 19.2179 11.3258 19.1641C11.7056 18.963 20.6251 14.0938 20.6251 8.07812C20.6235 6.66551 20.0616 5.3112 19.0627 4.31233C18.0639 3.31346 16.7096 2.75159 15.2969 2.75ZM11.0001 17.7719C9.43084 16.8575 2.75006 12.6921 2.75006 8.07812C2.75143 7.03011 3.16835 6.02541 3.90941 5.28435C4.65047 4.54329 5.65517 4.12636 6.70319 4.125C8.37467 4.125 9.77803 5.01531 10.3641 6.44531C10.4159 6.57141 10.504 6.67926 10.6173 6.75516C10.7305 6.83106 10.8637 6.87159 11.0001 6.87159C11.1364 6.87159 11.2696 6.83106 11.3829 6.75516C11.4961 6.67926 11.5842 6.57141 11.636 6.44531C12.2221 5.01273 13.6255 4.125 15.2969 4.125C16.345 4.12636 17.3497 4.54329 18.0907 5.28435C18.8318 6.02541 19.2487 7.03011 19.2501 8.07812C19.2501 12.6852 12.5676 16.8566 11.0001 17.7719Z" fill="#207CFD"/>
</svg>
