<svg width="33" height="33" viewBox="0 0 33 33" fill="none" xmlns="http://www.w3.org/2000/svg">
<path opacity="0.2" d="M24.7499 22.6875V28.875L16.4999 23.7188L8.24994 28.875V22.6875L16.4999 17.5312L24.7499 22.6875Z" fill="#207CFD"/>
<path d="M23.7188 4.125H9.28125C8.73424 4.125 8.20964 4.3423 7.82284 4.72909C7.43605 5.11589 7.21875 5.64049 7.21875 6.1875V28.875C7.21884 29.059 7.26818 29.2397 7.36165 29.3982C7.45512 29.5568 7.58932 29.6874 7.75031 29.7766C7.9113 29.8658 8.09322 29.9102 8.2772 29.9054C8.46117 29.9005 8.6405 29.8465 8.79656 29.749L16.5 24.9343L24.2047 29.749C24.3608 29.8462 24.54 29.8999 24.7237 29.9046C24.9075 29.9093 25.0892 29.8647 25.25 29.7756C25.4108 29.6865 25.5448 29.556 25.6382 29.3976C25.7316 29.2393 25.781 29.0588 25.7813 28.875V6.1875C25.7813 5.64049 25.564 5.11589 25.1772 4.72909C24.7904 4.3423 24.2658 4.125 23.7188 4.125ZM23.7188 6.1875V20.8274L17.0453 16.6573C16.8814 16.5548 16.692 16.5005 16.4987 16.5005C16.3054 16.5005 16.116 16.5548 15.9522 16.6573L9.28125 20.8261V6.1875H23.7188ZM17.0453 22.8448C16.8814 22.7423 16.692 22.688 16.4987 22.688C16.3054 22.688 16.116 22.7423 15.9522 22.8448L9.28125 27.0149V23.2586L16.5 18.7468L23.7188 23.2586V27.0149L17.0453 22.8448Z" fill="#081023"/>
</svg>
