<svg width="22" height="22" viewBox="0 0 22 22" fill="none" xmlns="http://www.w3.org/2000/svg">
<path opacity="0.2" d="M18.5624 9.9293V18.5626H13.0624V13.7501C13.0624 13.5677 12.99 13.3929 12.8611 13.2639C12.7321 13.135 12.5573 13.0626 12.3749 13.0626H9.62494C9.4426 13.0626 9.26773 13.135 9.1388 13.2639C9.00987 13.3929 8.93744 13.5677 8.93744 13.7501V18.5626H3.43744V9.9293C3.43745 9.83349 3.45748 9.73874 3.49626 9.65113C3.53503 9.56352 3.59169 9.48498 3.6626 9.42055L10.5376 2.92883C10.6642 2.81361 10.8292 2.74976 11.0004 2.74976C11.1715 2.74976 11.3366 2.81361 11.4631 2.92883L18.3381 9.42055C18.4089 9.48506 18.4654 9.56363 18.504 9.65124C18.5426 9.73885 18.5625 9.83355 18.5624 9.9293Z" fill="#343330"/>
<path d="M20.6249 17.875H19.2499V9.93008C19.25 9.73978 19.2105 9.55155 19.134 9.37729C19.0575 9.20303 18.9457 9.04655 18.8056 8.91774L11.9306 2.43118C11.9273 2.42824 11.9241 2.42508 11.9212 2.42172C11.6681 2.19152 11.3382 2.06396 10.9961 2.06396C10.6539 2.06396 10.3241 2.19152 10.071 2.42172L10.0615 2.43118L3.19424 8.91774C3.05416 9.04655 2.94234 9.20303 2.86586 9.37729C2.78938 9.55155 2.74991 9.73978 2.74994 9.93008V17.875H1.37494C1.1926 17.875 1.01773 17.9474 0.888803 18.0764C0.759872 18.2053 0.687439 18.3802 0.687439 18.5625C0.687439 18.7448 0.759872 18.9197 0.888803 19.0486C1.01773 19.1776 1.1926 19.25 1.37494 19.25H20.6249C20.8073 19.25 20.9821 19.1776 21.1111 19.0486C21.24 18.9197 21.3124 18.7448 21.3124 18.5625C21.3124 18.3802 21.24 18.2053 21.1111 18.0764C20.9821 17.9474 20.8073 17.875 20.6249 17.875ZM4.12494 9.93008L4.13439 9.92149L10.9999 3.4375L17.8663 9.91977L17.8758 9.92836V17.875H13.7499V13.75C13.7499 13.3853 13.6051 13.0356 13.3472 12.7777C13.0893 12.5199 12.7396 12.375 12.3749 12.375H9.62494C9.26027 12.375 8.91053 12.5199 8.65267 12.7777C8.3948 13.0356 8.24994 13.3853 8.24994 13.75V17.875H4.12494V9.93008ZM12.3749 17.875H9.62494V13.75H12.3749V17.875Z" fill="#343330"/>
</svg>
