<svg width="15" height="15" viewBox="0 0 15 15" fill="none" xmlns="http://www.w3.org/2000/svg">
<g id="IceCream">
<path id="Vector" opacity="0.2" d="M12.6562 6.5625C12.6562 6.81114 12.5575 7.0496 12.3817 7.22541C12.2058 7.40123 11.9674 7.5 11.7188 7.5H3.28125C3.03261 7.5 2.79415 7.40123 2.61834 7.22541C2.44252 7.0496 2.34375 6.81114 2.34375 6.5625C2.34375 6.31386 2.44252 6.0754 2.61834 5.89959C2.79415 5.72377 3.03261 5.625 3.28125 5.625V5.15625C3.28125 4.03737 3.72572 2.96431 4.51689 2.17314C5.30806 1.38197 6.38112 0.9375 7.5 0.9375C8.61888 0.9375 9.69194 1.38197 10.4831 2.17314C11.2743 2.96431 11.7188 4.03737 11.7188 5.15625V5.625C11.9674 5.625 12.2058 5.72377 12.3817 5.89959C12.5575 6.0754 12.6562 6.31386 12.6562 6.5625Z" fill="#081023"/>
<path id="Vector_2" d="M12.1876 5.23652V5.15625C12.1876 3.91305 11.6937 2.72076 10.8146 1.84169C9.93555 0.96261 8.74327 0.46875 7.50006 0.46875C6.25686 0.46875 5.06458 0.96261 4.1855 1.84169C3.30643 2.72076 2.81257 3.91305 2.81257 5.15625V5.23652C2.4997 5.34702 2.23599 5.56459 2.06805 5.85076C1.90012 6.13693 1.83878 6.47326 1.89489 6.80029C1.95099 7.12731 2.12093 7.42397 2.37464 7.6378C2.62836 7.85162 2.94951 7.96885 3.28132 7.96875H3.47819L7.09284 14.2969C7.1338 14.3687 7.19306 14.4285 7.26458 14.47C7.3361 14.5116 7.41735 14.5335 7.50006 14.5335C7.58278 14.5335 7.66403 14.5116 7.73555 14.47C7.80707 14.4285 7.86632 14.3687 7.90729 14.2969L11.5219 7.96875H11.7188C12.0506 7.96885 12.3718 7.85162 12.6255 7.6378C12.8792 7.42397 13.0491 7.12731 13.1052 6.80029C13.1613 6.47326 13.1 6.13693 12.9321 5.85076C12.7641 5.56459 12.5004 5.34702 12.1876 5.23652ZM7.50006 13.118L4.55807 7.96875H5.68776L8.06491 12.1289L7.50006 13.118ZM7.89792 7.96875L9.16999 10.1953L8.60514 11.1844L6.76764 7.96875H7.89792ZM9.70964 9.25078L8.97721 7.96875H10.4421L9.70964 9.25078ZM11.7188 7.03125H3.28132C3.15699 7.03125 3.03777 6.98186 2.94986 6.89396C2.86195 6.80605 2.81257 6.68682 2.81257 6.5625C2.81257 6.43818 2.86195 6.31895 2.94986 6.23104C3.03777 6.14314 3.15699 6.09375 3.28132 6.09375C3.40564 6.09375 3.52486 6.04436 3.61277 5.95646C3.70068 5.86855 3.75007 5.74932 3.75007 5.625V5.15625C3.75007 4.16169 4.14515 3.20786 4.84841 2.5046C5.55168 1.80134 6.5055 1.40625 7.50006 1.40625C8.49463 1.40625 9.44845 1.80134 10.1517 2.5046C10.855 3.20786 11.2501 4.16169 11.2501 5.15625V5.625C11.2501 5.74932 11.2995 5.86855 11.3874 5.95646C11.4753 6.04436 11.5945 6.09375 11.7188 6.09375C11.8431 6.09375 11.9624 6.14314 12.0503 6.23104C12.1382 6.31895 12.1876 6.43818 12.1876 6.5625C12.1876 6.68682 12.1382 6.80605 12.0503 6.89396C11.9624 6.98186 11.8431 7.03125 11.7188 7.03125Z" fill="#081023"/>
</g>
</svg>
