<svg width="21" height="22" viewBox="0 0 21 22" fill="none" xmlns="http://www.w3.org/2000/svg">
<path opacity="0.2" d="M14.3832 3.1546H6.53781C5.49745 3.1546 4.49969 3.56789 3.76404 4.30353C3.0284 5.03918 2.61511 6.03694 2.61511 7.0773V14.9227C2.61511 15.9631 3.0284 16.9608 3.76404 17.6965C4.49969 18.4321 5.49745 18.8454 6.53781 18.8454H14.3832C15.4236 18.8454 16.4213 18.4321 17.157 17.6965C17.8926 16.9608 18.3059 15.9631 18.3059 14.9227V7.0773C18.3059 6.03694 17.8926 5.03918 17.157 4.30353C16.4213 3.56789 15.4236 3.1546 14.3832 3.1546ZM10.4605 14.2689C9.81398 14.2689 9.18197 14.0772 8.6444 13.718C8.10683 13.3588 7.68784 12.8483 7.44042 12.251C7.19301 11.6536 7.12827 10.9964 7.2544 10.3623C7.38054 9.72816 7.69187 9.14569 8.14904 8.68853C8.6062 8.23136 9.18867 7.92003 9.82277 7.79389C10.4569 7.66776 11.1142 7.7325 11.7115 7.97991C12.3088 8.22733 12.8193 8.64632 13.1785 9.18389C13.5377 9.72146 13.7294 10.3535 13.7294 11C13.7294 11.867 13.385 12.6984 12.772 13.3115C12.1589 13.9245 11.3275 14.2689 10.4605 14.2689Z" fill="#207CFD"/>
<path d="M14.3833 2.50079H6.53786C5.3245 2.50209 4.16121 2.98467 3.30323 3.84265C2.44526 4.70062 1.96268 5.86391 1.96138 7.07727V14.9227C1.96268 16.136 2.44526 17.2993 3.30323 18.1573C4.16121 19.0153 5.3245 19.4979 6.53786 19.4991H14.3833C15.5966 19.4979 16.7599 19.0153 17.6179 18.1573C18.4759 17.2993 18.9584 16.136 18.9597 14.9227V7.07727C18.9584 5.86391 18.4759 4.70062 17.6179 3.84265C16.7599 2.98467 15.5966 2.50209 14.3833 2.50079ZM17.6522 14.9227C17.6522 15.7896 17.3078 16.6211 16.6947 17.2341C16.0817 17.8472 15.2502 18.1916 14.3833 18.1916H6.53786C5.67089 18.1916 4.83943 17.8472 4.22639 17.2341C3.61335 16.6211 3.26895 15.7896 3.26895 14.9227V7.07727C3.26895 6.2103 3.61335 5.37884 4.22639 4.7658C4.83943 4.15276 5.67089 3.80836 6.53786 3.80836H14.3833C15.2502 3.80836 16.0817 4.15276 16.6947 4.7658C17.3078 5.37884 17.6522 6.2103 17.6522 7.07727V14.9227ZM10.4606 7.07727C9.68472 7.07727 8.92631 7.30734 8.28122 7.73837C7.63614 8.1694 7.13336 8.78204 6.83646 9.49882C6.53956 10.2156 6.46188 11.0043 6.61323 11.7653C6.76459 12.5262 7.13819 13.2251 7.68679 13.7737C8.23539 14.3223 8.93435 14.6959 9.69528 14.8473C10.4562 14.9987 11.2449 14.921 11.9617 14.6241C12.6785 14.3272 13.2911 13.8244 13.7222 13.1793C14.1532 12.5342 14.3833 11.7758 14.3833 11C14.3822 9.95994 13.9685 8.96281 13.2331 8.2274C12.4977 7.49199 11.5006 7.07835 10.4606 7.07727ZM10.4606 13.6151C9.94333 13.6151 9.43772 13.4617 9.00767 13.1744C8.57761 12.887 8.24242 12.4786 8.04449 12.0007C7.84656 11.5229 7.79477 10.9971 7.89567 10.4898C7.99658 9.9825 8.24565 9.51653 8.61138 9.15079C8.97711 8.78506 9.44308 8.53599 9.95037 8.43509C10.4577 8.33418 10.9835 8.38597 11.4613 8.5839C11.9392 8.78184 12.3476 9.11703 12.635 9.54708C12.9223 9.97714 13.0757 10.4827 13.0757 11C13.0757 11.6935 12.8002 12.3587 12.3097 12.8491C11.8193 13.3396 11.1541 13.6151 10.4606 13.6151ZM15.6908 6.75038C15.6908 6.94434 15.6333 7.13394 15.5255 7.29522C15.4178 7.45649 15.2646 7.58218 15.0854 7.65641C14.9062 7.73063 14.7091 7.75005 14.5188 7.71221C14.3286 7.67437 14.1539 7.58097 14.0167 7.44382C13.8796 7.30667 13.7862 7.13193 13.7483 6.9417C13.7105 6.75147 13.7299 6.55429 13.8041 6.37509C13.8783 6.1959 14.004 6.04274 14.1653 5.93498C14.3266 5.82722 14.5162 5.76971 14.7101 5.76971C14.9702 5.76971 15.2197 5.87303 15.4036 6.05694C15.5875 6.24085 15.6908 6.49029 15.6908 6.75038Z" fill="#081023"/>
</svg>
