<svg width="15" height="15" viewBox="0 0 15 15" fill="none" xmlns="http://www.w3.org/2000/svg">
<g id="Hammer">
<path id="Vector" opacity="0.2" d="M14.3941 7.55857L12.7148 9.23787C12.627 9.32553 12.5079 9.37476 12.3838 9.37476C12.2597 9.37476 12.1406 9.32553 12.0527 9.23787L9.84961 7.03123L8.20898 8.67186L6.33398 6.79686L7.97461 5.15623L4.6875 1.86209C5.64101 1.43134 6.70318 1.30152 7.73236 1.48996C8.76155 1.6784 9.70882 2.17613 10.4479 2.91678L14.3941 6.89471C14.4378 6.93825 14.4725 6.98999 14.4961 7.04695C14.5197 7.10391 14.5319 7.16497 14.5319 7.22664C14.5319 7.28831 14.5197 7.34938 14.4961 7.40634C14.4725 7.46329 14.4378 7.51503 14.3941 7.55857Z" fill="#207CFD"/>
<path id="Vector_2" d="M14.7269 6.56251L10.7742 2.58282C9.71851 1.52927 8.28798 0.937561 6.79654 0.937561C5.30509 0.937561 3.87457 1.52927 2.8189 2.58282L2.81363 2.5881L2.00679 3.42189C1.92321 3.51171 1.87818 3.63072 1.88136 3.75337C1.88455 3.87602 1.93569 3.99253 2.02382 4.0779C2.11194 4.16326 2.23002 4.21067 2.35271 4.20995C2.4754 4.20923 2.59292 4.16043 2.68003 4.07403L3.48453 3.24317C3.80819 2.91958 4.17755 2.64517 4.58082 2.42872L7.30542 5.15626L1.68042 10.7813C1.59335 10.8683 1.52427 10.9717 1.47715 11.0854C1.43002 11.1992 1.40576 11.3211 1.40576 11.4442C1.40576 11.5674 1.43002 11.6893 1.47715 11.8031C1.52427 11.9168 1.59335 12.0202 1.68042 12.1072L2.89273 13.3195C2.97979 13.4066 3.08315 13.4757 3.1969 13.5228C3.31066 13.5699 3.43259 13.5942 3.55572 13.5942C3.67885 13.5942 3.80078 13.5699 3.91453 13.5228C4.02829 13.4757 4.13165 13.4066 4.21871 13.3195L9.84371 7.69454L10.6839 8.53478L11.7187 9.56837C11.8058 9.65545 11.9091 9.72452 12.0229 9.77165C12.1366 9.81878 12.2586 9.84303 12.3817 9.84303C12.5048 9.84303 12.6268 9.81878 12.7405 9.77165C12.8543 9.72452 12.9576 9.65545 13.0447 9.56837L14.7257 7.88732C14.9014 7.7117 15.0002 7.47355 15.0004 7.22516C15.0006 6.97676 14.9023 6.73844 14.7269 6.56251ZM3.55542 12.6563L2.34371 11.444L6.32808 7.45958L7.5398 8.67189L3.55542 12.6563ZM9.51206 6.69845L8.20308 8.00802L6.99078 6.79689L8.30035 5.48732C8.34393 5.44378 8.3785 5.39208 8.40209 5.33518C8.42568 5.27827 8.43782 5.21728 8.43782 5.15567C8.43782 5.09407 8.42568 5.03308 8.40209 4.97617C8.3785 4.91927 8.34393 4.86757 8.30035 4.82403L5.52652 2.05079C6.32792 1.82509 7.17498 1.81691 7.9806 2.02709C8.78622 2.23727 9.52131 2.65823 10.1103 3.24669L12.7013 5.8547L11.0156 7.53868L10.1753 6.69845C10.1318 6.65487 10.0801 6.62029 10.0232 6.5967C9.9663 6.57311 9.90531 6.56097 9.84371 6.56097C9.78211 6.56097 9.72111 6.57311 9.6642 6.5967C9.6073 6.62029 9.5556 6.65487 9.51206 6.69845ZM12.3832 8.90509L11.68 8.20196L13.3593 6.51857L14.0625 7.22169L12.3832 8.90509Z" fill="#081023"/>
</g>
</svg>
