<svg width="15" height="15" viewBox="0 0 15 15" fill="none" xmlns="http://www.w3.org/2000/svg">
<g id="Hamburger">
<path id="Vector" opacity="0.2" d="M11.0156 10.3125L12.1874 9.88652V10.7812C12.1874 11.2785 11.9899 11.7554 11.6383 12.1071C11.2866 12.4587 10.8097 12.6562 10.3124 12.6562H4.68743C4.19015 12.6562 3.71324 12.4587 3.36161 12.1071C3.00998 11.7554 2.81243 11.2785 2.81243 10.7812V9.80098L3.98431 9.375L6.32806 10.3125L8.67181 9.375L11.0156 10.3125ZM12.6456 5.05547C12.2648 3.25488 10.1062 1.875 7.49993 1.875C4.89368 1.875 2.73509 3.25488 2.35423 5.05547C2.33907 5.12432 2.33963 5.1957 2.35588 5.2643C2.37213 5.3329 2.40364 5.39696 2.44807 5.45169C2.4925 5.50643 2.54871 5.55044 2.6125 5.58044C2.6763 5.61045 2.74604 5.62568 2.81653 5.625H12.1833C12.2538 5.62568 12.3236 5.61045 12.3874 5.58044C12.4512 5.55044 12.5074 5.50643 12.5518 5.45169C12.5962 5.39696 12.6277 5.3329 12.644 5.2643C12.6602 5.1957 12.6608 5.12432 12.6456 5.05547Z" fill="#081023"/>
<path id="Vector_2" d="M2.8166 6.09375H12.1834C12.3237 6.09446 12.4624 6.06366 12.5893 6.00362C12.7161 5.94358 12.8278 5.85583 12.9162 5.74685C13.0046 5.63786 13.0675 5.51042 13.1 5.37393C13.1326 5.23743 13.1341 5.09537 13.1045 4.9582C12.6691 2.90039 10.3125 1.40625 7.5 1.40625C4.6875 1.40625 2.33086 2.90039 1.89551 4.9582C1.86586 5.09537 1.86739 5.23743 1.89997 5.37393C1.93255 5.51042 1.99536 5.63786 2.08376 5.74685C2.17216 5.85583 2.2839 5.94358 2.41074 6.00362C2.53758 6.06366 2.67627 6.09446 2.8166 6.09375ZM7.5 2.34375C9.8332 2.34375 11.8482 3.55137 12.1834 5.15625H2.8166L2.8125 5.15215C3.15176 3.55137 5.1668 2.34375 7.5 2.34375ZM13.4332 8.93437L11.0232 9.81328L8.84766 8.93965C8.73594 8.89498 8.61133 8.89498 8.49961 8.93965L6.33164 9.80742L4.16016 8.93965C4.05325 8.89694 3.93437 8.89506 3.82617 8.93437L1.24805 9.87187C1.13908 9.91984 1.05245 10.0075 1.00574 10.117C0.959022 10.2265 0.955723 10.3496 0.99651 10.4615C1.0373 10.5733 1.11911 10.6655 1.22535 10.7192C1.33159 10.7729 1.4543 10.7842 1.56855 10.7508L2.34375 10.4701V10.7812C2.34375 11.4029 2.59068 11.999 3.03022 12.4385C3.46976 12.8781 4.0659 13.125 4.6875 13.125H10.3125C10.9341 13.125 11.5302 12.8781 11.9698 12.4385C12.4093 11.999 12.6562 11.4029 12.6562 10.7812V10.2146L13.7537 9.81563C13.8153 9.79762 13.8724 9.76717 13.9217 9.72618C13.971 9.68518 14.0114 9.6345 14.0404 9.57728C14.0693 9.52006 14.0862 9.45752 14.09 9.39351C14.0938 9.3295 14.0844 9.26539 14.0624 9.20515C14.0405 9.14491 14.0064 9.08982 13.9623 9.04328C13.9182 8.99674 13.865 8.95975 13.806 8.93459C13.747 8.90943 13.6835 8.89664 13.6194 8.897C13.5553 8.89737 13.4919 8.91089 13.4332 8.93672V8.93437ZM11.7188 10.7812C11.7188 11.1542 11.5706 11.5119 11.3069 11.7756C11.0431 12.0393 10.6855 12.1875 10.3125 12.1875H4.6875C4.31454 12.1875 3.95685 12.0393 3.69313 11.7756C3.42941 11.5119 3.28125 11.1542 3.28125 10.7812V10.1297L3.97676 9.87656L6.15234 10.7479C6.26406 10.7925 6.38867 10.7925 6.50039 10.7479L8.66836 9.88008L10.8363 10.7479C10.9432 10.7906 11.0621 10.7924 11.1703 10.7531L11.7135 10.5557L11.7188 10.7812ZM0.9375 7.5C0.9375 7.37568 0.986886 7.25645 1.07479 7.16854C1.1627 7.08064 1.28193 7.03125 1.40625 7.03125H13.5938C13.7181 7.03125 13.8373 7.08064 13.9252 7.16854C14.0131 7.25645 14.0625 7.37568 14.0625 7.5C14.0625 7.62432 14.0131 7.74355 13.9252 7.83146C13.8373 7.91936 13.7181 7.96875 13.5938 7.96875H1.40625C1.28193 7.96875 1.1627 7.91936 1.07479 7.83146C0.986886 7.74355 0.9375 7.62432 0.9375 7.5Z" fill="#081023"/>
</g>
</svg>
