<svg width="15" height="15" viewBox="0 0 15 15" fill="none" xmlns="http://www.w3.org/2000/svg">
<g id="BookOpenText">
<path id="Vector" opacity="0.2" d="M13.5938 3.75V11.25C13.5938 11.3743 13.5444 11.4935 13.4565 11.5815C13.3685 11.6694 13.2493 11.7188 13.125 11.7188H9.375C8.87772 11.7188 8.40081 11.9163 8.04918 12.2679C7.69754 12.6196 7.5 13.0965 7.5 13.5938V5.15625C7.5 4.65897 7.69754 4.18206 8.04918 3.83042C8.40081 3.47879 8.87772 3.28125 9.375 3.28125H13.125C13.2493 3.28125 13.3685 3.33064 13.4565 3.41854C13.5444 3.50645 13.5938 3.62568 13.5938 3.75Z" fill="#207CFD"/>
<path id="Vector_2" d="M13.125 2.8125H9.375C9.01114 2.8125 8.65229 2.89722 8.32684 3.05994C8.0014 3.22266 7.71831 3.45892 7.5 3.75C7.28169 3.45892 6.9986 3.22266 6.67316 3.05994C6.34771 2.89722 5.98886 2.8125 5.625 2.8125H1.875C1.62636 2.8125 1.3879 2.91127 1.21209 3.08709C1.03627 3.2629 0.9375 3.50136 0.9375 3.75V11.25C0.9375 11.4986 1.03627 11.7371 1.21209 11.9129C1.3879 12.0887 1.62636 12.1875 1.875 12.1875H5.625C5.99796 12.1875 6.35565 12.3357 6.61937 12.5994C6.88309 12.8631 7.03125 13.2208 7.03125 13.5938C7.03125 13.7181 7.08064 13.8373 7.16854 13.9252C7.25645 14.0131 7.37568 14.0625 7.5 14.0625C7.62432 14.0625 7.74355 14.0131 7.83146 13.9252C7.91936 13.8373 7.96875 13.7181 7.96875 13.5938C7.96875 13.2208 8.11691 12.8631 8.38063 12.5994C8.64435 12.3357 9.00204 12.1875 9.375 12.1875H13.125C13.3736 12.1875 13.6121 12.0887 13.7879 11.9129C13.9637 11.7371 14.0625 11.4986 14.0625 11.25V3.75C14.0625 3.50136 13.9637 3.2629 13.7879 3.08709C13.6121 2.91127 13.3736 2.8125 13.125 2.8125ZM5.625 11.25H1.875V3.75H5.625C5.99796 3.75 6.35565 3.89816 6.61937 4.16188C6.88309 4.4256 7.03125 4.78329 7.03125 5.15625V11.7188C6.62594 11.4138 6.13225 11.2492 5.625 11.25ZM13.125 11.25H9.375C8.86775 11.2492 8.37406 11.4138 7.96875 11.7188V5.15625C7.96875 4.78329 8.11691 4.4256 8.38063 4.16188C8.64435 3.89816 9.00204 3.75 9.375 3.75H13.125V11.25ZM9.375 5.15625H11.7188C11.8431 5.15625 11.9623 5.20564 12.0502 5.29354C12.1381 5.38145 12.1875 5.50068 12.1875 5.625C12.1875 5.74932 12.1381 5.86855 12.0502 5.95646C11.9623 6.04436 11.8431 6.09375 11.7188 6.09375H9.375C9.25068 6.09375 9.13145 6.04436 9.04354 5.95646C8.95564 5.86855 8.90625 5.74932 8.90625 5.625C8.90625 5.50068 8.95564 5.38145 9.04354 5.29354C9.13145 5.20564 9.25068 5.15625 9.375 5.15625ZM12.1875 7.5C12.1875 7.62432 12.1381 7.74355 12.0502 7.83146C11.9623 7.91936 11.8431 7.96875 11.7188 7.96875H9.375C9.25068 7.96875 9.13145 7.91936 9.04354 7.83146C8.95564 7.74355 8.90625 7.62432 8.90625 7.5C8.90625 7.37568 8.95564 7.25645 9.04354 7.16854C9.13145 7.08064 9.25068 7.03125 9.375 7.03125H11.7188C11.8431 7.03125 11.9623 7.08064 12.0502 7.16854C12.1381 7.25645 12.1875 7.37568 12.1875 7.5ZM12.1875 9.375C12.1875 9.49932 12.1381 9.61855 12.0502 9.70646C11.9623 9.79436 11.8431 9.84375 11.7188 9.84375H9.375C9.25068 9.84375 9.13145 9.79436 9.04354 9.70646C8.95564 9.61855 8.90625 9.49932 8.90625 9.375C8.90625 9.25068 8.95564 9.13145 9.04354 9.04354C9.13145 8.95564 9.25068 8.90625 9.375 8.90625H11.7188C11.8431 8.90625 11.9623 8.95564 12.0502 9.04354C12.1381 9.13145 12.1875 9.25068 12.1875 9.375Z" fill="#081023"/>
</g>
</svg>
