<svg width="73" height="73" viewBox="0 0 73 73" fill="none" xmlns="http://www.w3.org/2000/svg">
<path opacity="0.2" d="M36.4998 6.84369C30.4496 6.84369 24.6471 9.24714 20.369 13.5253C16.0908 17.8035 13.6873 23.6059 13.6873 29.6562C13.6873 50.1874 36.4998 66.1562 36.4998 66.1562C36.4998 66.1562 59.3123 50.1874 59.3123 29.6562C59.3123 23.6059 56.9089 17.8035 52.6307 13.5253C48.3525 9.24714 42.5501 6.84369 36.4998 6.84369ZM36.4998 38.7812C34.6951 38.7812 32.9308 38.246 31.4302 37.2433C29.9296 36.2407 28.7601 34.8156 28.0694 33.1482C27.3788 31.4808 27.1981 29.6461 27.5502 27.876C27.9022 26.1059 28.7713 24.48 30.0475 23.2038C31.3236 21.9277 32.9496 21.0586 34.7196 20.7065C36.4897 20.3544 38.3244 20.5351 39.9918 21.2258C41.6592 21.9164 43.0843 23.086 44.087 24.5866C45.0897 26.0872 45.6248 27.8514 45.6248 29.6562C45.6248 32.0763 44.6634 34.3973 42.9522 36.1085C41.2409 37.8198 38.9199 38.7812 36.4998 38.7812Z" fill="#207CFD"/>
<path d="M57.031 63.875H42.9272C45.2964 61.7595 47.5307 59.4976 49.617 57.1025C57.4445 48.1002 61.5935 38.6102 61.5935 29.6563C61.5935 23.001 58.9497 16.6183 54.2437 11.9123C49.5377 7.2063 43.1551 4.5625 36.4998 4.5625C29.8445 4.5625 23.4618 7.2063 18.7558 11.9123C14.0498 16.6183 11.406 23.001 11.406 29.6563C11.406 38.6102 15.5436 48.1002 23.3826 57.1025C25.4688 59.4976 27.7031 61.7595 30.0724 63.875H15.9685C15.3635 63.875 14.7833 64.1153 14.3554 64.5432C13.9276 64.971 13.6873 65.5512 13.6873 66.1563C13.6873 66.7613 13.9276 67.3415 14.3554 67.7693C14.7833 68.1972 15.3635 68.4375 15.9685 68.4375H57.031C57.6361 68.4375 58.2163 68.1972 58.6441 67.7693C59.0719 67.3415 59.3123 66.7613 59.3123 66.1563C59.3123 65.5512 59.0719 64.971 58.6441 64.5432C58.2163 64.1153 57.6361 63.875 57.031 63.875ZM15.9685 29.6563C15.9685 24.211 18.1316 18.9888 21.982 15.1385C25.8323 11.2881 31.0545 9.125 36.4998 9.125C41.945 9.125 47.1672 11.2881 51.0176 15.1385C54.8679 18.9888 57.031 24.211 57.031 29.6563C57.031 45.9757 41.2134 59.5977 36.4998 63.3047C31.7861 59.5977 15.9685 45.9757 15.9685 29.6563ZM47.906 29.6563C47.906 27.4003 47.2371 25.195 45.9837 23.3193C44.7304 21.4435 42.949 19.9816 40.8648 19.1182C38.7805 18.2549 36.4871 18.0291 34.2745 18.4692C32.0619 18.9093 30.0295 19.9956 28.4343 21.5908C26.8391 23.186 25.7528 25.2184 25.3127 27.431C24.8726 29.6436 25.0985 31.937 25.9618 34.0212C26.8251 36.1055 28.2871 37.8869 30.1628 39.1402C32.0385 40.3935 34.2438 41.0625 36.4998 41.0625C39.5249 41.0625 42.4261 39.8608 44.5652 37.7217C46.7043 35.5826 47.906 32.6814 47.906 29.6563ZM29.656 29.6563C29.656 28.3027 30.0574 26.9795 30.8094 25.8541C31.5614 24.7286 32.6303 23.8514 33.8808 23.3335C35.1313 22.8155 36.5074 22.6799 37.8349 22.944C39.1625 23.2081 40.3819 23.8599 41.339 24.817C42.2962 25.7741 42.948 26.9935 43.212 28.3211C43.4761 29.6487 43.3406 31.0247 42.8226 32.2752C42.3046 33.5258 41.4274 34.5946 40.302 35.3466C39.1765 36.0986 37.8533 36.5 36.4998 36.5C34.6847 36.5 32.944 35.779 31.6605 34.4955C30.3771 33.2121 29.656 31.4713 29.656 29.6563Z" fill="#081023"/>
</svg>
