<svg width="15" height="16" viewBox="0 0 15 16" fill="none" xmlns="http://www.w3.org/2000/svg">
<path opacity="0.2" d="M12.6562 6.125V12.6875C12.6562 12.8118 12.6068 12.931 12.5189 13.019C12.431 13.1069 12.3118 13.1562 12.1875 13.1562H2.81245C2.68813 13.1562 2.56891 13.1069 2.481 13.019C2.39309 12.931 2.3437 12.8118 2.3437 12.6875V6.125C2.3437 6.00068 2.39309 5.88145 2.481 5.79354C2.56891 5.70564 2.68813 5.65625 2.81245 5.65625H12.1875C12.3118 5.65625 12.431 5.70564 12.5189 5.79354C12.6068 5.88145 12.6562 6.00068 12.6562 6.125Z" fill="#207CFD"/>
<path d="M12.1875 5.1875H10.3125V3.78125C10.3125 3.03533 10.0162 2.31996 9.48878 1.79251C8.96134 1.26507 8.24597 0.96875 7.50005 0.96875C6.75412 0.96875 6.03875 1.26507 5.51131 1.79251C4.98386 2.31996 4.68755 3.03533 4.68755 3.78125V5.1875H2.81255C2.56391 5.1875 2.32545 5.28627 2.14963 5.46209C1.97382 5.6379 1.87505 5.87636 1.87505 6.125V12.6875C1.87505 12.9361 1.97382 13.1746 2.14963 13.3504C2.32545 13.5262 2.56391 13.625 2.81255 13.625H12.1875C12.4362 13.625 12.6746 13.5262 12.8505 13.3504C13.0263 13.1746 13.125 12.9361 13.125 12.6875V6.125C13.125 5.87636 13.0263 5.6379 12.8505 5.46209C12.6746 5.28627 12.4362 5.1875 12.1875 5.1875ZM5.62505 3.78125C5.62505 3.28397 5.82259 2.80706 6.17422 2.45542C6.52585 2.10379 7.00276 1.90625 7.50005 1.90625C7.99733 1.90625 8.47424 2.10379 8.82587 2.45542C9.1775 2.80706 9.37505 3.28397 9.37505 3.78125V5.1875H5.62505V3.78125ZM12.1875 12.6875H2.81255V6.125H12.1875V12.6875Z" fill="#081023"/>
</svg>
