<svg width="16" height="15" viewBox="0 0 16 15" fill="none" xmlns="http://www.w3.org/2000/svg">
<g id="Truck">
<path id="Vector" opacity="0.2" d="M15 7.03125V10.7812C15 10.9056 14.9473 11.0248 14.8536 11.1127C14.7598 11.2006 14.6326 11.25 14.5 11.25H13C13 11.025 12.9425 10.8033 12.8322 10.6035C12.7219 10.4037 12.562 10.2316 12.3661 10.1017C12.1702 9.97179 11.9438 9.88785 11.7061 9.85694C11.4684 9.82602 11.2263 9.84903 11 9.92402C10.7075 10.021 10.4543 10.2005 10.2752 10.438C10.0961 10.6755 9.99997 10.9592 10 11.25H6C6 10.877 5.84196 10.5194 5.56066 10.2556C5.27936 9.99191 4.89782 9.84375 4.5 9.84375C4.10217 9.84375 3.72064 9.99191 3.43934 10.2556C3.15804 10.5194 3 10.877 3 11.25H1.5C1.36739 11.25 1.24021 11.2006 1.14645 11.1127C1.05268 11.0248 1 10.9056 1 10.7812V8.4375H11V7.03125H15Z" fill="#207CFD"/>
<path id="Vector_2" d="M15.4637 6.85547L14.5887 4.80469C14.5145 4.63117 14.3864 4.48256 14.2211 4.37809C14.0557 4.27362 13.8607 4.21811 13.6613 4.21875H11.5V3.75C11.5 3.62568 11.4473 3.50645 11.3536 3.41854C11.2598 3.33064 11.1326 3.28125 11 3.28125H1.5C1.23478 3.28125 0.98043 3.38002 0.792893 3.55584C0.605357 3.73165 0.5 3.97011 0.5 4.21875V10.7812C0.5 11.0299 0.605357 11.2683 0.792893 11.4442C0.98043 11.62 1.23478 11.7188 1.5 11.7188H2.5625C2.67265 12.1221 2.92285 12.4795 3.27366 12.7348C3.62446 12.9901 4.05591 13.1287 4.5 13.1287C4.94409 13.1287 5.37554 12.9901 5.72635 12.7348C6.07715 12.4795 6.32735 12.1221 6.4375 11.7188H9.5625C9.67265 12.1221 9.92285 12.4795 10.2737 12.7348C10.6245 12.9901 11.0559 13.1287 11.5 13.1287C11.9441 13.1287 12.3755 12.9901 12.7263 12.7348C13.0771 12.4795 13.3273 12.1221 13.4375 11.7188H14.5C14.7652 11.7188 15.0196 11.62 15.2071 11.4442C15.3946 11.2683 15.5 11.0299 15.5 10.7812V7.03125C15.5002 6.97101 15.4879 6.91131 15.4637 6.85547ZM11.5 5.15625H13.6613L14.2612 6.5625H11.5V5.15625ZM1.5 4.21875H10.5V7.96875H1.5V4.21875ZM4.5 12.1875C4.30222 12.1875 4.10888 12.1325 3.94443 12.0295C3.77998 11.9265 3.65181 11.7801 3.57612 11.6088C3.50043 11.4375 3.48063 11.249 3.51921 11.0671C3.5578 10.8852 3.65304 10.7182 3.79289 10.5871C3.93275 10.456 4.11093 10.3667 4.30491 10.3305C4.49889 10.2943 4.69996 10.3129 4.88268 10.3839C5.06541 10.4548 5.22159 10.575 5.33147 10.7292C5.44135 10.8833 5.5 11.0646 5.5 11.25C5.5 11.4986 5.39464 11.7371 5.20711 11.9129C5.01957 12.0887 4.76522 12.1875 4.5 12.1875ZM9.5625 10.7812H6.4375C6.32735 10.3779 6.07715 10.0205 5.72635 9.76517C5.37554 9.50989 4.94409 9.37132 4.5 9.37132C4.05591 9.37132 3.62446 9.50989 3.27366 9.76517C2.92285 10.0205 2.67265 10.3779 2.5625 10.7812H1.5V8.90625H10.5V9.62754C10.2701 9.75213 10.0688 9.91826 9.9079 10.1163C9.74697 10.3143 9.62957 10.5404 9.5625 10.7812ZM11.5 12.1875C11.3022 12.1875 11.1089 12.1325 10.9444 12.0295C10.78 11.9265 10.6518 11.7801 10.5761 11.6088C10.5004 11.4375 10.4806 11.249 10.5192 11.0671C10.5578 10.8852 10.653 10.7182 10.7929 10.5871C10.9327 10.456 11.1109 10.3667 11.3049 10.3305C11.4989 10.2943 11.7 10.3129 11.8827 10.3839C12.0654 10.4548 12.2216 10.575 12.3315 10.7292C12.4414 10.8833 12.5 11.0646 12.5 11.25C12.5 11.4986 12.3946 11.7371 12.2071 11.9129C12.0196 12.0887 11.7652 12.1875 11.5 12.1875ZM14.5 10.7812H13.4375C13.326 10.3789 13.0754 10.0226 12.7247 9.76813C12.3741 9.51365 11.9434 9.37539 11.5 9.375V7.5H14.5V10.7812Z" fill="#081023"/>
</g>
</svg>
