<svg width="15" height="16" viewBox="0 0 15 16" fill="none" xmlns="http://www.w3.org/2000/svg">
<g id="Buildings">
<path id="Vector" opacity="0.2" d="M7.96875 2.37511V13.1564H2.34375V5.50109C2.3437 5.42389 2.36271 5.34788 2.3991 5.27981C2.43549 5.21173 2.48813 5.15369 2.55234 5.11085L7.23984 1.98605C7.31037 1.93899 7.39234 1.91195 7.47702 1.90779C7.56171 1.90363 7.64593 1.92252 7.72073 1.96245C7.79552 2.00237 7.85809 2.06183 7.90177 2.1345C7.94544 2.20717 7.96859 2.29033 7.96875 2.37511Z" fill="#207CFD"/>
<path id="Vector_2" d="M14.0625 12.6876H13.125V6.12512C13.125 5.87648 13.0262 5.63802 12.8504 5.46221C12.6746 5.28639 12.4361 5.18762 12.1875 5.18762H8.4375V2.37512C8.43761 2.20535 8.39162 2.03874 8.30444 1.89307C8.21726 1.7474 8.09215 1.62813 7.94249 1.54801C7.79282 1.46788 7.6242 1.42989 7.45463 1.43811C7.28506 1.44633 7.12091 1.50043 6.97969 1.59465L2.29219 4.71887C2.1636 4.80466 2.05822 4.92092 1.98543 5.0573C1.91264 5.19367 1.87471 5.34593 1.875 5.50051V12.6876H0.9375C0.81318 12.6876 0.693951 12.737 0.606044 12.8249C0.518136 12.9128 0.46875 13.0321 0.46875 13.1564C0.46875 13.2807 0.518136 13.3999 0.606044 13.4878C0.693951 13.5757 0.81318 13.6251 0.9375 13.6251H14.0625C14.1868 13.6251 14.306 13.5757 14.394 13.4878C14.4819 13.3999 14.5312 13.2807 14.5312 13.1564C14.5312 13.0321 14.4819 12.9128 14.394 12.8249C14.306 12.737 14.1868 12.6876 14.0625 12.6876ZM12.1875 6.12512V12.6876H8.4375V6.12512H12.1875ZM2.8125 5.50051L7.5 2.37512V12.6876H2.8125V5.50051ZM6.5625 7.06262V8.00012C6.5625 8.12444 6.51311 8.24367 6.42521 8.33158C6.3373 8.41949 6.21807 8.46887 6.09375 8.46887C5.96943 8.46887 5.8502 8.41949 5.76229 8.33158C5.67439 8.24367 5.625 8.12444 5.625 8.00012V7.06262C5.625 6.9383 5.67439 6.81907 5.76229 6.73116C5.8502 6.64326 5.96943 6.59387 6.09375 6.59387C6.21807 6.59387 6.3373 6.64326 6.42521 6.73116C6.51311 6.81907 6.5625 6.9383 6.5625 7.06262ZM4.6875 7.06262V8.00012C4.6875 8.12444 4.63811 8.24367 4.55021 8.33158C4.4623 8.41949 4.34307 8.46887 4.21875 8.46887C4.09443 8.46887 3.9752 8.41949 3.88729 8.33158C3.79939 8.24367 3.75 8.12444 3.75 8.00012V7.06262C3.75 6.9383 3.79939 6.81907 3.88729 6.73116C3.9752 6.64326 4.09443 6.59387 4.21875 6.59387C4.34307 6.59387 4.4623 6.64326 4.55021 6.73116C4.63811 6.81907 4.6875 6.9383 4.6875 7.06262ZM4.6875 10.3439V11.2814C4.6875 11.4057 4.63811 11.5249 4.55021 11.6128C4.4623 11.7007 4.34307 11.7501 4.21875 11.7501C4.09443 11.7501 3.9752 11.7007 3.88729 11.6128C3.79939 11.5249 3.75 11.4057 3.75 11.2814V10.3439C3.75 10.2196 3.79939 10.1003 3.88729 10.0124C3.9752 9.92451 4.09443 9.87512 4.21875 9.87512C4.34307 9.87512 4.4623 9.92451 4.55021 10.0124C4.63811 10.1003 4.6875 10.2196 4.6875 10.3439ZM6.5625 10.3439V11.2814C6.5625 11.4057 6.51311 11.5249 6.42521 11.6128C6.3373 11.7007 6.21807 11.7501 6.09375 11.7501C5.96943 11.7501 5.8502 11.7007 5.76229 11.6128C5.67439 11.5249 5.625 11.4057 5.625 11.2814V10.3439C5.625 10.2196 5.67439 10.1003 5.76229 10.0124C5.8502 9.92451 5.96943 9.87512 6.09375 9.87512C6.21807 9.87512 6.3373 9.92451 6.42521 10.0124C6.51311 10.1003 6.5625 10.2196 6.5625 10.3439Z" fill="#081023"/>
</g>
</svg>
