<svg width="16" height="15" viewBox="0 0 16 15" fill="none" xmlns="http://www.w3.org/2000/svg">
<path opacity="0.2" d="M9.875 4.21875V12.6563L6.125 10.7813V2.34375L9.875 4.21875Z" fill="#207CFD"/>
<path d="M13.9133 2.91153C13.8571 2.86778 13.7918 2.83739 13.7221 2.82267C13.6525 2.80794 13.5804 2.80928 13.5113 2.82657L9.92949 3.72188L6.33477 1.92422C6.23461 1.87427 6.11988 1.8618 6.01133 1.88907L2.26133 2.82657C2.15992 2.85192 2.06989 2.91043 2.00556 2.99282C1.94122 3.0752 1.90627 3.17673 1.90625 3.28125V11.7188C1.90626 11.79 1.9225 11.8603 1.95374 11.9243C1.98499 11.9883 2.0304 12.0443 2.08655 12.0882C2.14269 12.132 2.20809 12.1625 2.27776 12.1772C2.34744 12.192 2.41957 12.1907 2.48867 12.1734L6.07051 11.2781L9.66523 13.0758C9.73049 13.108 9.80224 13.1248 9.875 13.125C9.91332 13.125 9.9515 13.1203 9.98867 13.1109L13.7387 12.1734C13.8401 12.1481 13.9301 12.0896 13.9944 12.0072C14.0588 11.9248 14.0937 11.8233 14.0938 11.7188V3.28125C14.0938 3.20996 14.0775 3.1396 14.0462 3.07553C14.015 3.01146 13.9695 2.95537 13.9133 2.91153ZM6.59375 3.10196L9.40625 4.50821V11.8981L6.59375 10.4918V3.10196ZM2.84375 3.64747L5.65625 2.94434V10.415L2.84375 11.1182V3.64747ZM13.1563 11.3525L10.3438 12.0557V4.58497L13.1563 3.88184V11.3525Z" fill="#081023"/>
</svg>
