<svg width="15" height="15" viewBox="0 0 15 15" fill="none" xmlns="http://www.w3.org/2000/svg">
<g id="ShoppingCart">
<path id="Vector" opacity="0.2" d="M12.6562 3.75L11.9437 7.66758C11.9045 7.88359 11.7907 8.07898 11.6222 8.21968C11.4536 8.36038 11.241 8.43747 11.0215 8.4375H3.66504L2.8125 3.75H12.6562Z" fill="#081023"/>
<path id="Vector_2" d="M13.016 3.44941C12.972 3.39676 12.917 3.35441 12.8548 3.32535C12.7927 3.29629 12.7249 3.28124 12.6562 3.28125H3.20391L2.91738 1.70742C2.87814 1.49141 2.76432 1.29602 2.59578 1.15532C2.42724 1.01462 2.21467 0.937532 1.99512 0.9375H0.9375C0.81318 0.9375 0.693951 0.986886 0.606044 1.07479C0.518136 1.1627 0.46875 1.28193 0.46875 1.40625C0.46875 1.53057 0.518136 1.6498 0.606044 1.73771C0.693951 1.82561 0.81318 1.875 0.9375 1.875H1.99219L3.48984 10.0951C3.53396 10.3389 3.6417 10.5667 3.80215 10.7555C3.58069 10.9623 3.42085 11.2265 3.34035 11.5186C3.25984 11.8107 3.26182 12.1195 3.34607 12.4106C3.43032 12.7016 3.59354 12.9637 3.81763 13.1677C4.04173 13.3717 4.31794 13.5096 4.61564 13.5662C4.91334 13.6228 5.2209 13.5958 5.50421 13.4883C5.78752 13.3808 6.03551 13.1969 6.22069 12.957C6.40586 12.7171 6.52099 12.4307 6.55329 12.1293C6.5856 11.828 6.53382 11.5237 6.40371 11.25H9.06504C8.96017 11.4695 8.90591 11.7098 8.90625 11.9531C8.90625 12.2776 9.00247 12.5948 9.18274 12.8646C9.36302 13.1344 9.61925 13.3447 9.91903 13.4689C10.2188 13.593 10.5487 13.6255 10.8669 13.5622C11.1852 13.4989 11.4775 13.3427 11.707 13.1132C11.9364 12.8838 12.0927 12.5914 12.156 12.2732C12.2193 11.9549 12.1868 11.6251 12.0626 11.3253C11.9384 11.0255 11.7282 10.7693 11.4584 10.589C11.1886 10.4087 10.8714 10.3125 10.5469 10.3125H4.87324C4.76347 10.3125 4.65718 10.2739 4.57291 10.2036C4.48864 10.1332 4.43173 10.0355 4.41211 9.92754L4.22637 8.90625H11.0232C11.3526 8.9062 11.6714 8.79057 11.9242 8.57952C12.1771 8.36847 12.3478 8.07539 12.4066 7.75137L13.1191 3.83379C13.1312 3.76608 13.1282 3.69654 13.1104 3.63011C13.0926 3.56369 13.0604 3.50199 13.016 3.44941ZM5.625 11.9531C5.625 12.0922 5.58376 12.2281 5.5065 12.3438C5.42924 12.4594 5.31943 12.5495 5.19095 12.6027C5.06247 12.6559 4.92109 12.6699 4.7847 12.6427C4.64831 12.6156 4.52302 12.5486 4.42469 12.4503C4.32636 12.352 4.25939 12.2267 4.23226 12.0903C4.20513 11.9539 4.21905 11.8125 4.27227 11.6841C4.32549 11.5556 4.41561 11.4458 4.53124 11.3685C4.64687 11.2912 4.78281 11.25 4.92187 11.25C5.10836 11.25 5.2872 11.3241 5.41906 11.4559C5.55092 11.5878 5.625 11.7666 5.625 11.9531ZM11.25 11.9531C11.25 12.0922 11.2088 12.2281 11.1315 12.3438C11.0542 12.4594 10.9444 12.5495 10.8159 12.6027C10.6875 12.6559 10.5461 12.6699 10.4097 12.6427C10.2733 12.6156 10.148 12.5486 10.0497 12.4503C9.95136 12.352 9.88439 12.2267 9.85726 12.0903C9.83013 11.9539 9.84405 11.8125 9.89727 11.6841C9.95049 11.5556 10.0406 11.4458 10.1562 11.3685C10.2719 11.2912 10.4078 11.25 10.5469 11.25C10.7334 11.25 10.9122 11.3241 11.0441 11.4559C11.1759 11.5878 11.25 11.7666 11.25 11.9531ZM11.4844 7.58379C11.4647 7.69209 11.4075 7.79002 11.3229 7.86041C11.2383 7.93079 11.1316 7.96915 11.0215 7.96875H4.05586L3.37441 4.21875H12.0943L11.4844 7.58379Z" fill="#081023"/>
</g>
</svg>
