<svg width="73" height="73" viewBox="0 0 73 73" fill="none" xmlns="http://www.w3.org/2000/svg">
<path opacity="0.2" d="M61.5936 13.6874V29.5905C61.5936 49.7882 50.3584 66.1561 36.4998 66.1561C22.6412 66.1561 11.4061 49.7882 11.4061 29.5962V13.6874C11.4056 13.3164 11.4956 12.951 11.6682 12.6226C11.8409 12.2943 12.091 12.0131 12.3969 11.8032C12.7028 11.5934 13.0552 11.4613 13.4237 11.4185C13.7922 11.3756 14.1655 11.4233 14.5114 11.5573C18.8201 13.234 27.121 15.8859 36.4998 15.8859C45.8786 15.8859 54.1795 13.234 58.4882 11.563C58.8337 11.4291 59.2065 11.3814 59.5745 11.424C59.9425 11.4666 60.2946 11.5982 60.6004 11.8073C60.9061 12.0165 61.1563 12.297 61.3294 12.6246C61.5024 12.9521 61.5931 13.3169 61.5936 13.6874Z" fill="#207CFD"/>
<path d="M45.2428 53.732C44.9077 54.2356 44.3863 54.5855 43.7933 54.7047C43.2003 54.824 42.5842 54.7028 42.0805 54.3679C40.2269 53.136 38.7812 52.4687 36.4999 52.4687C34.2187 52.4687 32.7729 53.136 30.9194 54.3679C30.4157 54.6904 29.8055 54.8022 29.2201 54.6792C28.6348 54.5561 28.1212 54.2081 27.7899 53.7101C27.4587 53.2121 27.3362 52.6039 27.449 52.0165C27.5618 51.4291 27.9008 50.9095 28.3929 50.5696C30.7968 48.9699 33.0952 47.9062 36.4999 47.9062C39.9047 47.9062 42.2031 48.9699 44.6069 50.5696C45.1105 50.9047 45.4604 51.4261 45.5797 52.0191C45.6989 52.6121 45.5778 53.2283 45.2428 53.732ZM53.9914 32.5078C53.7683 32.3077 53.5079 32.1536 53.2252 32.0542C52.9424 31.9549 52.6429 31.9121 52.3437 31.9286C52.0444 31.945 51.7514 32.0202 51.4812 32.1499C51.211 32.2796 50.9691 32.4613 50.7692 32.6846C50.0049 33.5401 48.2455 34.2073 46.777 34.2073C45.3084 34.2073 43.5376 33.5372 42.7848 32.6846C42.5843 32.4592 42.3413 32.2754 42.0698 32.1439C41.7982 32.0124 41.5034 31.9356 41.2022 31.918C40.901 31.9004 40.5993 31.9423 40.3143 32.0413C40.0293 32.1403 39.7666 32.2944 39.5411 32.495C39.3157 32.6955 39.132 32.9385 39.0004 33.21C38.8689 33.4815 38.7921 33.7763 38.7745 34.0775C38.7569 34.3787 38.7988 34.6804 38.8978 34.9655C38.9968 35.2505 39.151 35.5132 39.3515 35.7386C40.9797 37.5579 43.9539 38.7812 46.7656 38.7812C49.5772 38.7812 52.54 37.5579 54.1796 35.7386C54.3803 35.5146 54.5347 35.253 54.6339 34.9691C54.7331 34.6851 54.7751 34.3843 54.7576 34.0841C54.7401 33.7838 54.6634 33.4899 54.5319 33.2194C54.4004 32.9489 54.2168 32.707 53.9914 32.5078ZM63.8749 13.6875V29.5906C63.8749 39.8106 61.1232 49.4518 56.1244 56.7318C50.946 64.2771 43.9767 68.4232 36.4999 68.4232C29.0231 68.4232 22.0539 64.2685 16.8755 56.7318C11.8767 49.4575 9.12494 39.8164 9.12494 29.5964V13.6875C9.1252 12.946 9.30619 12.2157 9.65224 11.5599C9.99829 10.904 10.499 10.3425 11.1109 9.92371C11.7229 9.50496 12.4277 9.24169 13.1644 9.15667C13.901 9.07166 14.6472 9.16747 15.3385 9.4358C19.3449 10.9928 27.4263 13.6048 36.4999 13.6048C45.5736 13.6048 53.6521 10.9928 57.6614 9.4358C58.3527 9.16747 59.0989 9.07166 59.8355 9.15667C60.5722 9.24169 61.277 9.50496 61.8889 9.92371C62.5009 10.3425 63.0016 10.904 63.3476 11.5599C63.6937 12.2157 63.8747 12.946 63.8749 13.6875ZM59.3124 13.6875C55.0066 15.3671 46.3179 18.173 36.4999 18.173C26.682 18.173 17.9933 15.3614 13.6874 13.6875V29.5964C13.6874 38.9039 16.1569 47.6268 20.6367 54.1569C24.9397 60.4246 30.5715 63.875 36.4999 63.875C42.4283 63.875 48.0602 60.4246 52.3632 54.1569C56.843 47.6211 59.3124 38.9039 59.3124 29.5964V13.6875ZM33.6484 35.7329C33.8478 35.5082 34.001 35.2465 34.0992 34.9626C34.1975 34.6787 34.2388 34.3782 34.221 34.0784C34.2031 33.7785 34.1263 33.4851 33.9951 33.2148C33.8638 32.9446 33.6806 32.7029 33.4559 32.5035C33.2312 32.3041 32.9695 32.1509 32.6856 32.0527C32.4017 31.9544 32.1012 31.9131 31.8013 31.9309C31.5015 31.9488 31.208 32.0256 30.9378 32.1568C30.6676 32.2881 30.4259 32.4713 30.2265 32.696C29.4623 33.5515 27.7029 34.2187 26.2343 34.2187C24.7658 34.2187 22.9949 33.5486 22.2421 32.696C22.0423 32.4713 21.8003 32.2882 21.5297 32.1571C21.2592 32.0259 20.9654 31.9494 20.6653 31.9318C20.3651 31.9142 20.0645 31.9558 19.7804 32.0544C19.4964 32.153 19.2346 32.3066 19.0099 32.5064C18.7852 32.7062 18.6021 32.9482 18.4709 33.2188C18.3398 33.4893 18.2633 33.7831 18.2456 34.0832C18.228 34.3834 18.2697 34.684 18.3683 34.9681C18.4669 35.2521 18.6205 35.5139 18.8203 35.7386C20.4599 37.5579 23.4341 38.7812 26.2343 38.7812C29.0345 38.7812 32.0087 37.5579 33.6484 35.7386V35.7329Z" fill="#081023"/>
</svg>
