<svg width="22" height="22" viewBox="0 0 22 22" fill="none" xmlns="http://www.w3.org/2000/svg">
<g id="Medal">
<path id="Vector" opacity="0.2" d="M15.125 8.25C15.125 9.06585 14.8831 9.86337 14.4298 10.5417C13.9766 11.2201 13.3323 11.7488 12.5786 12.061C11.8248 12.3732 10.9954 12.4549 10.1953 12.2957C9.39508 12.1366 8.66008 11.7437 8.08319 11.1668C7.50629 10.5899 7.11343 9.85492 6.95426 9.05475C6.7951 8.25458 6.87679 7.42518 7.189 6.67143C7.50121 5.91769 8.02992 5.27345 8.70827 4.82019C9.38663 4.36693 10.1842 4.125 11 4.125C12.094 4.125 13.1432 4.5596 13.9168 5.33318C14.6904 6.10677 15.125 7.15598 15.125 8.25Z" fill="#DEDEDE"/>
<path id="Vector_2" d="M18.5625 8.24997C18.5633 6.97552 18.2419 5.72155 17.6283 4.60453C17.0148 3.4875 16.1288 2.54366 15.0528 1.86067C13.9769 1.17767 12.7457 0.777679 11.4738 0.697839C10.2018 0.618 8.93032 0.860904 7.77737 1.40399C6.62443 1.94708 5.62743 2.77273 4.87898 3.80426C4.13053 4.83579 3.65492 6.03974 3.4963 7.30428C3.33769 8.56882 3.50122 9.85294 3.97172 11.0374C4.44221 12.2218 5.2044 13.2681 6.1875 14.0791V20.625C6.18742 20.7422 6.21732 20.8575 6.27437 20.96C6.33142 21.0624 6.41372 21.1486 6.51344 21.2102C6.61317 21.2719 6.72701 21.307 6.84414 21.3123C6.96127 21.3175 7.0778 21.2928 7.18266 21.2403L11 19.3359L14.8182 21.2446C14.9139 21.2904 15.0189 21.3136 15.125 21.3125C15.3073 21.3125 15.4822 21.24 15.6111 21.1111C15.7401 20.9822 15.8125 20.8073 15.8125 20.625V14.0791C16.6727 13.3707 17.3654 12.4806 17.8408 11.4728C18.3163 10.4649 18.5627 9.36433 18.5625 8.24997ZM4.8125 8.24997C4.8125 7.0262 5.17539 5.82991 5.85528 4.81238C6.53517 3.79485 7.50153 3.00179 8.63215 2.53347C9.76276 2.06515 11.0069 1.94262 12.2071 2.18137C13.4074 2.42011 14.5099 3.00941 15.3752 3.87475C16.2406 4.74009 16.8299 5.8426 17.0686 7.04285C17.3074 8.24311 17.1848 9.48721 16.7165 10.6178C16.2482 11.7484 15.4551 12.7148 14.4376 13.3947C13.4201 14.0746 12.2238 14.4375 11 14.4375C9.35953 14.4357 7.78678 13.7832 6.62679 12.6232C5.4668 11.4632 4.81432 9.89044 4.8125 8.24997ZM14.4375 19.5129L11.3068 17.948C11.2113 17.9002 11.1059 17.8753 10.9991 17.8753C10.8923 17.8753 10.787 17.9002 10.6915 17.948L7.5625 19.5129V14.9849C8.62672 15.5288 9.80483 15.8125 11 15.8125C12.1952 15.8125 13.3733 15.5288 14.4375 14.9849V19.5129ZM11 13.0625C11.9518 13.0625 12.8823 12.7802 13.6737 12.2514C14.4651 11.7226 15.0819 10.971 15.4462 10.0916C15.8104 9.21227 15.9057 8.24464 15.72 7.3111C15.5343 6.37757 15.076 5.52006 14.403 4.84702C13.7299 4.17398 12.8724 3.71564 11.9389 3.52995C11.0053 3.34425 10.0377 3.43956 9.15834 3.8038C8.27897 4.16805 7.52736 4.78488 6.99855 5.57629C6.46975 6.3677 6.1875 7.29815 6.1875 8.24997C6.18887 9.52591 6.69633 10.7492 7.59856 11.6514C8.50078 12.5536 9.72407 13.0611 11 13.0625ZM11 4.81247C11.6799 4.81247 12.3445 5.01408 12.9098 5.3918C13.4751 5.76952 13.9157 6.30638 14.1758 6.9345C14.436 7.56262 14.5041 8.25379 14.3715 8.9206C14.2388 9.58741 13.9114 10.1999 13.4307 10.6807C12.9499 11.1614 12.3374 11.4888 11.6706 11.6214C11.0038 11.7541 10.3126 11.686 9.68453 11.4258C9.05641 11.1656 8.51954 10.725 8.14182 10.1597C7.76411 9.59445 7.5625 8.92985 7.5625 8.24997C7.5625 7.33829 7.92466 6.46395 8.56932 5.81929C9.21398 5.17464 10.0883 4.81247 11 4.81247Z" fill="#081023"/>
</g>
</svg>
