<svg width="15" height="15" viewBox="0 0 15 15" fill="none" xmlns="http://www.w3.org/2000/svg">
<g id="MinusCircle">
<path id="Vector" opacity="1.0" d="M13.125 7.5C13.125 8.61252 12.7951 9.70006 12.177 10.6251C11.5589 11.5501 10.6804 12.2711 9.6526 12.6968C8.62476 13.1226 7.49376 13.234 6.40262 13.0169C5.31148 12.7999 4.3092 12.2641 3.52253 11.4775C2.73586 10.6908 2.20013 9.68853 1.98309 8.59738C1.76604 7.50624 1.87744 6.37524 2.30318 5.34741C2.72892 4.31957 3.44989 3.44107 4.37492 2.82298C5.29995 2.2049 6.38748 1.875 7.5 1.875C8.99185 1.875 10.4226 2.46763 11.4775 3.52252C12.5324 4.57742 13.125 6.00816 13.125 7.5Z" fill="#FFFFFF"/>
<path id="Vector_2" d="M10.3125 7.5C10.3125 7.62432 10.2631 7.74355 10.1752 7.83146C10.0873 7.91936 9.96807 7.96875 9.84375 7.96875H5.15625C5.03193 7.96875 4.9127 7.91936 4.8248 7.83146C4.73689 7.74355 4.6875 7.62432 4.6875 7.5C4.6875 7.37568 4.73689 7.25645 4.8248 7.16854C4.9127 7.08064 5.03193 7.03125 5.15625 7.03125H9.84375C9.96807 7.03125 10.0873 7.08064 10.1752 7.16854C10.2631 7.25645 10.3125 7.37568 10.3125 7.5ZM13.5938 7.5C13.5938 8.70523 13.2364 9.88339 12.5668 10.8855C11.8972 11.8876 10.9455 12.6687 9.83198 13.1299C8.71849 13.5911 7.49324 13.7118 6.31117 13.4767C5.1291 13.2415 4.0433 12.6612 3.19107 11.8089C2.33884 10.9567 1.75847 9.8709 1.52334 8.68883C1.28821 7.50676 1.40889 6.28151 1.87011 5.16802C2.33133 4.05454 3.11238 3.10282 4.1145 2.43323C5.11661 1.76364 6.29477 1.40625 7.5 1.40625C9.11564 1.40796 10.6646 2.05052 11.807 3.19295C12.9495 4.33538 13.592 5.88436 13.5938 7.5ZM12.6563 7.5C12.6563 6.48019 12.3538 5.48328 11.7873 4.63534C11.2207 3.7874 10.4154 3.12651 9.47321 2.73625C8.53103 2.34598 7.49428 2.24387 6.49407 2.44283C5.49385 2.64178 4.5751 3.13287 3.85398 3.85398C3.13287 4.5751 2.64178 5.49385 2.44283 6.49407C2.24387 7.49428 2.34598 8.53103 2.73625 9.47321C3.12651 10.4154 3.7874 11.2207 4.63534 11.7873C5.48328 12.3538 6.48019 12.6562 7.5 12.6562C8.86705 12.6547 10.1777 12.111 11.1443 11.1443C12.111 10.1777 12.6547 8.86705 12.6563 7.5Z" fill="#D13232"/>
</g>
</svg>
