<svg width="15" height="15" viewBox="0 0 15 15" fill="none" xmlns="http://www.w3.org/2000/svg">
<g id="Popcorn">
<path id="Vector" opacity="0.2" d="M5.15625 5.625L6.09375 12.6562H4.12148C4.01579 12.6563 3.91318 12.6206 3.83032 12.555C3.74746 12.4893 3.68922 12.3976 3.66504 12.2947L1.875 4.6875L5.15625 5.625ZM9.84375 5.625L8.90625 12.6562H10.8785C10.9842 12.6563 11.0868 12.6206 11.1697 12.555C11.2525 12.4893 11.3108 12.3976 11.335 12.2947L13.125 4.6875L9.84375 5.625Z" fill="#207CFD"/>
<path id="Vector_2" d="M13.4484 4.34822C13.3934 4.29647 13.3267 4.25879 13.2539 4.23838C13.1812 4.21798 13.1046 4.21546 13.0307 4.23104C12.9396 3.90383 12.7849 3.59784 12.5752 3.33063C12.3656 3.06343 12.1052 2.84027 11.8091 2.67399C11.513 2.50771 11.1869 2.40158 10.8496 2.3617C10.5123 2.32181 10.1705 2.34896 9.84374 2.44158C9.63808 1.9928 9.30789 1.61249 8.89242 1.34586C8.47695 1.07924 7.99366 0.9375 7.49999 0.9375C7.00633 0.9375 6.52304 1.07924 6.10756 1.34586C5.69209 1.61249 5.3619 1.9928 5.15624 2.44158C4.82957 2.34884 4.48779 2.32155 4.15054 2.36128C3.81328 2.401 3.4872 2.50697 3.19102 2.67308C2.89483 2.83919 2.63439 3.06218 2.42463 3.32924C2.21488 3.5963 2.05995 3.90217 1.96874 4.22928C1.89174 4.21348 1.812 4.21729 1.73686 4.24038C1.66171 4.26346 1.59358 4.30507 1.53873 4.36138C1.48388 4.41769 1.44408 4.48689 1.42297 4.56261C1.40187 4.63833 1.40014 4.71815 1.41796 4.79471L3.20859 12.4025C3.25706 12.6082 3.3736 12.7915 3.5393 12.9226C3.70501 13.0538 3.91016 13.1251 4.12148 13.125H10.8785C11.0898 13.1251 11.295 13.0538 11.4607 12.9226C11.6264 12.7915 11.7429 12.6082 11.7914 12.4025L13.5814 4.79471C13.6001 4.71515 13.5977 4.63209 13.5743 4.55377C13.551 4.47545 13.5076 4.40459 13.4484 4.34822ZM4.45312 3.28123C4.72102 3.28048 4.98493 3.34611 5.22128 3.47225C5.28509 3.50609 5.35585 3.52474 5.42805 3.52672C5.50026 3.5287 5.57194 3.51398 5.63751 3.48369C5.70308 3.4534 5.76076 3.40837 5.80605 3.35211C5.85135 3.29585 5.88303 3.22988 5.89863 3.15936C5.97976 2.79515 6.18263 2.46948 6.47375 2.23608C6.76487 2.00268 7.12686 1.87549 7.49999 1.87549C7.87313 1.87549 8.23511 2.00268 8.52624 2.23608C8.81736 2.46948 9.02022 2.79515 9.10136 3.15936C9.11696 3.22988 9.14864 3.29585 9.19393 3.35211C9.23923 3.40837 9.29691 3.4534 9.36248 3.48369C9.42805 3.51398 9.49973 3.5287 9.57193 3.52672C9.64413 3.52474 9.7149 3.50609 9.7787 3.47225C9.99568 3.35715 10.2357 3.29225 10.4811 3.28231C10.7266 3.27238 10.9711 3.31767 11.1966 3.41485C11.4222 3.51203 11.6231 3.65861 11.7844 3.84379C11.9458 4.02896 12.0635 4.248 12.1289 4.48475L9.86952 5.12928L7.84863 4.32069C7.62519 4.23135 7.37597 4.23135 7.15253 4.32069L5.13105 5.13045L2.87109 4.48475C2.96675 4.13866 3.17331 3.83352 3.45908 3.61612C3.74485 3.39872 4.09405 3.28108 4.45312 3.28123ZM9.33105 5.9244L8.49609 12.1875H6.5039L5.66894 5.9244L7.49999 5.19256L9.33105 5.9244ZM2.51425 5.35779L4.73202 5.99119L5.5582 12.1875H4.12148L2.51425 5.35779ZM10.8785 12.1875H9.44179L10.268 5.99119L12.4857 5.35779L10.8785 12.1875Z" fill="#081023"/>
</g>
</svg>
