<svg width="15" height="15" viewBox="0 0 15 15" fill="none" xmlns="http://www.w3.org/2000/svg">
<g id="MusicNotes">
<path id="Vector" opacity="0.2" d="M12.1875 10.0781C12.1875 10.4026 12.0913 10.7198 11.911 10.9896C11.7307 11.2594 11.4745 11.4697 11.1747 11.5939C10.8749 11.718 10.5451 11.7505 10.2268 11.6872C9.90856 11.6239 9.61622 11.4677 9.38678 11.2382C9.15733 11.0088 9.00108 10.7164 8.93777 10.3982C8.87447 10.0799 8.90696 9.75007 9.03114 9.45029C9.15531 9.1505 9.36559 8.89427 9.63539 8.714C9.90519 8.53372 10.2224 8.4375 10.5469 8.4375C10.982 8.4375 11.3993 8.61035 11.707 8.91803C12.0146 9.2257 12.1875 9.643 12.1875 10.0781ZM3.04688 10.3125C2.72239 10.3125 2.40519 10.4087 2.13539 10.589C1.86559 10.7693 1.65531 11.0255 1.53114 11.3253C1.40696 11.6251 1.37447 11.9549 1.43777 12.2732C1.50108 12.5914 1.65733 12.8838 1.88678 13.1132C2.11622 13.3427 2.40856 13.4989 2.72681 13.5622C3.04506 13.6255 3.37493 13.593 3.67472 13.4689C3.9745 13.3447 4.23073 13.1344 4.41101 12.8646C4.59128 12.5948 4.6875 12.2776 4.6875 11.9531C4.6875 11.518 4.51465 11.1007 4.20697 10.793C3.8993 10.4854 3.482 10.3125 3.04688 10.3125Z" fill="#081023"/>
<path id="Vector_2" d="M12.4758 1.50528C12.4196 1.46152 12.3543 1.43113 12.2846 1.41641C12.215 1.40169 12.1429 1.40303 12.0738 1.42031L4.57383 3.29531C4.47242 3.32066 4.38239 3.37918 4.31806 3.46156C4.25372 3.54395 4.21877 3.64547 4.21875 3.75V10.2C3.82772 9.93873 3.36059 9.81563 2.89157 9.85025C2.42256 9.88488 1.97857 10.0752 1.63014 10.3911C1.28172 10.707 1.04884 11.1302 0.968504 11.5936C0.888172 12.057 0.964995 12.5339 1.18677 12.9486C1.40854 13.3633 1.76254 13.692 2.19253 13.8825C2.62252 14.073 3.10383 14.1143 3.55999 13.9999C4.01615 13.8855 4.421 13.622 4.71022 13.2511C4.99943 12.8803 5.15643 12.4234 5.15625 11.9531V6.92871L11.7188 5.28809V8.325C11.3277 8.06373 10.8606 7.94063 10.3916 7.97525C9.92256 8.00988 9.47857 8.20025 9.13014 8.51611C8.78172 8.83197 8.54884 9.25521 8.4685 9.71859C8.38817 10.182 8.46499 10.6589 8.68677 11.0736C8.90854 11.4883 9.26254 11.817 9.69253 12.0075C10.1225 12.198 10.6038 12.2393 11.06 12.1249C11.5162 12.0105 11.921 11.747 12.2102 11.3761C12.4994 11.0053 12.6564 10.5484 12.6563 10.0781V1.875C12.6563 1.80371 12.64 1.73335 12.6087 1.66928C12.5775 1.60521 12.532 1.54912 12.4758 1.50528ZM3.04688 13.125C2.8151 13.125 2.58853 13.0563 2.39582 12.9275C2.20311 12.7987 2.0529 12.6157 1.96421 12.4016C1.87551 12.1875 1.8523 11.9518 1.89752 11.7245C1.94274 11.4972 2.05435 11.2884 2.21824 11.1245C2.38213 10.9606 2.59093 10.849 2.81826 10.8038C3.04558 10.7586 3.2812 10.7818 3.49534 10.8705C3.70947 10.9592 3.89249 11.1094 4.02126 11.3021C4.15002 11.4948 4.21875 11.7214 4.21875 11.9531C4.21875 12.2639 4.09529 12.562 3.87552 12.7818C3.65575 13.0015 3.35768 13.125 3.04688 13.125ZM5.15625 5.96192V4.11621L11.7188 2.47559V4.32129L5.15625 5.96192ZM10.5469 11.25C10.3151 11.25 10.0885 11.1813 9.89582 11.0525C9.7031 10.9237 9.5529 10.7407 9.46421 10.5266C9.37551 10.3125 9.3523 10.0768 9.39752 9.84951C9.44274 9.62218 9.55435 9.41338 9.71824 9.24949C9.88213 9.0856 10.0909 8.97399 10.3183 8.92877C10.5456 8.88355 10.7812 8.90676 10.9953 8.99546C11.2095 9.08415 11.3925 9.23435 11.5213 9.42707C11.65 9.61978 11.7188 9.84635 11.7188 10.0781C11.7188 10.232 11.6884 10.3844 11.6295 10.5266C11.5707 10.6688 11.4843 10.7979 11.3755 10.9068C11.2667 11.0156 11.1375 11.1019 10.9953 11.1608C10.8532 11.2197 10.7008 11.25 10.5469 11.25Z" fill="#081023"/>
</g>
</svg>
