<svg width="36" height="37" viewBox="0 0 36 37" fill="none" xmlns="http://www.w3.org/2000/svg">
<path opacity="0.2" d="M30.2392 6.2302V30.7697C30.2392 31.3614 30.0042 31.9288 29.5858 32.3472C29.1675 32.7656 28.6 33.0006 28.0084 33.0006H7.93057C7.33891 33.0006 6.77148 32.7656 6.35311 32.3472C5.93474 31.9288 5.69971 31.3614 5.69971 30.7697V6.2302C5.69971 5.63853 5.93474 5.0711 6.35311 4.65273C6.77148 4.23437 7.33891 3.99933 7.93057 3.99933H28.0084C28.6 3.99933 29.1675 4.23437 29.5858 4.65273C30.0042 5.0711 30.2392 5.63853 30.2392 6.2302Z" fill="#207CFD"/>
<path d="M24.6621 29.6544C24.6621 29.9502 24.5445 30.2339 24.3354 30.4431C24.1262 30.6523 23.8425 30.7698 23.5466 30.7698H12.3923C12.1851 30.7698 11.9821 30.7121 11.8059 30.6032C11.6297 30.4943 11.4873 30.3385 11.3946 30.1532C11.302 29.9679 11.2628 29.7605 11.2814 29.5542C11.3 29.3479 11.3757 29.1508 11.4999 28.9851L21.5305 15.611C21.8884 15.1436 22.1503 14.61 22.3011 14.0409C22.4519 13.4718 22.4885 12.8785 22.4089 12.2952C22.3293 11.7118 22.1351 11.15 21.8374 10.6421C21.5397 10.1342 21.1444 9.69023 20.6743 9.33578C20.2043 8.98134 19.6687 8.72343 19.0985 8.57692C18.5283 8.43042 17.9347 8.39821 17.352 8.48215C16.7693 8.5661 16.2089 8.76454 15.7032 9.06603C15.1976 9.36753 14.7566 9.76612 14.4056 10.2388C14.1959 10.5178 14.019 10.82 13.8786 11.1396C13.7601 11.4106 13.5387 11.6235 13.2633 11.7313C12.9878 11.8392 12.6808 11.8332 12.4097 11.7147C12.1387 11.5962 11.9258 11.3748 11.8179 11.0994C11.7101 10.8239 11.7161 10.5169 11.8346 10.2458C12.2128 9.38011 12.7699 8.60429 13.4695 7.96937C14.169 7.33444 14.995 6.85481 15.8932 6.562C16.7913 6.2692 17.7413 6.16986 18.6806 6.27053C19.62 6.37119 20.5273 6.66958 21.3431 7.14606C22.1588 7.62254 22.8644 8.26632 23.4135 9.03505C23.9626 9.80379 24.3427 10.6801 24.5289 11.6062C24.715 12.5324 24.703 13.4875 24.4936 14.4087C24.2841 15.3299 23.8821 16.1963 23.3138 16.951L14.6232 28.5389H23.5466C23.8425 28.5389 24.1262 28.6564 24.3354 28.8656C24.5445 29.0748 24.6621 29.3585 24.6621 29.6544Z" fill="#081023"/>
</svg>
