<svg width="37" height="37" viewBox="0 0 37 37" fill="none" xmlns="http://www.w3.org/2000/svg">
<path opacity="0.2" d="M30.9126 6.2302V30.7697C30.9126 31.3614 30.6776 31.9288 30.2592 32.3472C29.8408 32.7656 29.2734 33.0006 28.6817 33.0006H8.60391C8.01225 33.0006 7.44482 32.7656 7.02645 32.3472C6.60808 31.9288 6.37305 31.3614 6.37305 30.7697V6.2302C6.37305 5.63853 6.60808 5.0711 7.02645 4.65273C7.44482 4.23437 8.01225 3.99933 8.60391 3.99933H28.6817C29.2734 3.99933 29.8408 4.23437 30.2592 4.65273C30.6776 5.0711 30.9126 5.63853 30.9126 6.2302Z" fill="#207CFD"/>
<path d="M25.3355 22.9617C25.3354 24.4689 24.8991 25.9439 24.0792 27.2086C23.2594 28.4733 22.091 29.4737 20.7151 30.089C19.3393 30.7043 17.8147 30.9083 16.3255 30.6763C14.8363 30.4443 13.446 29.7862 12.3225 28.7815C12.2078 28.6855 12.1136 28.5675 12.0454 28.4343C11.9772 28.3012 11.9366 28.1557 11.9258 28.0065C11.915 27.8573 11.9343 27.7075 11.9826 27.5659C12.0309 27.4243 12.1071 27.2939 12.2068 27.1824C12.3065 27.0709 12.4277 26.9806 12.563 26.9169C12.6983 26.8532 12.845 26.8173 12.9945 26.8114C13.144 26.8056 13.2931 26.8298 13.433 26.8827C13.5729 26.9357 13.7007 27.0162 13.8088 27.1195C14.6068 27.8332 15.5933 28.3022 16.6506 28.4704C17.7079 28.6386 18.7912 28.499 19.7713 28.0682C20.7513 27.6374 21.5867 26.9336 22.1776 26.0409C22.7685 25.1481 23.09 24.1042 23.1036 23.0337C23.1173 21.9632 22.8226 20.9114 22.2547 20.0039C21.6868 19.0964 20.8696 18.3715 19.9009 17.9158C18.9322 17.4601 17.8527 17.2929 16.7915 17.434C15.7303 17.5752 14.7321 18.0188 13.9162 18.7119C13.7396 18.8605 13.5212 18.9506 13.2912 18.9698C13.0612 18.989 12.8309 18.9364 12.632 18.8193C12.4332 18.7021 12.2755 18.5261 12.1809 18.3156C12.0863 18.1051 12.0593 17.8704 12.1036 17.6439L14.2034 7.12675C14.254 6.87404 14.3905 6.64663 14.5898 6.48319C14.7891 6.31975 15.0388 6.23037 15.2966 6.23022H24.22C24.5159 6.23022 24.7996 6.34774 25.0088 6.55693C25.2179 6.76611 25.3355 7.04983 25.3355 7.34566C25.3355 7.64149 25.2179 7.9252 25.0088 8.13439C24.7996 8.34357 24.5159 8.46109 24.22 8.46109H16.2112L14.7723 15.6556C15.9539 15.21 17.226 15.0577 18.4795 15.2117C19.733 15.3657 20.9304 15.8214 21.969 16.5398C23.0077 17.2582 23.8566 18.2178 24.4429 19.3363C25.0292 20.4548 25.3355 21.6988 25.3355 22.9617Z" fill="#081023"/>
</svg>
