<svg width="37" height="37" viewBox="0 0 37 37" fill="none" xmlns="http://www.w3.org/2000/svg">
<path opacity="0.2" d="M30.688 6.2302V30.7697C30.688 31.3614 30.4529 31.9288 30.0346 32.3472C29.6162 32.7656 29.0488 33.0006 28.4571 33.0006H8.3793C7.78764 33.0006 7.22021 32.7656 6.80184 32.3472C6.38347 31.9288 6.14844 31.3614 6.14844 30.7697V6.2302C6.14844 5.63853 6.38347 5.0711 6.80184 4.65273C7.22021 4.23437 7.78764 3.99933 8.3793 3.99933H28.4571C29.0488 3.99933 29.6162 4.23437 30.0346 4.65273C30.4529 5.0711 30.688 5.63853 30.688 6.2302Z" fill="#207CFD"/>
<path d="M26.2263 21.8463C26.2263 22.1421 26.1088 22.4259 25.8996 22.635C25.6904 22.8442 25.4067 22.9617 25.1108 22.9617H22.88V29.6543C22.88 29.9502 22.7625 30.2339 22.5533 30.4431C22.3441 30.6523 22.0604 30.7698 21.7645 30.7698C21.4687 30.7698 21.185 30.6523 20.9758 30.4431C20.7666 30.2339 20.6491 29.9502 20.6491 29.6543V22.9617H10.6102C10.4315 22.9617 10.2555 22.9186 10.0969 22.8363C9.93828 22.754 9.80179 22.6347 9.69888 22.4887C9.59598 22.3426 9.52968 22.1739 9.50557 21.9968C9.48145 21.8198 9.50023 21.6395 9.56031 21.4712L15.1375 5.85518C15.2435 5.58549 15.4503 5.36764 15.7141 5.24773C15.9779 5.12783 16.278 5.1153 16.5509 5.21278C16.8237 5.31026 17.048 5.51012 17.1761 5.77003C17.3042 6.02994 17.3262 6.3295 17.2373 6.60531L12.1927 20.7309H20.6491V14.0383C20.6491 13.7424 20.7666 13.4587 20.9758 13.2495C21.185 13.0404 21.4687 12.9228 21.7645 12.9228C22.0604 12.9228 22.3441 13.0404 22.5533 13.2495C22.7625 13.4587 22.88 13.7424 22.88 14.0383V20.7309H25.1108C25.4067 20.7309 25.6904 20.8484 25.8996 21.0576C26.1088 21.2668 26.2263 21.5505 26.2263 21.8463Z" fill="#081023"/>
</svg>
