<svg width="37" height="37" viewBox="0 0 37 37" fill="none" xmlns="http://www.w3.org/2000/svg">
<path opacity="0.2" d="M31.0146 6.2302V30.7697C31.0146 31.3614 30.7796 31.9288 30.3612 32.3472C29.9429 32.7656 29.3754 33.0006 28.7838 33.0006H8.70597C8.1143 33.0006 7.54687 32.7656 7.1285 32.3472C6.71013 31.9288 6.4751 31.3614 6.4751 30.7697V6.2302C6.4751 5.63853 6.71013 5.0711 7.1285 4.65273C7.54687 4.23437 8.1143 3.99933 8.70597 3.99933H28.7838C29.3754 3.99933 29.9429 4.23437 30.3612 4.65273C30.7796 5.0711 31.0146 5.63853 31.0146 6.2302Z" fill="#207CFD"/>
<path d="M20.9758 7.34564V29.6543C20.9758 29.9501 20.8583 30.2339 20.6491 30.443C20.4399 30.6522 20.1562 30.7697 19.8604 30.7697C19.5645 30.7697 19.2808 30.6522 19.0716 30.443C18.8625 30.2339 18.7449 29.9501 18.7449 29.6543V9.31577L14.8577 11.6484C14.604 11.8008 14.3002 11.8461 14.0131 11.7745C13.726 11.7028 13.4791 11.5201 13.3267 11.2664C13.1744 11.0127 13.129 10.7089 13.2007 10.4218C13.2723 10.1347 13.4551 9.88781 13.7088 9.73545L19.2859 6.38915C19.4552 6.28745 19.6484 6.23252 19.8459 6.22995C20.0434 6.22739 20.238 6.27729 20.4098 6.37457C20.5817 6.47184 20.7246 6.61299 20.8241 6.7836C20.9235 6.95421 20.9759 7.14816 20.9758 7.34564Z" fill="#081023"/>
</svg>
