<svg width="37" height="37" viewBox="0 0 37 37" fill="none" xmlns="http://www.w3.org/2000/svg">
<path opacity="0.2" d="M30.4636 6.2302V30.7697C30.4636 31.3614 30.2286 31.9288 29.8102 32.3472C29.3918 32.7656 28.8244 33.0006 28.2327 33.0006H8.15494C7.56328 33.0006 6.99585 32.7656 6.57748 32.3472C6.15911 31.9288 5.92407 31.3614 5.92407 30.7697V6.2302C5.92407 5.63853 6.15911 5.0711 6.57748 4.65273C6.99585 4.23437 7.56328 3.99933 8.15494 3.99933H28.2327C28.8244 3.99933 29.3918 4.23437 29.8102 4.65273C30.2286 5.0711 30.4636 5.63853 30.4636 6.2302Z" fill="#207CFD"/>
<path d="M24.8865 22.9617C24.8864 24.4689 24.4501 25.9439 23.6303 27.2086C22.8104 28.4733 21.642 29.4737 20.2662 30.089C18.8903 30.7043 17.3657 30.9083 15.8765 30.6763C14.3873 30.4443 12.997 29.7862 11.8736 28.7815C11.7588 28.6855 11.6646 28.5675 11.5964 28.4343C11.5283 28.3012 11.4876 28.1557 11.4768 28.0065C11.466 27.8573 11.4853 27.7075 11.5336 27.5659C11.5819 27.4243 11.6582 27.2939 11.7579 27.1824C11.8576 27.0709 11.9787 26.9806 12.114 26.9169C12.2493 26.8532 12.3961 26.8173 12.5455 26.8114C12.695 26.8056 12.8441 26.8298 12.984 26.8827C13.1239 26.9357 13.2517 27.0162 13.3599 27.1195C14.0337 27.722 14.844 28.1516 15.7208 28.3715C16.5976 28.5913 17.5146 28.5947 18.3931 28.3814C19.2715 28.1681 20.0849 27.7445 20.7632 27.1471C21.4416 26.5497 21.9645 25.7963 22.2871 24.9519C22.6096 24.1074 22.7221 23.1973 22.6148 22.2997C22.5075 21.4022 22.1837 20.5442 21.6712 19.7996C21.1587 19.055 20.4728 18.4461 19.6728 18.0254C18.8727 17.6047 17.9824 17.3848 17.0784 17.3846C16.8713 17.3846 16.6682 17.3269 16.492 17.218C16.3158 17.1091 16.1734 16.9532 16.0808 16.768C15.9881 16.5827 15.9489 16.3753 15.9675 16.169C15.9861 15.9626 16.0618 15.7656 16.1861 15.5999L21.5402 8.46109H12.6167C12.3209 8.46109 12.0372 8.34357 11.828 8.13439C11.6188 7.9252 11.5013 7.64149 11.5013 7.34566C11.5013 7.04983 11.6188 6.76611 11.828 6.55693C12.0372 6.34774 12.3209 6.23022 12.6167 6.23022H23.771C23.9782 6.23022 24.1813 6.28791 24.3575 6.39681C24.5337 6.50572 24.6761 6.66154 24.7687 6.84682C24.8614 7.0321 24.9006 7.23952 24.882 7.44583C24.8634 7.65214 24.7877 7.8492 24.6634 8.01492L19.1085 15.4214C20.7656 15.87 22.2291 16.8513 23.2733 18.214C24.3174 19.5767 24.8843 21.245 24.8865 22.9617Z" fill="#081023"/>
</svg>
