<svg width="15" height="15" viewBox="0 0 15 15" fill="none" xmlns="http://www.w3.org/2000/svg">
<g id="Tooth">
<path id="Vector" opacity="0.2" d="M12.6563 4.67344C12.6604 8.8582 11.2805 12.1869 10.0781 13.0395C10.0102 13.0863 9.93104 13.1144 9.84874 13.1209C9.76644 13.1273 9.6839 13.1119 9.60945 13.0763C9.53501 13.0406 9.4713 12.9859 9.42479 12.9177C9.37827 12.8495 9.35059 12.7702 9.34454 12.6879C9.25782 11.5025 8.90626 9.375 7.50001 9.375C6.09376 9.375 5.7422 11.5025 5.65372 12.6873C5.64767 12.7696 5.61999 12.8489 5.57347 12.9171C5.52696 12.9853 5.46325 13.04 5.38881 13.0757C5.31436 13.1114 5.23182 13.1267 5.14952 13.1203C5.06722 13.1138 4.98809 13.0857 4.92013 13.0389C3.71954 12.1875 2.33966 8.8582 2.34376 4.67344C2.34655 3.92967 2.64421 3.21737 3.17146 2.69276C3.6987 2.16815 4.41249 1.87406 5.15626 1.875H9.84376C10.5875 1.87406 11.3013 2.16815 11.8286 2.69276C12.3558 3.21737 12.6535 3.92967 12.6563 4.67344Z" fill="#207CFD"/>
<path id="Vector_2" d="M10.0195 4.18477L8.76211 4.6875L10.0195 5.18965C10.1349 5.23627 10.2271 5.32682 10.2757 5.44137C10.3243 5.55592 10.3254 5.6851 10.2788 5.80049C10.2322 5.91587 10.1416 6.00801 10.0271 6.05664C9.91253 6.10526 9.78335 6.10639 9.66797 6.05977L7.5 5.19199L5.33203 6.05977C5.2749 6.08285 5.21378 6.09445 5.15216 6.09392C5.09054 6.09338 5.02964 6.08071 4.97291 6.05664C4.91619 6.03256 4.86477 5.99755 4.82158 5.9536C4.77839 5.90965 4.74428 5.85762 4.72119 5.80049C4.69811 5.74336 4.6865 5.68224 4.68704 5.62062C4.68758 5.559 4.70024 5.49809 4.72432 5.44137C4.7484 5.38465 4.78341 5.33322 4.82736 5.29003C4.87131 5.24684 4.92334 5.21273 4.98047 5.18965L6.23789 4.6875L4.98047 4.18477C4.92334 4.16168 4.87131 4.12757 4.82736 4.08438C4.78341 4.04119 4.7484 3.98977 4.72432 3.93304C4.70024 3.87632 4.68758 3.81541 4.68704 3.7538C4.6865 3.69218 4.69811 3.63106 4.72119 3.57393C4.74428 3.51679 4.77839 3.46477 4.82158 3.42082C4.86477 3.37687 4.91619 3.34185 4.97291 3.31778C5.02964 3.2937 5.09054 3.28103 5.15216 3.2805C5.21378 3.27996 5.2749 3.29156 5.33203 3.31465L7.5 4.18242L9.66797 3.31465C9.7251 3.29156 9.78622 3.27996 9.84784 3.2805C9.90946 3.28103 9.97037 3.2937 10.0271 3.31778C10.0838 3.34185 10.1352 3.37687 10.1784 3.42082C10.2216 3.46477 10.2557 3.51679 10.2788 3.57393C10.3019 3.63106 10.3135 3.69218 10.313 3.7538C10.3124 3.81541 10.2998 3.87632 10.2757 3.93304C10.2516 3.98977 10.2166 4.04119 10.1726 4.08438C10.1287 4.12757 10.0767 4.16168 10.0195 4.18477ZM13.125 4.67285C13.125 7.17598 12.6563 9.09082 12.2637 10.2557C11.7527 11.7674 11.0555 12.9211 10.3512 13.4197C10.2172 13.5161 10.0597 13.5747 9.89522 13.5892C9.73077 13.6038 9.56545 13.5738 9.4166 13.5023C9.26569 13.4311 9.13638 13.3212 9.04188 13.1836C8.94737 13.0461 8.89107 12.8859 8.87871 12.7195C8.82891 12.0457 8.58281 9.84375 7.5 9.84375C6.41719 9.84375 6.17109 12.0463 6.12129 12.7213C6.10372 12.9581 5.99741 13.1796 5.8236 13.3415C5.64979 13.5034 5.42129 13.5937 5.18379 13.5943C4.99178 13.5941 4.80469 13.5336 4.64883 13.4215C3.9457 12.9217 3.24727 11.768 2.73633 10.2574C2.34375 9.09082 1.875 7.17598 1.875 4.67285C1.87887 3.80515 2.22629 2.97431 2.84122 2.36212C3.45615 1.74993 4.28854 1.40624 5.15625 1.40625H9.84375C10.7115 1.40624 11.5438 1.74993 12.1588 2.36212C12.7737 2.97431 13.1211 3.80515 13.125 4.67285ZM12.1875 4.67285C12.1836 4.05379 11.935 3.46141 11.4959 3.02503C11.0568 2.58866 10.4628 2.34374 9.84375 2.34375H5.15625C4.53708 2.34374 3.94306 2.58874 3.50392 3.02524C3.06478 3.46174 2.81622 4.05428 2.8125 4.67344C2.8125 7.04941 3.25254 8.85703 3.62402 9.95508C4.27148 11.8687 4.97168 12.4963 5.1832 12.6504C5.36543 10.2346 6.18691 8.90625 7.5 8.90625C8.81309 8.90625 9.63574 10.2369 9.81387 12.6527C10.0248 12.501 10.7262 11.8758 11.376 9.95742C11.7475 8.85703 12.1875 7.04941 12.1875 4.67344V4.67285Z" fill="#081023"/>
</g>
</svg>
