<svg width="15" height="15" viewBox="0 0 15 15" fill="none" xmlns="http://www.w3.org/2000/svg">
<g id="OfficeChair">
<path id="Vector" opacity="0.2" d="M10.3125 7.96875H4.68751C4.62036 7.96875 4.55399 7.95432 4.4929 7.92645C4.4318 7.89857 4.37742 7.85789 4.33341 7.80716C4.28941 7.75643 4.25682 7.69685 4.23785 7.63243C4.21887 7.56801 4.21396 7.50027 4.22345 7.43379L5.02736 1.80879C5.0433 1.69707 5.09901 1.59485 5.18425 1.5209C5.2695 1.44696 5.37857 1.40625 5.49142 1.40625H9.50861C9.62146 1.40625 9.73052 1.44696 9.81577 1.5209C9.90102 1.59485 9.95673 1.69707 9.97267 1.80879L10.7766 7.43379C10.7861 7.50027 10.7812 7.56801 10.7622 7.63243C10.7432 7.69685 10.7106 7.75643 10.6666 7.80716C10.6226 7.85789 10.5682 7.89857 10.5071 7.92645C10.446 7.95432 10.3797 7.96875 10.3125 7.96875Z" fill="#081023"/>
<path id="Vector_2" d="M14.5312 7.5C14.5312 7.62432 14.4819 7.74355 14.394 7.83146C14.306 7.91936 14.1868 7.96875 14.0625 7.96875H13.0857C12.9741 8.62371 12.6345 9.21813 12.1271 9.647C11.6196 10.0759 10.9769 10.3116 10.3125 10.3125H7.96875V11.7188H9.375C9.87228 11.7188 10.3492 11.9163 10.7008 12.2679C11.0525 12.6196 11.25 13.0965 11.25 13.5938C11.25 13.7181 11.2006 13.8373 11.1127 13.9252C11.0248 14.0131 10.9056 14.0625 10.7812 14.0625C10.6569 14.0625 10.5377 14.0131 10.4498 13.9252C10.3619 13.8373 10.3125 13.7181 10.3125 13.5938C10.3125 13.3451 10.2137 13.1067 10.0379 12.9308C9.8621 12.755 9.62364 12.6562 9.375 12.6562H7.96875V13.5938C7.96875 13.7181 7.91936 13.8373 7.83146 13.9252C7.74355 14.0131 7.62432 14.0625 7.5 14.0625C7.37568 14.0625 7.25645 14.0131 7.16854 13.9252C7.08064 13.8373 7.03125 13.7181 7.03125 13.5938V12.6562H5.625C5.37636 12.6562 5.1379 12.755 4.96209 12.9308C4.78627 13.1067 4.6875 13.3451 4.6875 13.5938C4.6875 13.7181 4.63811 13.8373 4.55021 13.9252C4.4623 14.0131 4.34307 14.0625 4.21875 14.0625C4.09443 14.0625 3.9752 14.0131 3.88729 13.9252C3.79939 13.8373 3.75 13.7181 3.75 13.5938C3.75 13.0965 3.94754 12.6196 4.29917 12.2679C4.6508 11.9163 5.12772 11.7188 5.625 11.7188H7.03125V10.3125H4.6875C4.02309 10.3116 3.38038 10.0759 2.87292 9.647C2.36546 9.21813 2.02591 8.62371 1.91426 7.96875H0.9375C0.81318 7.96875 0.693951 7.91936 0.606044 7.83146C0.518136 7.74355 0.46875 7.62432 0.46875 7.5C0.46875 7.37568 0.518136 7.25645 0.606044 7.16854C0.693951 7.08064 0.81318 7.03125 0.9375 7.03125H2.34375C2.46807 7.03125 2.5873 7.08064 2.67521 7.16854C2.76311 7.25645 2.8125 7.37568 2.8125 7.5C2.8125 7.99728 3.01004 8.47419 3.36167 8.82582C3.71331 9.17746 4.19022 9.375 4.6875 9.375H10.3125C10.8098 9.375 11.2867 9.17746 11.6383 8.82582C11.99 8.47419 12.1875 7.99728 12.1875 7.5C12.1875 7.37568 12.2369 7.25645 12.3248 7.16854C12.4127 7.08064 12.5319 7.03125 12.6562 7.03125H14.0625C14.1868 7.03125 14.306 7.08064 14.394 7.16854C14.4819 7.25645 14.5312 7.37568 14.5312 7.5ZM3.9791 8.11406C3.89116 8.01262 3.82604 7.89348 3.78813 7.76469C3.75022 7.63591 3.74042 7.50048 3.75938 7.36758L4.56328 1.74258C4.59608 1.51954 4.70777 1.31566 4.87806 1.16794C5.04836 1.02023 5.26597 0.938465 5.49141 0.9375H9.50859C9.73403 0.938465 9.95164 1.02023 10.1219 1.16794C10.2922 1.31566 10.4039 1.51954 10.4367 1.74258L11.2406 7.36758C11.2596 7.50054 11.2498 7.63602 11.2118 7.76486C11.1739 7.89369 11.1087 8.01287 11.0207 8.11432C10.9327 8.21578 10.8239 8.29713 10.7017 8.35289C10.5795 8.40865 10.4468 8.4375 10.3125 8.4375H4.6875C4.55314 8.4375 4.42035 8.40862 4.29813 8.35282C4.17591 8.29701 4.06711 8.21559 3.9791 8.11406ZM4.6875 7.5H10.3125L9.50859 1.875H5.49082L4.6875 7.5Z" fill="#081023"/>
</g>
</svg>
