<svg width="15" height="15" viewBox="0 0 15 15" fill="none" xmlns="http://www.w3.org/2000/svg">
<g id="Robot">
<path id="Vector" opacity="0.2" d="M11.7188 3.28125H3.28125C2.90829 3.28125 2.5506 3.42941 2.28688 3.69313C2.02316 3.95685 1.875 4.31454 1.875 4.6875V11.25C1.875 11.623 2.02316 11.9806 2.28688 12.2444C2.5506 12.5081 2.90829 12.6562 3.28125 12.6562H11.7188C12.0917 12.6562 12.4494 12.5081 12.7131 12.2444C12.9768 11.9806 13.125 11.623 13.125 11.25V4.6875C13.125 4.31454 12.9768 3.95685 12.7131 3.69313C12.4494 3.42941 12.0917 3.28125 11.7188 3.28125ZM9.60938 10.7812H5.39063C5.07982 10.7812 4.78175 10.6578 4.56198 10.438C4.34222 10.2182 4.21875 9.92017 4.21875 9.60937C4.21875 9.29857 4.34222 9.0005 4.56198 8.78073C4.78175 8.56096 5.07982 8.4375 5.39063 8.4375H9.60938C9.92018 8.4375 10.2182 8.56096 10.438 8.78073C10.6578 9.0005 10.7813 9.29857 10.7813 9.60937C10.7813 9.92017 10.6578 10.2182 10.438 10.438C10.2182 10.6578 9.92018 10.7812 9.60938 10.7812Z" fill="#207CFD"/>
<path id="Vector_2" d="M11.7188 2.8125H7.96875V0.9375C7.96875 0.81318 7.91936 0.693951 7.83146 0.606044C7.74355 0.518136 7.62432 0.46875 7.5 0.46875C7.37568 0.46875 7.25645 0.518136 7.16854 0.606044C7.08064 0.693951 7.03125 0.81318 7.03125 0.9375V2.8125H3.28125C2.78397 2.8125 2.30706 3.01004 1.95542 3.36167C1.60379 3.71331 1.40625 4.19022 1.40625 4.6875V11.25C1.40625 11.7473 1.60379 12.2242 1.95542 12.5758C2.30706 12.9275 2.78397 13.125 3.28125 13.125H11.7188C12.216 13.125 12.6929 12.9275 13.0446 12.5758C13.3962 12.2242 13.5938 11.7473 13.5938 11.25V4.6875C13.5938 4.19022 13.3962 3.71331 13.0446 3.36167C12.6929 3.01004 12.216 2.8125 11.7188 2.8125ZM12.6562 11.25C12.6562 11.4986 12.5575 11.7371 12.3817 11.9129C12.2058 12.0887 11.9674 12.1875 11.7188 12.1875H3.28125C3.03261 12.1875 2.79415 12.0887 2.61834 11.9129C2.44252 11.7371 2.34375 11.4986 2.34375 11.25V4.6875C2.34375 4.43886 2.44252 4.2004 2.61834 4.02459C2.79415 3.84877 3.03261 3.75 3.28125 3.75H11.7188C11.9674 3.75 12.2058 3.84877 12.3817 4.02459C12.5575 4.2004 12.6562 4.43886 12.6562 4.6875V11.25ZM9.60938 7.96875H5.39062C4.9555 7.96875 4.5382 8.1416 4.23053 8.44928C3.92285 8.75695 3.75 9.17425 3.75 9.60938C3.75 10.0445 3.92285 10.4618 4.23053 10.7695C4.5382 11.0771 4.9555 11.25 5.39062 11.25H9.60938C10.0445 11.25 10.4618 11.0771 10.7695 10.7695C11.0771 10.4618 11.25 10.0445 11.25 9.60938C11.25 9.17425 11.0771 8.75695 10.7695 8.44928C10.4618 8.1416 10.0445 7.96875 9.60938 7.96875ZM7.96875 8.90625V10.3125H7.03125V8.90625H7.96875ZM4.6875 9.60938C4.6875 9.42289 4.76158 9.24405 4.89344 9.11219C5.0253 8.98033 5.20414 8.90625 5.39062 8.90625H6.09375V10.3125H5.39062C5.20414 10.3125 5.0253 10.2384 4.89344 10.1066C4.76158 9.9747 4.6875 9.79586 4.6875 9.60938ZM9.60938 10.3125H8.90625V8.90625H9.60938C9.79586 8.90625 9.9747 8.98033 10.1066 9.11219C10.2384 9.24405 10.3125 9.42289 10.3125 9.60938C10.3125 9.79586 10.2384 9.9747 10.1066 10.1066C9.9747 10.2384 9.79586 10.3125 9.60938 10.3125ZM4.21875 6.32812C4.21875 6.18906 4.25999 6.05312 4.33725 5.93749C4.41451 5.82186 4.52432 5.73174 4.6528 5.67852C4.78128 5.6253 4.92266 5.61138 5.05905 5.63851C5.19544 5.66564 5.32073 5.73261 5.41906 5.83094C5.51739 5.92927 5.58436 6.05456 5.61149 6.19095C5.63862 6.32734 5.6247 6.46872 5.57148 6.5972C5.51826 6.72568 5.42814 6.83549 5.31251 6.91275C5.19688 6.99001 5.06094 7.03125 4.92188 7.03125C4.73539 7.03125 4.55655 6.95717 4.42469 6.82531C4.29283 6.69345 4.21875 6.51461 4.21875 6.32812ZM9.375 6.32812C9.375 6.18906 9.41624 6.05312 9.4935 5.93749C9.57076 5.82186 9.68057 5.73174 9.80905 5.67852C9.93753 5.6253 10.0789 5.61138 10.2153 5.63851C10.3517 5.66564 10.477 5.73261 10.5753 5.83094C10.6736 5.92927 10.7406 6.05456 10.7677 6.19095C10.7949 6.32734 10.7809 6.46872 10.7277 6.5972C10.6745 6.72568 10.5844 6.83549 10.4688 6.91275C10.3531 6.99001 10.2172 7.03125 10.0781 7.03125C9.89164 7.03125 9.7128 6.95717 9.58094 6.82531C9.44908 6.69345 9.375 6.51461 9.375 6.32812Z" fill="#081023"/>
</g>
</svg>
