<svg width="15" height="15" viewBox="0 0 15 15" fill="none" xmlns="http://www.w3.org/2000/svg">
<g id="Pill">
<path id="Vector" opacity="0.2" d="M9.37491 9.375L6.40128 12.3486C5.90396 12.8458 5.22952 13.1252 4.52628 13.1252C3.82304 13.1252 3.1486 12.8458 2.65128 12.3486C2.15407 11.8513 1.87476 11.1769 1.87476 10.4736C1.87476 9.7704 2.15407 9.09595 2.65128 8.59863L5.62491 5.625L9.37491 9.375Z" fill="#081023"/>
<path id="Vector_2" d="M12.6814 2.32031C12.0961 1.73505 11.3022 1.40626 10.4745 1.40626C9.64672 1.40626 8.85287 1.73505 8.26753 2.32031L2.32026 8.26699C1.74727 8.85473 1.4289 9.64456 1.43415 10.4654C1.43939 11.2862 1.76781 12.0719 2.34826 12.6523C2.92872 13.2326 3.71446 13.561 4.53527 13.5661C5.35609 13.5712 6.14588 13.2528 6.73354 12.6797L12.6814 6.73301C13.2656 6.14733 13.5937 5.35388 13.5937 4.52666C13.5937 3.69944 13.2656 2.90599 12.6814 2.32031ZM6.07085 12.017C5.66144 12.4265 5.10615 12.6565 4.52711 12.6566C3.94807 12.6567 3.39273 12.4267 2.98325 12.0173C2.57377 11.6079 2.3437 11.0526 2.34364 10.4735C2.34359 9.89451 2.57355 9.33917 2.98296 8.92969L5.62495 6.28769L8.71284 9.375L6.07085 12.017ZM12.0181 6.07031L9.37495 8.7123L6.28823 5.625L8.93081 2.98301C9.34183 2.58148 9.89458 2.35818 10.4692 2.36153C11.0438 2.36489 11.5939 2.59464 12.0002 3.00094C12.4065 3.40725 12.6362 3.95735 12.6396 4.53194C12.6429 5.10654 12.4196 5.65929 12.0181 6.07031ZM11.114 4.82461C11.1576 4.86814 11.1922 4.91984 11.2158 4.97675C11.2393 5.03365 11.2515 5.09465 11.2515 5.15625C11.2515 5.21785 11.2393 5.27885 11.2158 5.33575C11.1922 5.39266 11.1576 5.44436 11.114 5.48789L9.70776 6.89414C9.66421 6.93765 9.61251 6.97216 9.55562 6.9957C9.49874 7.01923 9.43777 7.03133 9.37621 7.0313C9.31464 7.03128 9.25369 7.01912 9.19682 6.99554C9.13995 6.97195 9.08829 6.9374 9.04477 6.89385C9.00126 6.8503 8.96675 6.7986 8.94322 6.74171C8.91968 6.68482 8.90758 6.62386 8.90761 6.56229C8.90764 6.50073 8.91979 6.43977 8.94337 6.3829C8.96696 6.32604 9.00151 6.27437 9.04506 6.23086L10.4513 4.82461C10.5392 4.73677 10.6584 4.68742 10.7827 4.68742C10.9069 4.68742 11.0261 4.73677 11.114 4.82461Z" fill="#081023"/>
</g>
</svg>
