<svg width="33" height="33" viewBox="0 0 33 33" fill="none" xmlns="http://www.w3.org/2000/svg">
<path opacity="0.2" d="M20.6251 20.625L14.0831 27.167C12.989 28.2608 11.5052 28.8753 9.95808 28.8753C8.41096 28.8753 6.92718 28.2608 5.83308 27.167C4.73923 26.0729 4.12473 24.5891 4.12473 23.042C4.12473 21.4949 4.73923 20.0111 5.83308 18.917L12.3751 12.375L20.6251 20.625Z" fill="#207CFD"/>
<path d="M27.8991 5.10467C26.6114 3.81709 24.8649 3.09375 23.0439 3.09375C21.2229 3.09375 19.4764 3.81709 18.1886 5.10467L5.10465 18.1874C3.84406 19.4804 3.14367 21.218 3.1552 23.0238C3.16673 24.8296 3.88926 26.5581 5.16625 27.835C6.44325 29.1118 8.17189 29.8341 9.97768 29.8454C11.7835 29.8567 13.521 29.1561 14.8139 27.8953L27.8991 14.8126C29.1844 13.5241 29.9061 11.7785 29.9061 9.95863C29.9061 8.13875 29.1844 6.39315 27.8991 5.10467ZM13.3559 26.4374C12.4553 27.3382 11.2336 27.8444 9.95972 27.8445C8.68584 27.8446 7.46408 27.3387 6.56323 26.438C5.66237 25.5373 5.15621 24.3157 5.15609 23.0418C5.15597 21.7679 5.6619 20.5461 6.56258 19.6453L12.375 13.8329L19.1683 20.625L13.3559 26.4374ZM26.4399 13.3547L20.625 19.1671L13.8342 12.375L19.6479 6.5626C20.5521 5.67923 21.7682 5.18797 23.0323 5.19535C24.2964 5.20274 25.5066 5.70818 26.4005 6.60205C27.2943 7.49592 27.7998 8.70615 27.8072 9.97025C27.8146 11.2344 27.3233 12.4504 26.4399 13.3547ZM24.4509 10.6141C24.5468 10.7099 24.6228 10.8236 24.6747 10.9488C24.7266 11.074 24.7534 11.2082 24.7534 11.3437C24.7534 11.4793 24.7266 11.6134 24.6747 11.7386C24.6228 11.8638 24.5468 11.9776 24.4509 12.0733L21.3572 15.1671C21.2613 15.2628 21.1476 15.3387 21.0225 15.3905C20.8973 15.4423 20.7632 15.4689 20.6277 15.4688C20.4923 15.4688 20.3582 15.4421 20.2331 15.3902C20.108 15.3383 19.9943 15.2623 19.8986 15.1664C19.8029 15.0706 19.7269 14.9569 19.6752 14.8317C19.6234 14.7066 19.5968 14.5725 19.5968 14.437C19.5969 14.3016 19.6236 14.1675 19.6755 14.0424C19.7274 13.9173 19.8034 13.8036 19.8992 13.7079L22.993 10.6141C23.1864 10.4209 23.4486 10.3123 23.7219 10.3123C23.9953 10.3123 24.2575 10.4209 24.4509 10.6141Z" fill="#081023"/>
</svg>
