<svg width="21" height="22" viewBox="0 0 21 22" fill="none" xmlns="http://www.w3.org/2000/svg">
<path opacity="0.2" d="M18.301 14.7658C18.1741 15.7147 17.7068 16.5851 16.9862 17.2152C16.2655 17.8454 15.3405 18.1924 14.3832 18.1916C11.4355 18.1916 8.60858 17.0207 6.52424 14.9363C4.43991 12.852 3.26894 10.025 3.26894 7.07733C3.26821 6.12003 3.61518 5.19505 4.24533 4.4744C4.87548 3.75375 5.74592 3.2865 6.69476 3.15953C6.83502 3.14287 6.97691 3.17208 7.09919 3.2428C7.22146 3.31351 7.31755 3.42192 7.37306 3.5518L9.09986 7.40912C9.14229 7.50819 9.15957 7.61622 9.15016 7.72358C9.14075 7.83094 9.10494 7.93432 9.04593 8.0245L7.29951 10.1011C7.23756 10.1946 7.20093 10.3025 7.19319 10.4144C7.18546 10.5263 7.20688 10.6382 7.25538 10.7393C7.93123 12.1229 9.36138 13.5359 10.749 14.2052C10.8507 14.2535 10.9632 14.2744 11.0754 14.266C11.1876 14.2575 11.2957 14.2199 11.3889 14.157L13.432 12.4163C13.5225 12.356 13.6267 12.3193 13.735 12.3095C13.8433 12.2996 13.9523 12.317 14.0523 12.3599L17.9063 14.0867C18.0368 14.1418 18.1459 14.2379 18.217 14.3604C18.2882 14.4828 18.3177 14.6251 18.301 14.7658Z" fill="#207CFD"/>
<path d="M12.6131 8.84745C12.5523 8.78673 12.5041 8.71463 12.4712 8.63526C12.4383 8.55589 12.4213 8.47082 12.4213 8.3849C12.4213 8.29898 12.4383 8.21391 12.4712 8.13454C12.5041 8.05517 12.5523 7.98307 12.6131 7.92235L15.4203 5.11598H13.7294C13.556 5.11598 13.3897 5.0471 13.2671 4.92449C13.1445 4.80189 13.0756 4.63559 13.0756 4.4622C13.0756 4.28881 13.1445 4.12251 13.2671 3.99991C13.3897 3.8773 13.556 3.80842 13.7294 3.80842H16.9983C17.1717 3.80842 17.338 3.8773 17.4606 3.99991C17.5832 4.12251 17.6521 4.28881 17.6521 4.4622V7.73111C17.6521 7.90451 17.5832 8.0708 17.4606 8.19341C17.338 8.31602 17.1717 8.3849 16.9983 8.3849C16.8249 8.3849 16.6587 8.31602 16.536 8.19341C16.4134 8.0708 16.3446 7.90451 16.3446 7.73111V6.04027L13.5382 8.84745C13.4775 8.90824 13.4054 8.95646 13.326 8.98936C13.2466 9.02226 13.1616 9.0392 13.0756 9.0392C12.9897 9.0392 12.9047 9.02226 12.8253 8.98936C12.7459 8.95646 12.6738 8.90824 12.6131 8.84745ZM18.9499 14.8475C18.8042 15.9549 18.2603 16.9714 17.42 17.7071C16.5796 18.4428 15.5001 18.8474 14.3832 18.8454C7.89442 18.8454 2.61512 13.5661 2.61512 7.07733C2.61312 5.96042 3.01776 4.88097 3.75346 4.04059C4.48917 3.20021 5.50563 2.65638 6.613 2.51066C6.89293 2.4764 7.17644 2.53357 7.42122 2.67364C7.66599 2.8137 7.85893 3.02915 7.97124 3.28784L9.69722 7.14189V7.1517C9.7831 7.34984 9.81857 7.56617 9.80046 7.78136C9.78235 7.99655 9.71122 8.2039 9.59343 8.3849C9.57872 8.40696 9.5632 8.42739 9.54685 8.44782L7.84538 10.4647C8.45749 11.7086 9.75851 12.9982 11.0187 13.6119L13.0078 11.9194C13.0273 11.903 13.0478 11.8877 13.0691 11.8736C13.2497 11.7525 13.4579 11.6786 13.6744 11.6586C13.891 11.6386 14.1091 11.6732 14.3088 11.7592L14.3195 11.7641L18.1694 13.4893C18.4287 13.6011 18.6449 13.7938 18.7856 14.0386C18.9262 14.2834 18.9839 14.5672 18.9499 14.8475ZM17.6521 14.6841C17.6521 14.6841 17.6464 14.6841 17.6431 14.6841L13.8022 12.963L11.8122 14.6563C11.7929 14.6727 11.7727 14.6879 11.7517 14.7021C11.5636 14.8276 11.3461 14.9022 11.1205 14.9185C10.8949 14.9348 10.6689 14.8924 10.4646 14.7952C8.93393 14.0556 7.40816 12.5413 6.66776 11.027C6.56971 10.8242 6.52572 10.5995 6.54004 10.3747C6.55435 10.1499 6.6265 9.93266 6.74948 9.74395C6.76334 9.72179 6.77892 9.70075 6.79606 9.68102L8.49917 7.66165L6.78299 3.82068C6.78266 3.81742 6.78266 3.81413 6.78299 3.81087C5.99048 3.91425 5.26284 4.30297 4.73633 4.90425C4.20982 5.50553 3.92054 6.27812 3.92269 7.07733C3.92571 9.85071 5.02877 12.5096 6.98985 14.4707C8.95092 16.4318 11.6098 17.5348 14.3832 17.5379C15.1819 17.5406 15.9543 17.2523 16.5559 16.727C17.1576 16.2016 17.5472 15.4751 17.6521 14.6833V14.6841Z" fill="#081023"/>
</svg>
