<svg width="15" height="15" viewBox="0 0 15 15" fill="none" xmlns="http://www.w3.org/2000/svg">
<g id="Aperture">
<path id="Vector" opacity="0.2" d="M11.4774 3.52266C10.6907 2.73595 9.68843 2.20018 8.59728 1.98311C7.50612 1.76604 6.3751 1.87741 5.34725 2.30314C4.31939 2.72888 3.44086 3.44985 2.82277 4.37488C2.20467 5.29992 1.87476 6.38747 1.87476 7.5C1.87476 8.61254 2.20467 9.70009 2.82277 10.6251C3.44086 11.5502 4.31939 12.2711 5.34725 12.6969C6.3751 13.1226 7.50612 13.234 8.59728 13.0169C9.68843 12.7998 10.6907 12.2641 11.4774 11.4773C12.5322 10.4225 13.1248 8.99178 13.1248 7.5C13.1248 6.00822 12.5322 4.57754 11.4774 3.52266ZM8.23479 9.55781L6.08557 9.16582L5.3508 7.10742L6.76525 5.44278L8.91447 5.83477L9.64924 7.89258L8.23479 9.55781Z" fill="#207CFD"/>
<path id="Vector_2" d="M11.8091 3.191C10.6662 2.04818 9.11626 1.40616 7.50007 1.40616C5.88389 1.40616 4.3339 2.04818 3.19109 3.191C2.04828 4.33381 1.40625 5.8838 1.40625 7.49998C1.40625 9.11617 2.04828 10.6662 3.19109 11.809C4.3339 12.9518 5.88389 13.5938 7.50007 13.5938C9.11626 13.5938 10.6662 12.9518 11.8091 11.809C12.9519 10.6662 13.5939 9.11617 13.5939 7.49998C13.5939 5.8838 12.9519 4.33381 11.8091 3.191ZM11.1464 3.85428C11.3867 4.09567 11.6026 4.36024 11.7909 4.64412L9.81746 6.97264L8.18152 2.38944C9.30468 2.53615 10.3474 3.05134 11.1464 3.85428ZM9.11668 7.79295L8.05261 9.0451L6.43601 8.75213L5.88347 7.20701L6.94754 5.95487L8.56414 6.24783L9.11668 7.79295ZM3.85379 3.85428C4.73906 2.96419 5.92062 2.43055 7.17371 2.35487L8.19968 5.22596L3.41609 4.35467C3.55107 4.17863 3.69727 4.01149 3.85379 3.85428ZM2.73347 9.46522C2.45531 8.78595 2.32468 8.05532 2.35024 7.32174C2.37579 6.58817 2.55695 5.8684 2.88171 5.21014L5.8823 5.75799L2.73347 9.46522ZM3.85379 11.1457C3.61343 10.9043 3.39754 10.6397 3.20925 10.3558L5.18269 8.02733L6.81863 12.6082C5.69577 12.4621 4.65305 11.9478 3.85379 11.1457ZM11.1464 11.1457C10.2611 12.0358 9.07953 12.5694 7.82644 12.6451L6.80046 9.77401L11.5841 10.6476C11.449 10.8229 11.3028 10.9892 11.1464 11.1457ZM9.11785 9.24197L12.2667 5.53475C12.5448 6.21402 12.6755 6.94465 12.6499 7.67822C12.6244 8.41179 12.4432 9.13156 12.1184 9.78983L9.11785 9.24197Z" fill="#081023"/>
</g>
</svg>
