<svg width="15" height="15" viewBox="0 0 15 15" fill="none" xmlns="http://www.w3.org/2000/svg">
<g id="Pizza">
<path id="Vector" opacity="0.2" d="M12.7734 5.37654L10.9646 8.34373C10.7556 8.1856 10.5158 8.07305 10.2606 8.01334C10.0054 7.95363 9.74051 7.94809 9.48303 7.99706C9.22556 8.04604 8.98121 8.14845 8.76576 8.29769C8.55031 8.44693 8.36853 8.63968 8.23217 8.86351C8.09581 9.08733 8.00789 9.33726 7.97408 9.59716C7.94027 9.85706 7.96133 10.1212 8.03588 10.3724C8.11044 10.6237 8.23685 10.8565 8.40695 11.0559C8.57705 11.2553 8.78706 11.4168 9.02344 11.5301L7.90254 13.3687C7.86082 13.4379 7.80195 13.4951 7.73163 13.5348C7.66131 13.5745 7.58193 13.5953 7.50117 13.5953C7.42042 13.5953 7.34103 13.5745 7.27071 13.5348C7.20039 13.4951 7.14152 13.4379 7.0998 13.3687L4.93945 9.82674C5.24868 9.78566 5.54277 9.66807 5.79508 9.48464C6.04739 9.30121 6.24995 9.05773 6.38441 8.77625C6.51886 8.49477 6.58097 8.1842 6.56509 7.87266C6.54922 7.56112 6.45587 7.25847 6.2935 6.99211C6.13113 6.72576 5.90488 6.50412 5.63523 6.34729C5.36558 6.19045 5.06106 6.10337 4.74926 6.09393C4.43746 6.08449 4.12823 6.15299 3.84959 6.29323C3.57095 6.43347 3.3317 6.64101 3.15352 6.89705L2.22656 5.37654C3.781 4.31678 5.61868 3.74994 7.5 3.74994C9.38132 3.74994 11.219 4.31678 12.7734 5.37654Z" fill="#207CFD"/>
<path id="Vector_2" d="M14.0355 3.69142C14.0066 3.57142 13.9542 3.45836 13.8813 3.35878C13.8083 3.2592 13.7164 3.1751 13.6107 3.11134C11.7674 1.9963 9.65423 1.40686 7.49995 1.40686C5.34568 1.40686 3.23247 1.9963 1.38921 3.11134C1.28383 3.17525 1.19209 3.25931 1.11923 3.35871C1.04637 3.45811 0.99383 3.5709 0.964605 3.69063C0.935381 3.81036 0.93005 3.93468 0.948918 4.05647C0.967786 4.17826 1.01048 4.29513 1.07456 4.40041L6.69956 13.6154C6.78313 13.7532 6.90079 13.8671 7.04119 13.9462C7.18159 14.0252 7.34 14.0667 7.50113 14.0667C7.66225 14.0667 7.82066 14.0252 7.96106 13.9462C8.10146 13.8671 8.21912 13.7532 8.30269 13.6154L11.3671 8.58576L13.9224 4.39923C13.9873 4.29467 14.0307 4.17823 14.0501 4.0567C14.0696 3.93518 14.0646 3.811 14.0355 3.69142ZM3.72593 6.94337C3.87824 6.79984 4.06066 6.69211 4.2599 6.62804C4.45914 6.56397 4.67016 6.54518 4.87759 6.57304C5.08501 6.6009 5.2836 6.67471 5.45887 6.78908C5.63414 6.90344 5.78168 7.05549 5.89071 7.23413C5.99975 7.41277 6.06754 7.61349 6.08913 7.82166C6.11073 8.02983 6.08559 8.24019 6.01555 8.43741C5.94551 8.63462 5.83233 8.81372 5.68427 8.96163C5.53621 9.10955 5.35701 9.22255 5.15972 9.2924L3.72593 6.94337ZM8.87749 10.8662C8.64275 10.6449 8.49127 10.3495 8.44844 10.0298C8.40561 9.70998 8.47405 9.38519 8.64227 9.10988C8.8105 8.83457 9.06827 8.62547 9.37237 8.51767C9.67647 8.40986 10.0084 8.40991 10.3125 8.51779L8.87749 10.8662ZM10.807 7.70626C10.286 7.46978 9.69645 7.43206 9.14954 7.6002C8.60264 7.76834 8.13613 8.13073 7.83795 8.61907C7.53978 9.1074 7.43054 9.68794 7.53082 10.2513C7.63111 10.8146 7.93399 11.3217 8.38238 11.6772L7.49995 13.125L5.65425 10.1033C5.95727 9.96679 6.22779 9.76735 6.44784 9.51826C6.66789 9.26918 6.83245 8.97614 6.93059 8.65859C7.02873 8.34105 7.05822 8.00626 7.01708 7.67645C6.97595 7.34664 6.86514 7.02935 6.692 6.74564C6.51887 6.46192 6.28738 6.21828 6.01288 6.03087C5.73839 5.84347 5.42718 5.71659 5.0999 5.65865C4.77262 5.60071 4.43677 5.61305 4.11462 5.69483C3.79247 5.77662 3.49141 5.92599 3.2314 6.13302L2.85933 5.52306C4.25681 4.67001 5.86239 4.21869 7.49966 4.21869C9.13693 4.21869 10.7425 4.67001 12.14 5.52306L10.807 7.70626ZM12.6293 4.72208C11.0843 3.7798 9.3096 3.28131 7.49995 3.28131C5.69031 3.28131 3.91563 3.7798 2.37066 4.72208L1.87495 3.91232C3.57197 2.8867 5.51709 2.34457 7.49995 2.34457C9.48282 2.34457 11.4279 2.8867 13.125 3.91232L12.6293 4.72208Z" fill="#081023"/>
</g>
</svg>
