<svg width="34" height="33" viewBox="0 0 34 33" fill="none" xmlns="http://www.w3.org/2000/svg">
<path opacity="0.2" d="M24.7343 22.6875L27.3124 21.7503V23.7187C27.3124 24.8128 26.8779 25.862 26.1043 26.6356C25.3307 27.4091 24.2815 27.8437 23.1874 27.8437H10.8124C9.71843 27.8437 8.66922 27.4091 7.89563 26.6356C7.12204 25.862 6.68745 24.8128 6.68745 23.7187V21.5621L9.26557 20.625L14.4218 22.6875L19.5781 20.625L24.7343 22.6875ZM28.3205 11.122C27.4826 7.16074 22.7337 4.125 16.9999 4.125C11.2662 4.125 6.51729 7.16074 5.6794 11.122C5.64605 11.2735 5.64729 11.4305 5.68303 11.5815C5.71878 11.7324 5.78811 11.8733 5.88585 11.9937C5.9836 12.1141 6.10725 12.211 6.2476 12.277C6.38795 12.343 6.54138 12.3765 6.69647 12.375H27.3034C27.4585 12.3765 27.6119 12.343 27.7523 12.277C27.8926 12.211 28.0163 12.1141 28.114 11.9937C28.2118 11.8733 28.2811 11.7324 28.3169 11.5815C28.3526 11.4305 28.3538 11.2735 28.3205 11.122Z" fill="#207CFD"/>
<path d="M6.69652 13.4063H27.3035C27.6122 13.4078 27.9173 13.3401 28.1964 13.208C28.4754 13.0759 28.7213 12.8828 28.9157 12.6431C29.1102 12.4033 29.2484 12.1229 29.3201 11.8226C29.3918 11.5224 29.3951 11.2098 29.3299 10.908C28.3721 6.38086 23.1875 3.09375 17 3.09375C10.8125 3.09375 5.62789 6.38086 4.67012 10.908C4.60489 11.2098 4.60825 11.5224 4.67993 11.8226C4.75161 12.1229 4.88978 12.4033 5.08427 12.6431C5.27875 12.8828 5.52458 13.0759 5.80362 13.208C6.08267 13.3401 6.3878 13.4078 6.69652 13.4063ZM17 5.15625C22.133 5.15625 26.5661 7.81301 27.3035 11.3438H6.69652L6.6875 11.3347C7.43387 7.81301 11.867 5.15625 17 5.15625ZM30.053 19.6556L24.7511 21.5892L19.9648 19.6672C19.7191 19.569 19.4449 19.569 19.1991 19.6672L14.4296 21.5763L9.65234 19.6672C9.41716 19.5733 9.15562 19.5691 8.91758 19.6556L3.2457 21.7181C3.00598 21.8236 2.8154 22.0164 2.71262 22.2573C2.60985 22.4982 2.60259 22.7692 2.69232 23.0153C2.78205 23.2614 2.96205 23.4641 3.19578 23.5823C3.42951 23.7005 3.69945 23.7253 3.95082 23.6517L5.65625 23.0343V23.7188C5.65625 25.0863 6.1995 26.3978 7.16648 27.3648C8.13347 28.3318 9.44498 28.875 10.8125 28.875H23.1875C24.555 28.875 25.8665 28.3318 26.8335 27.3648C27.8005 26.3978 28.3438 25.0863 28.3438 23.7188V22.4722L30.7582 21.5944C30.8936 21.5548 31.0194 21.4878 31.1278 21.3976C31.2363 21.3074 31.3251 21.1959 31.3888 21.07C31.4524 20.9441 31.4896 20.8065 31.4979 20.6657C31.5063 20.5249 31.4857 20.3839 31.4374 20.2513C31.389 20.1188 31.314 19.9976 31.217 19.8952C31.1199 19.7928 31.0029 19.7115 30.8732 19.6561C30.7434 19.6007 30.6037 19.5726 30.4626 19.5734C30.3216 19.5742 30.1822 19.604 30.053 19.6608V19.6556ZM26.2813 23.7188C26.2813 24.5393 25.9553 25.3262 25.3751 25.9064C24.7949 26.4866 24.008 26.8125 23.1875 26.8125H10.8125C9.99199 26.8125 9.20508 26.4866 8.62489 25.9064C8.0447 25.3262 7.71875 24.5393 7.71875 23.7188V22.2853L9.24887 21.7284L14.0352 23.6453C14.2809 23.7435 14.5551 23.7435 14.8009 23.6453L19.5704 21.7362L24.3399 23.6453C24.5751 23.7392 24.8367 23.7434 25.0747 23.6569L26.2697 23.2225L26.2813 23.7188ZM2.5625 16.5C2.5625 16.2265 2.67115 15.9642 2.86455 15.7708C3.05794 15.5774 3.32025 15.4688 3.59375 15.4688H30.4063C30.6798 15.4688 30.9421 15.5774 31.1355 15.7708C31.3289 15.9642 31.4375 16.2265 31.4375 16.5C31.4375 16.7735 31.3289 17.0358 31.1355 17.2292C30.9421 17.4226 30.6798 17.5313 30.4063 17.5313H3.59375C3.32025 17.5313 3.05794 17.4226 2.86455 17.2292C2.67115 17.0358 2.5625 16.7735 2.5625 16.5Z" fill="#081023"/>
</svg>
