<svg width="15" height="15" viewBox="0 0 15 15" fill="none" xmlns="http://www.w3.org/2000/svg">
<g id="Student">
<path id="Vector" opacity="0.2" d="M13.125 3.75L7.5 5.625L1.875 3.75L7.5 1.875L13.125 3.75Z" fill="#081023"/>
<path id="Vector_2" d="M13.2732 3.30525L7.64824 1.43025C7.55202 1.39817 7.44798 1.39817 7.35176 1.43025L1.72676 3.30525C1.64168 3.33394 1.56663 3.38647 1.51054 3.45659C1.45445 3.5267 1.41967 3.61145 1.41035 3.70075C1.4076 3.71702 1.40623 3.73348 1.40625 3.74997V8.43747C1.40625 8.56179 1.45564 8.68102 1.54354 8.76893C1.63145 8.85684 1.75068 8.90622 1.875 8.90622C1.99932 8.90622 2.11855 8.85684 2.20646 8.76893C2.29436 8.68102 2.34375 8.56179 2.34375 8.43747V4.40036L4.31191 5.05603C3.789 5.90084 3.62271 6.91863 3.84957 7.88593C4.07643 8.85324 4.67788 9.69098 5.52187 10.2152C4.46719 10.6289 3.55547 11.3771 2.88867 12.4002C2.85399 12.4517 2.82991 12.5096 2.81781 12.5706C2.80571 12.6315 2.80585 12.6942 2.81821 12.7551C2.83057 12.816 2.85491 12.8738 2.88981 12.9252C2.92471 12.9766 2.96947 13.0205 3.02151 13.0545C3.07354 13.0884 3.1318 13.1117 3.1929 13.1229C3.25399 13.1341 3.31672 13.1331 3.37741 13.1198C3.43811 13.1066 3.49557 13.0814 3.54646 13.0458C3.59734 13.0102 3.64064 12.9648 3.67383 12.9123C4.55684 11.5576 5.95137 10.7812 7.5 10.7812C9.04863 10.7812 10.4432 11.5576 11.3262 12.9123C11.3949 13.0145 11.5011 13.0855 11.6218 13.11C11.7425 13.1345 11.868 13.1105 11.9712 13.0432C12.0743 12.9759 12.1469 12.8708 12.1731 12.7504C12.1993 12.6301 12.1771 12.5043 12.1113 12.4002C11.4445 11.3771 10.5293 10.6289 9.47812 10.2152C10.3213 9.691 10.9222 8.8538 11.149 7.88721C11.3758 6.92061 11.2101 5.90352 10.6881 5.05896L13.2732 4.19763C13.3666 4.16653 13.4478 4.10685 13.5053 4.02703C13.5629 3.94721 13.5939 3.8513 13.5939 3.7529C13.5939 3.6545 13.5629 3.5586 13.5053 3.47878C13.4478 3.39896 13.3666 3.33927 13.2732 3.30818V3.30525ZM10.3125 7.03122C10.3126 7.47587 10.2073 7.9142 10.0052 8.31027C9.80316 8.70633 9.51005 9.04884 9.14996 9.30969C8.78987 9.57054 8.37307 9.7423 7.93374 9.81087C7.49442 9.87945 7.0451 9.84288 6.62265 9.70418C6.20019 9.56547 5.81664 9.32858 5.50347 9.01294C5.1903 8.6973 4.95643 8.3119 4.82104 7.88837C4.68566 7.46484 4.65262 7.01525 4.72464 6.57648C4.79666 6.1377 4.97168 5.72226 5.23535 5.36423L7.35176 6.06736C7.44798 6.09943 7.55202 6.09943 7.64824 6.06736L9.76465 5.36423C10.1208 5.84704 10.3128 6.43128 10.3125 7.03122ZM7.5 5.13103L3.35742 3.74997L7.5 2.36892L11.6426 3.74997L7.5 5.13103Z" fill="#081023"/>
</g>
</svg>
