<svg width="15" height="16" viewBox="0 0 15 16" fill="none" xmlns="http://www.w3.org/2000/svg">
<path opacity="0.2" d="M11.25 7.0625C11.25 7.9896 10.9751 8.89588 10.46 9.66674C9.94495 10.4376 9.21286 11.0384 8.35633 11.3932C7.4998 11.748 6.5573 11.8408 5.64802 11.6599C4.73873 11.4791 3.9035 11.0326 3.24794 10.3771C2.59238 9.7215 2.14594 8.88627 1.96507 7.97699C1.7842 7.0677 1.87703 6.1252 2.23182 5.26867C2.5866 4.41214 3.18741 3.68006 3.95827 3.16499C4.72912 2.64992 5.6354 2.375 6.5625 2.375C7.17807 2.375 7.78762 2.49625 8.35633 2.73181C8.92504 2.96738 9.44179 3.31266 9.87706 3.74794C10.3123 4.18321 10.6576 4.69996 10.8932 5.26867C11.1288 5.83738 11.25 6.44693 11.25 7.0625Z" fill="#207CFD"/>
<path d="M13.4566 13.2933L10.5234 10.3601C11.3753 9.33844 11.8004 8.02773 11.7105 6.70061C11.6205 5.37349 11.0224 4.13215 10.0405 3.23482C9.05857 2.33749 7.76851 1.85326 6.43868 1.88287C5.10885 1.91249 3.84163 2.45366 2.90064 3.39381C1.95966 4.33396 1.41737 5.60071 1.38658 6.93051C1.35579 8.26032 1.83888 9.5508 2.73534 10.5335C3.6318 11.5162 4.87262 12.1154 6.19966 12.2066C7.52669 12.2977 8.83778 11.8737 9.86016 11.0228L12.7934 13.9565C12.8369 14.0001 12.8886 14.0346 12.9455 14.0582C13.0024 14.0818 13.0634 14.0939 13.125 14.0939C13.1866 14.0939 13.2476 14.0818 13.3045 14.0582C13.3614 14.0346 13.4131 14.0001 13.4566 13.9565C13.5002 13.913 13.5347 13.8613 13.5583 13.8044C13.5819 13.7475 13.594 13.6865 13.594 13.6249C13.594 13.5633 13.5819 13.5023 13.5583 13.4454C13.5347 13.3885 13.5002 13.3368 13.4566 13.2933ZM2.34375 7.06241C2.34375 6.22802 2.59117 5.41236 3.05474 4.71859C3.5183 4.02482 4.17718 3.4841 4.94805 3.16479C5.71893 2.84548 6.56718 2.76194 7.38554 2.92472C8.20389 3.0875 8.9556 3.4893 9.54561 4.0793C10.1356 4.6693 10.5374 5.42101 10.7002 6.23937C10.863 7.05773 10.7794 7.90598 10.4601 8.67685C10.1408 9.44773 9.60008 10.1066 8.90631 10.5702C8.21254 11.0337 7.39689 11.2812 6.5625 11.2812C5.444 11.2799 4.37166 10.835 3.58076 10.0441C2.78986 9.25324 2.34499 8.18091 2.34375 7.06241Z" fill="#081023"/>
</svg>
