<svg width="15" height="15" viewBox="0 0 15 15" fill="none" xmlns="http://www.w3.org/2000/svg">
<g id="Needle">
<path id="Vector" opacity="0.2" d="M12.1072 5.54476L10.701 6.95101C7.5 7.50003 2.34375 12.6563 2.34375 12.6563C2.34375 12.6563 7.5 7.50003 8.04902 4.29905L9.45527 2.8928C9.80694 2.54113 10.2839 2.34357 10.7812 2.34357C11.2786 2.34357 11.7556 2.54113 12.1072 2.8928C12.4589 3.24448 12.6565 3.72144 12.6565 4.21878C12.6565 4.71612 12.4589 5.19309 12.1072 5.54476Z" fill="#207CFD"/>
<path id="Vector_2" d="M11.1129 3.88711C11.1565 3.93064 11.1911 3.98234 11.2146 4.03925C11.2382 4.09615 11.2504 4.15715 11.2504 4.21875C11.2504 4.28035 11.2382 4.34135 11.2146 4.39825C11.1911 4.45516 11.1565 4.50686 11.1129 4.55039L10.1754 5.48789C10.0874 5.57585 9.96814 5.62526 9.84375 5.62526C9.71937 5.62526 9.60007 5.57585 9.51211 5.48789C9.42416 5.39994 9.37474 5.28064 9.37474 5.15625C9.37474 5.03186 9.42416 4.91257 9.51211 4.82461L10.4496 3.88711C10.4931 3.84353 10.5448 3.80895 10.6018 3.78536C10.6587 3.76177 10.7197 3.74963 10.7813 3.74963C10.8429 3.74963 10.9039 3.76177 10.9608 3.78536C11.0177 3.80895 11.0694 3.84353 11.1129 3.88711ZM13.125 4.21875C13.1259 4.52665 13.0656 4.83166 12.9477 5.1161C12.8299 5.40054 12.6567 5.65876 12.4383 5.87578L11.032 7.28203C10.9636 7.35058 10.8756 7.39622 10.7801 7.4127C7.76309 7.93067 2.72579 12.9369 2.6754 12.9879C2.58744 13.0758 2.46818 13.1251 2.34384 13.1251C2.21951 13.125 2.10029 13.0756 2.01241 12.9876C1.92453 12.8996 1.87519 12.7804 1.87524 12.656C1.8753 12.5317 1.92474 12.4125 2.0127 12.3246C2.10938 12.2303 7.07168 7.22344 7.58731 4.21875C7.60378 4.12328 7.64943 4.03526 7.71797 3.9668L9.12422 2.56055C9.45207 2.2328 9.86975 2.00964 10.3244 1.91928C10.7791 1.82892 11.2504 1.87544 11.6786 2.05293C12.1069 2.23043 12.4729 2.53094 12.7303 2.91645C12.9878 3.30197 13.1251 3.75517 13.125 4.21875ZM12.1875 4.21875C12.1882 3.94012 12.1061 3.66756 11.9516 3.43567C11.7971 3.20378 11.5773 3.023 11.3199 2.91628C11.0625 2.80956 10.7792 2.78171 10.506 2.83625C10.2327 2.8908 9.98184 3.02529 9.78516 3.22266L8.48262 4.52871C8.22422 5.76797 7.3752 7.23516 6.40313 8.59688C7.76485 7.62481 9.23204 6.77578 10.4713 6.51738L11.7773 5.21484C11.9082 5.08421 12.0119 4.92889 12.0823 4.75791C12.1527 4.58692 12.1884 4.40366 12.1875 4.21875Z" fill="#081023"/>
</g>
</svg>
