<svg width="15" height="15" viewBox="0 0 15 15" fill="none" xmlns="http://www.w3.org/2000/svg">
<g id="GenderIntersex">
<path id="Vector" opacity="0.2" d="M10.3125 6.5625C10.3125 7.21147 10.1201 7.84587 9.75951 8.38546C9.39896 8.92506 8.8865 9.34563 8.28693 9.59398C7.68736 9.84233 7.02761 9.90731 6.39111 9.7807C5.75461 9.65409 5.16995 9.34158 4.71106 8.88269C4.25217 8.4238 3.93966 7.83914 3.81305 7.20264C3.68644 6.56614 3.75142 5.90639 3.99977 5.30682C4.24812 4.70725 4.66869 4.19479 5.20829 3.83424C5.74789 3.47369 6.38228 3.28125 7.03125 3.28125C7.90149 3.28125 8.73609 3.62695 9.35145 4.24231C9.9668 4.85766 10.3125 5.69226 10.3125 6.5625Z" fill="#081023"/>
<path id="Vector_2" d="M12.1873 1.40625H9.8436C9.71928 1.40625 9.60005 1.45564 9.51214 1.54354C9.42423 1.63145 9.37485 1.75068 9.37485 1.875C9.37485 1.99932 9.42423 2.11855 9.51214 2.20646C9.60005 2.29436 9.71928 2.34375 9.8436 2.34375H11.0559L9.58227 3.81738C9.14957 3.41414 8.62762 3.11896 8.05905 2.95596C7.49048 2.79297 6.89142 2.76677 6.31079 2.87952C5.73016 2.99227 5.18444 3.24077 4.7182 3.60471C4.25195 3.96865 3.87841 4.43772 3.62807 4.97361C3.37774 5.50949 3.25771 6.09699 3.2778 6.68812C3.29789 7.27925 3.45752 7.85725 3.74366 8.3749C4.02979 8.89256 4.43432 9.33518 4.9242 9.66663C5.41407 9.99809 5.97541 10.209 6.56235 10.282V11.25H5.1561C5.03178 11.25 4.91255 11.2994 4.82464 11.3873C4.73674 11.4752 4.68735 11.5944 4.68735 11.7188C4.68735 11.8431 4.73674 11.9623 4.82464 12.0502C4.91255 12.1381 5.03178 12.1875 5.1561 12.1875H6.56235V13.5938C6.56235 13.7181 6.61173 13.8373 6.69964 13.9252C6.78755 14.0131 6.90678 14.0625 7.0311 14.0625C7.15542 14.0625 7.27465 14.0131 7.36256 13.9252C7.45046 13.8373 7.49985 13.7181 7.49985 13.5938V12.1875H8.9061C9.03042 12.1875 9.14965 12.1381 9.23756 12.0502C9.32546 11.9623 9.37485 11.8431 9.37485 11.7188C9.37485 11.5944 9.32546 11.4752 9.23756 11.3873C9.14965 11.2994 9.03042 11.25 8.9061 11.25H7.49985V10.282C8.12816 10.2035 8.72632 9.96704 9.23842 9.59462C9.75052 9.2222 10.1598 8.72603 10.4281 8.15247C10.6964 7.57892 10.8149 6.94671 10.7725 6.31493C10.7301 5.68315 10.5283 5.07243 10.1858 4.53984L11.7186 3.00645V4.21875C11.7186 4.34307 11.768 4.4623 11.8559 4.55021C11.9438 4.63811 12.063 4.6875 12.1873 4.6875C12.3117 4.6875 12.4309 4.63811 12.5188 4.55021C12.6067 4.4623 12.6561 4.34307 12.6561 4.21875V1.875C12.6561 1.75068 12.6067 1.63145 12.5188 1.54354C12.4309 1.45564 12.3117 1.40625 12.1873 1.40625ZM7.0311 9.375C6.47484 9.375 5.93107 9.21005 5.46856 8.90101C5.00604 8.59197 4.64556 8.15271 4.43269 7.6388C4.21982 7.12488 4.16412 6.55938 4.27264 6.01381C4.38116 5.46824 4.64903 4.9671 5.04236 4.57376C5.4357 4.18043 5.93684 3.91256 6.48241 3.80404C7.02798 3.69552 7.59348 3.75122 8.1074 3.96409C8.62131 4.17696 9.06057 4.53745 9.36961 4.99996C9.67865 5.46247 9.8436 6.00624 9.8436 6.5625C9.84282 7.30818 9.54626 8.0231 9.01898 8.55038C8.4917 9.07766 7.77678 9.37422 7.0311 9.375Z" fill="#081023"/>
</g>
</svg>
