<svg width="15" height="15" viewBox="0 0 15 15" fill="none" xmlns="http://www.w3.org/2000/svg">
<g id="Sneaker">
<path id="Vector" opacity="0.2" d="M14.5313 9.78869V9.84376H1.875V4.42619C1.87476 4.32972 1.90428 4.23553 1.95954 4.15646C2.01481 4.0774 2.09312 4.01731 2.18379 3.98439L6.6211 2.37189C6.73232 2.33209 6.85447 2.33575 6.9631 2.38214C7.07174 2.42853 7.15886 2.51422 7.20703 2.62208L8.57051 5.80665C8.67633 6.04473 8.8306 6.25815 9.0235 6.43328C9.21639 6.60842 9.44366 6.74143 9.69082 6.82384L13.2492 8.01037C13.6225 8.13479 13.9471 8.37348 14.1772 8.69264C14.4073 9.01179 14.5312 9.39524 14.5313 9.78869Z" fill="#207CFD"/>
<path id="Vector_2" d="M13.3975 7.565L9.83906 6.37906C9.65402 6.31725 9.48386 6.2176 9.33941 6.08647C9.19495 5.95533 9.07937 5.79557 9 5.61735L7.64004 2.43746C7.64004 2.43746 7.64004 2.43336 7.64004 2.4316C7.5432 2.21439 7.36742 2.0421 7.14832 1.94963C6.92921 1.85716 6.68315 1.85141 6.45996 1.93356L2.02324 3.5443C1.84262 3.61046 1.68662 3.73041 1.5763 3.88799C1.46597 4.04557 1.40662 4.23319 1.40625 4.42555V11.25C1.40625 11.4986 1.50502 11.7371 1.68084 11.9129C1.85665 12.0887 2.09511 12.1875 2.34375 12.1875H14.0625C14.3111 12.1875 14.5496 12.0887 14.7254 11.9129C14.9012 11.7371 15 11.4986 15 11.25V9.78863C15 9.2967 14.8453 8.81723 14.5577 8.41814C14.27 8.01905 13.8641 7.72058 13.3975 7.565ZM2.34375 4.42555L6.78047 2.81246L7.19707 3.78688L5.93379 4.24684C5.83016 4.28445 5.7431 4.35738 5.68792 4.45282C5.63273 4.54826 5.61295 4.66009 5.63205 4.76867C5.65115 4.87725 5.70791 4.97562 5.79235 5.0465C5.87679 5.11737 5.98351 5.15622 6.09375 5.15621C6.14834 5.15614 6.2025 5.14642 6.25371 5.1275L7.56621 4.65055L7.84395 5.29918L6.87129 5.65074C6.76597 5.68716 6.67706 5.75991 6.62052 5.85594C6.56398 5.95197 6.54351 6.065 6.56276 6.17477C6.58202 6.28453 6.63975 6.38384 6.72561 6.45489C6.81146 6.52594 6.91982 6.56408 7.03125 6.56246C7.08584 6.56239 7.14 6.55267 7.19121 6.53375L8.22246 6.15875C8.34059 6.37659 8.49247 6.57436 8.67246 6.74469L7.80879 7.05875C7.70475 7.09608 7.61725 7.16897 7.56173 7.26455C7.50622 7.36013 7.48627 7.47226 7.50541 7.58112C7.52455 7.68999 7.58154 7.78859 7.66632 7.85951C7.7511 7.93043 7.85822 7.96911 7.96875 7.96871C8.02329 7.96855 8.07739 7.95904 8.12871 7.94059L9.76934 7.3441L13.1016 8.45445C13.3137 8.52539 13.5059 8.64591 13.6621 8.806C13.8183 8.9661 13.9341 9.16115 13.9998 9.37496H2.34375V4.42555ZM14.0625 11.25H2.34375V10.3125H14.0625V11.25Z" fill="#081023"/>
</g>
</svg>
