<svg width="15" height="16" viewBox="0 0 15 16" fill="none" xmlns="http://www.w3.org/2000/svg">
<path opacity="0.2" d="M12.6562 4.25L11.9437 8.16758C11.9045 8.38359 11.7907 8.57898 11.6221 8.71968C11.4536 8.86038 11.241 8.93747 11.0215 8.9375H3.66502L2.81248 4.25H12.6562Z" fill="#207CFD"/>
<path d="M13.016 3.94941C12.972 3.89676 12.917 3.85441 12.8549 3.82535C12.7927 3.79629 12.7249 3.78124 12.6563 3.78125H3.20394L2.91741 2.20742C2.87817 1.99141 2.76435 1.79602 2.59581 1.65532C2.42727 1.51462 2.2147 1.43753 1.99515 1.4375H0.93753C0.81321 1.4375 0.693982 1.48689 0.606074 1.57479C0.518167 1.6627 0.468781 1.78193 0.468781 1.90625C0.468781 2.03057 0.518167 2.1498 0.606074 2.23771C0.693982 2.32561 0.81321 2.375 0.93753 2.375H1.99222L3.48987 10.5951C3.53399 10.8389 3.64173 11.0667 3.80218 11.2555C3.58072 11.4623 3.42088 11.7265 3.34038 12.0186C3.25987 12.3107 3.26186 12.6195 3.3461 12.9106C3.43035 13.2016 3.59357 13.4637 3.81766 13.6677C4.04176 13.8717 4.31797 14.0096 4.61567 14.0662C4.91337 14.1228 5.22093 14.0958 5.50424 13.9883C5.78755 13.8808 6.03554 13.6969 6.22072 13.457C6.4059 13.2171 6.52102 12.9307 6.55332 12.6293C6.58563 12.328 6.53386 12.0237 6.40374 11.75H9.06507C8.9602 11.9695 8.90594 12.2098 8.90628 12.4531C8.90628 12.7776 9.0025 13.0948 9.18278 13.3646C9.36305 13.6344 9.61928 13.8447 9.91907 13.9689C10.2189 14.093 10.5487 14.1255 10.867 14.0622C11.1852 13.9989 11.4776 13.8427 11.707 13.6132C11.9364 13.3838 12.0927 13.0914 12.156 12.7732C12.2193 12.4549 12.1868 12.1251 12.0626 11.8253C11.9385 11.5255 11.7282 11.2693 11.4584 11.089C11.1886 10.9087 10.8714 10.8125 10.5469 10.8125H4.87327C4.7635 10.8125 4.65721 10.7739 4.57294 10.7036C4.48867 10.6332 4.43176 10.5355 4.41214 10.4275L4.2264 9.40625H11.0233C11.3526 9.4062 11.6715 9.29057 11.9243 9.07952C12.1771 8.86847 12.3478 8.57539 12.4067 8.25137L13.1192 4.33379C13.1312 4.26608 13.1282 4.19654 13.1104 4.13011C13.0926 4.06369 13.0604 4.00199 13.016 3.94941ZM5.62503 12.4531C5.62503 12.5922 5.58379 12.7281 5.50653 12.8438C5.42927 12.9594 5.31946 13.0495 5.19098 13.1027C5.0625 13.1559 4.92113 13.1699 4.78473 13.1427C4.64834 13.1156 4.52305 13.0486 4.42472 12.9503C4.32639 12.852 4.25942 12.7267 4.23229 12.5903C4.20516 12.4539 4.21908 12.3125 4.2723 12.1841C4.32552 12.0556 4.41564 11.9458 4.53127 11.8685C4.6469 11.7912 4.78284 11.75 4.92191 11.75C5.10839 11.75 5.28723 11.8241 5.41909 11.9559C5.55095 12.0878 5.62503 12.2666 5.62503 12.4531ZM11.25 12.4531C11.25 12.5922 11.2088 12.7281 11.1315 12.8438C11.0543 12.9594 10.9445 13.0495 10.816 13.1027C10.6875 13.1559 10.5461 13.1699 10.4097 13.1427C10.2733 13.1156 10.1481 13.0486 10.0497 12.9503C9.95139 12.852 9.88442 12.7267 9.85729 12.5903C9.83016 12.4539 9.84408 12.3125 9.8973 12.1841C9.95052 12.0556 10.0406 11.9458 10.1563 11.8685C10.2719 11.7912 10.4078 11.75 10.5469 11.75C10.7334 11.75 10.9122 11.8241 11.0441 11.9559C11.176 12.0878 11.25 12.2666 11.25 12.4531ZM11.4844 8.08379C11.4647 8.19209 11.4076 8.29002 11.3229 8.36041C11.2383 8.43079 11.1316 8.46915 11.0215 8.46875H4.05589L3.37444 4.71875H12.0944L11.4844 8.08379Z" fill="#081023"/>
</svg>
