<svg width="15" height="15" viewBox="0 0 15 15" fill="none" xmlns="http://www.w3.org/2000/svg">
<g id="Trophy">
<path id="Vector" opacity="0.2" d="M11.7188 3.28125V6.50977C11.7188 8.83594 9.8584 10.7637 7.53223 10.7812C6.97551 10.7855 6.42345 10.6795 5.90788 10.4694C5.39231 10.2593 4.92343 9.94923 4.52827 9.55706C4.1331 9.16489 3.81946 8.69838 3.60544 8.18442C3.39141 7.67047 3.28123 7.11924 3.28125 6.5625V3.28125C3.28125 3.15693 3.33064 3.0377 3.41854 2.94979C3.50645 2.86189 3.62568 2.8125 3.75 2.8125H11.25C11.3743 2.8125 11.4936 2.86189 11.5815 2.94979C11.6694 3.0377 11.7188 3.15693 11.7188 3.28125Z" fill="#081023"/>
<path id="Vector_2" d="M13.5937 3.75H12.1875V3.28125C12.1875 3.03261 12.0887 2.79415 11.9129 2.61834C11.7371 2.44252 11.4986 2.34375 11.25 2.34375H3.75C3.50136 2.34375 3.2629 2.44252 3.08709 2.61834C2.91127 2.79415 2.8125 3.03261 2.8125 3.28125V3.75H1.40625C1.15761 3.75 0.919153 3.84877 0.743337 4.02459C0.567522 4.2004 0.46875 4.43886 0.46875 4.6875V5.625C0.46875 6.2466 0.71568 6.84274 1.15522 7.28228C1.37286 7.49992 1.63123 7.67256 1.91559 7.79034C2.19994 7.90813 2.50471 7.96875 2.8125 7.96875H3.02637C3.30249 8.8438 3.82896 9.61876 4.54072 10.1979C5.25248 10.7769 6.11833 11.1348 7.03125 11.2271V12.6562H5.625C5.50068 12.6562 5.38145 12.7056 5.29354 12.7935C5.20564 12.8815 5.15625 13.0007 5.15625 13.125C5.15625 13.2493 5.20564 13.3685 5.29354 13.4565C5.38145 13.5444 5.50068 13.5938 5.625 13.5938H9.375C9.49932 13.5938 9.61855 13.5444 9.70646 13.4565C9.79436 13.3685 9.84375 13.2493 9.84375 13.125C9.84375 13.0007 9.79436 12.8815 9.70646 12.7935C9.61855 12.7056 9.49932 12.6562 9.375 12.6562H7.96875V11.2254C9.84023 11.0361 11.393 9.72305 11.9578 7.96875H12.1875C12.8091 7.96875 13.4052 7.72182 13.8448 7.28228C14.2843 6.84274 14.5312 6.2466 14.5312 5.625V4.6875C14.5312 4.43886 14.4325 4.2004 14.2567 4.02459C14.0808 3.84877 13.8424 3.75 13.5937 3.75ZM2.8125 7.03125C2.43954 7.03125 2.08185 6.88309 1.81813 6.61937C1.55441 6.35565 1.40625 5.99796 1.40625 5.625V4.6875H2.8125V6.5625C2.8125 6.71875 2.82012 6.875 2.83535 7.03125H2.8125ZM11.25 6.50977C11.25 8.59102 9.58066 10.2973 7.52871 10.3125H7.5C6.50544 10.3125 5.55161 9.91741 4.84835 9.21415C4.14509 8.51089 3.75 7.55706 3.75 6.5625V3.28125H11.25V6.50977ZM13.5937 5.625C13.5937 5.99796 13.4456 6.35565 13.1819 6.61937C12.9181 6.88309 12.5605 7.03125 12.1875 7.03125H12.1582C12.1774 6.85808 12.1872 6.684 12.1875 6.50977V4.6875H13.5937V5.625Z" fill="#081023"/>
</g>
</svg>
