<svg width="15" height="16" viewBox="0 0 15 16" fill="none" xmlns="http://www.w3.org/2000/svg">
<path opacity="0.2" d="M10.7888 9.23124C10.7245 9.29144 10.6768 9.36907 10.6506 9.4559C10.6244 9.54272 10.6207 9.6355 10.64 9.72437L11.4321 13.3831C11.4531 13.4787 11.4472 13.5787 11.4152 13.6707C11.3832 13.7627 11.3266 13.8427 11.2523 13.9006C11.178 13.9585 11.0894 13.9918 10.9975 13.9964C10.9056 14.0009 10.8145 13.9765 10.7355 13.9262L7.74133 11.9887C7.66857 11.9416 7.58507 11.9166 7.49992 11.9166C7.41477 11.9166 7.33127 11.9416 7.25851 11.9887L4.26437 13.9262C4.18537 13.9765 4.09424 14.0009 4.00234 13.9964C3.91044 13.9918 3.82183 13.9585 3.74755 13.9006C3.67327 13.8427 3.61661 13.7627 3.58463 13.6707C3.55265 13.5787 3.54676 13.4787 3.56769 13.3831L4.35988 9.72437C4.37914 9.6355 4.37547 9.54272 4.34926 9.4559C4.32306 9.36907 4.2753 9.29144 4.21105 9.23124L1.56789 6.77187C1.49722 6.7078 1.44596 6.62282 1.42059 6.52767C1.39522 6.43253 1.39688 6.33149 1.42536 6.23735C1.45384 6.1432 1.50786 6.06019 1.58058 5.9988C1.6533 5.93742 1.74146 5.90042 1.8339 5.89249L5.31789 5.57124C5.40289 5.56317 5.48421 5.53049 5.55308 5.47675C5.62195 5.423 5.67576 5.35021 5.70871 5.26624L7.06984 1.80624C7.1062 1.71679 7.16628 1.64062 7.24269 1.58712C7.3191 1.53362 7.40852 1.50511 7.49992 1.50511C7.59133 1.50511 7.68074 1.53362 7.75715 1.58712C7.83356 1.64062 7.89364 1.71679 7.93 1.80624L9.29113 5.26624C9.32408 5.35021 9.37789 5.423 9.44676 5.47675C9.51563 5.53049 9.59695 5.56317 9.68195 5.57124L13.1659 5.89249C13.2584 5.90042 13.3465 5.93742 13.4193 5.9988C13.492 6.06019 13.546 6.1432 13.5745 6.23735C13.603 6.33149 13.6046 6.43253 13.5792 6.52767C13.5539 6.62282 13.5026 6.7078 13.432 6.77187L10.7888 9.23124Z" fill="#081023"/>
<path d="M14.0156 6.08062C13.9589 5.89399 13.8519 5.72929 13.708 5.60704C13.5641 5.4848 13.3897 5.4104 13.2065 5.39312L9.72658 5.07312L8.36251 1.61312C8.29149 1.43157 8.1717 1.27649 8.01823 1.16741C7.86475 1.05833 7.68444 1.00012 7.50001 1.00012C7.31559 1.00012 7.13528 1.05833 6.9818 1.16741C6.82832 1.27649 6.70853 1.43157 6.63751 1.61312L5.27755 5.07312L1.79357 5.395C1.6096 5.41149 1.4343 5.48554 1.28964 5.60788C1.14497 5.73022 1.03739 5.89539 0.980387 6.08269C0.92338 6.26999 0.919484 6.47107 0.969186 6.66071C1.01889 6.85036 1.11998 7.02014 1.25978 7.14875L3.90294 9.6125L3.11076 13.2712C3.06887 13.4627 3.08082 13.6631 3.14512 13.8474C3.20942 14.0316 3.32321 14.1916 3.47228 14.3072C3.62134 14.4229 3.79905 14.4891 3.9832 14.4976C4.16735 14.5061 4.34976 14.4565 4.50763 14.355L7.49591 12.4175L10.4906 14.355C10.6485 14.4565 10.8309 14.5061 11.0151 14.4976C11.1992 14.4891 11.3769 14.4229 11.526 14.3072C11.6751 14.1916 11.7888 14.0316 11.8531 13.8474C11.9174 13.6631 11.9294 13.4627 11.8875 13.2712L11.0959 9.60875L13.7385 7.14875C13.8783 7.01969 13.9792 6.84944 14.0285 6.65938C14.0778 6.46933 14.0733 6.26797 14.0156 6.08062ZM13.1238 6.39312L10.4813 8.85312C10.3527 8.97246 10.257 9.12694 10.2045 9.29994C10.1521 9.47295 10.1448 9.65793 10.1836 9.835L10.9776 13.5L7.98517 11.5625C7.83918 11.4677 7.67153 11.4175 7.5006 11.4175C7.32966 11.4175 7.16202 11.4677 7.01603 11.5625L4.02775 13.5L4.81642 9.8375C4.85518 9.66043 4.84795 9.47545 4.7955 9.30244C4.74305 9.12944 4.64738 8.97496 4.51876 8.85562L1.87501 6.39687C1.8748 6.395 1.8748 6.39312 1.87501 6.39125L5.35783 6.07C5.52787 6.05401 5.69059 5.98881 5.82844 5.88142C5.96629 5.77403 6.07403 5.62853 6.14005 5.46062L7.50001 2.005L8.85939 5.46062C8.92541 5.62853 9.03315 5.77403 9.171 5.88142C9.30885 5.98881 9.47157 6.05401 9.64161 6.07L13.125 6.39125C13.125 6.39125 13.125 6.395 13.125 6.39562L13.1238 6.39312Z" fill="#081023"/>
</svg>
