<svg width="34" height="33" viewBox="0 0 34 33" fill="none" xmlns="http://www.w3.org/2000/svg">
<path opacity="0.2" d="M24.2354 19.0396C24.0941 19.1638 23.989 19.3239 23.9314 19.503C23.8737 19.6821 23.8656 19.8734 23.908 20.0567L25.6508 27.6029C25.6969 27.8 25.6839 28.0063 25.6136 28.196C25.5432 28.3858 25.4185 28.5507 25.2551 28.6701C25.0917 28.7896 24.8968 28.8583 24.6946 28.8677C24.4924 28.8771 24.2919 28.8268 24.1181 28.7231L17.531 24.727C17.371 24.6297 17.1872 24.5782 16.9999 24.5782C16.8126 24.5782 16.6289 24.6297 16.4688 24.727L9.88172 28.7231C9.70792 28.8268 9.50743 28.8771 9.30525 28.8677C9.10307 28.8583 8.90812 28.7896 8.74471 28.6701C8.5813 28.5507 8.45665 28.3858 8.38629 28.196C8.31593 28.0063 8.30297 27.8 8.34902 27.6029L10.0918 20.0567C10.1342 19.8734 10.1261 19.6821 10.0685 19.503C10.0108 19.3239 9.90576 19.1638 9.76441 19.0396L3.94945 13.9672C3.79399 13.835 3.68122 13.6598 3.6254 13.4635C3.56958 13.2673 3.57323 13.0589 3.63589 12.8647C3.69854 12.6706 3.81738 12.4993 3.97737 12.3727C4.13736 12.2461 4.33132 12.1698 4.53469 12.1535L12.1995 11.4909C12.3865 11.4742 12.5654 11.4068 12.7169 11.296C12.8684 11.1851 12.9868 11.035 13.0593 10.8618L16.0538 3.72558C16.1337 3.54108 16.2659 3.38398 16.434 3.27363C16.6021 3.16328 16.7988 3.10449 16.9999 3.10449C17.201 3.10449 17.3977 3.16328 17.5658 3.27363C17.7339 3.38398 17.8661 3.54108 17.9461 3.72558L20.9406 10.8618C21.0131 11.035 21.1314 11.1851 21.283 11.296C21.4345 11.4068 21.6134 11.4742 21.8004 11.4909L29.4652 12.1535C29.6685 12.1698 29.8625 12.2461 30.0225 12.3727C30.1825 12.4993 30.3013 12.6706 30.364 12.8647C30.4266 13.0589 30.4303 13.2673 30.3744 13.4635C30.3186 13.6598 30.2059 13.835 30.0504 13.9672L24.2354 19.0396Z" fill="#207CFD"/>
<path d="M31.3344 12.5415C31.2095 12.1566 30.9741 11.8169 30.6576 11.5648C30.341 11.3126 29.9573 11.1592 29.5542 11.1236L21.8984 10.4636L18.8975 3.3273C18.7413 2.95285 18.4777 2.633 18.1401 2.40802C17.8024 2.18304 17.4057 2.06299 17 2.06299C16.5943 2.06299 16.1976 2.18304 15.8599 2.40802C15.5223 2.633 15.2587 2.95285 15.1025 3.3273L12.1106 10.4636L4.44582 11.1274C4.0411 11.1614 3.65543 11.3142 3.33718 11.5665C3.01892 11.8188 2.78224 12.1595 2.65683 12.5458C2.53141 12.9321 2.52284 13.3468 2.63219 13.738C2.74153 14.1291 2.96393 14.4793 3.27149 14.7445L9.08645 19.826L7.34364 27.3722C7.25148 27.7671 7.27778 28.1804 7.41924 28.5604C7.5607 28.9404 7.81105 29.2703 8.13898 29.5089C8.46692 29.7474 8.85789 29.884 9.26302 29.9015C9.66815 29.919 10.0695 29.8167 10.4168 29.6074L16.991 25.6113L23.5794 29.6074C23.9267 29.8167 24.328 29.919 24.7331 29.9015C25.1383 29.884 25.5292 29.7474 25.8572 29.5089C26.1851 29.2703 26.4354 28.9404 26.5769 28.5604C26.7184 28.1804 26.7447 27.7671 26.6525 27.3722L24.911 19.8183L30.7247 14.7445C31.0322 14.4784 31.2541 14.1272 31.3626 13.7352C31.4711 13.3432 31.4613 12.9279 31.3344 12.5415ZM29.3724 13.1861L23.5588 18.2598C23.2758 18.5059 23.0653 18.8245 22.9499 19.1814C22.8346 19.5382 22.8186 19.9197 22.9039 20.2849L24.6506 27.844L18.0673 23.8479C17.7462 23.6523 17.3774 23.5488 17.0013 23.5488C16.6252 23.5488 16.2564 23.6523 15.9352 23.8479L9.36102 27.844L11.0961 20.2901C11.1814 19.9249 11.1655 19.5434 11.0501 19.1865C10.9347 18.8297 10.7242 18.5111 10.4413 18.265L4.625 13.1938C4.62453 13.1899 4.62453 13.186 4.625 13.1822L12.2872 12.5196C12.6613 12.4866 13.0193 12.3521 13.3225 12.1307C13.6258 11.9092 13.8628 11.6091 14.0081 11.2628L17 4.13554L19.9906 11.2628C20.1359 11.6091 20.3729 11.9092 20.6762 12.1307C20.9795 12.3521 21.3374 12.4866 21.7115 12.5196L29.375 13.1822C29.375 13.1822 29.375 13.1899 29.375 13.1912L29.3724 13.1861Z" fill="#081023"/>
</svg>
