<svg width="16" height="15" viewBox="0 0 16 15" fill="none" xmlns="http://www.w3.org/2000/svg">
<g id="Circuitry">
<path id="Vector" opacity="0.2" d="M13 2.34375H3C2.86739 2.34375 2.74021 2.39314 2.64645 2.48104C2.55268 2.56895 2.5 2.68818 2.5 2.8125V12.1875C2.5 12.3118 2.55268 12.431 2.64645 12.519C2.74021 12.6069 2.86739 12.6562 3 12.6562H13C13.1326 12.6562 13.2598 12.6069 13.3536 12.519C13.4473 12.431 13.5 12.3118 13.5 12.1875V2.8125C13.5 2.68818 13.4473 2.56895 13.3536 2.48104C13.2598 2.39314 13.1326 2.34375 13 2.34375ZM5.5 10.7812C5.30222 10.7812 5.10888 10.7263 4.94443 10.6233C4.77998 10.5202 4.65181 10.3738 4.57612 10.2025C4.50043 10.0312 4.48063 9.84271 4.51921 9.66085C4.5578 9.479 4.65304 9.31195 4.79289 9.18084C4.93275 9.04973 5.11093 8.96044 5.30491 8.92426C5.49889 8.88809 5.69996 8.90666 5.88268 8.97761C6.06541 9.04857 6.22159 9.16873 6.33147 9.3229C6.44135 9.47707 6.5 9.65833 6.5 9.84375C6.5 10.0924 6.39464 10.3308 6.20711 10.5067C6.01957 10.6825 5.76522 10.7812 5.5 10.7812ZM10.5 7.03125C10.3022 7.03125 10.1089 6.97627 9.94443 6.87325C9.77998 6.77024 9.65181 6.62382 9.57612 6.45252C9.50043 6.28121 9.48063 6.09271 9.51921 5.91085C9.5578 5.729 9.65304 5.56195 9.79289 5.43084C9.93275 5.29973 10.1109 5.21044 10.3049 5.17426C10.4989 5.13809 10.7 5.15666 10.8827 5.22761C11.0654 5.29857 11.2216 5.41873 11.3315 5.5729C11.4414 5.72707 11.5 5.90833 11.5 6.09375C11.5 6.34239 11.3946 6.58085 11.2071 6.75666C11.0196 6.93248 10.7652 7.03125 10.5 7.03125Z" fill="#207CFD"/>
<path id="Vector_2" d="M13 1.875H3C2.73478 1.875 2.48043 1.97377 2.29289 2.14959C2.10536 2.3254 2 2.56386 2 2.8125V12.1875C2 12.4361 2.10536 12.6746 2.29289 12.8504C2.48043 13.0262 2.73478 13.125 3 13.125H13C13.2652 13.125 13.5196 13.0262 13.7071 12.8504C13.8946 12.6746 14 12.4361 14 12.1875V2.8125C14 2.56386 13.8946 2.3254 13.7071 2.14959C13.5196 1.97377 13.2652 1.875 13 1.875ZM5.5 9.375C5.59889 9.375 5.69556 9.40249 5.77779 9.454C5.86001 9.50551 5.9241 9.57871 5.96194 9.66437C5.99978 9.75002 6.00969 9.84427 5.99039 9.9352C5.9711 10.0261 5.92348 10.1097 5.85355 10.1752C5.78363 10.2408 5.69454 10.2854 5.59755 10.3035C5.50055 10.3216 5.40002 10.3123 5.30866 10.2768C5.2173 10.2413 5.13921 10.1813 5.08427 10.1042C5.02932 10.0271 5 9.93646 5 9.84375C5 9.71943 5.05268 9.6002 5.14645 9.51229C5.24021 9.42439 5.36739 9.375 5.5 9.375ZM3 2.8125H5V8.51836C4.66639 8.62894 4.38522 8.84652 4.20618 9.13265C4.02715 9.41878 3.96177 9.75503 4.0216 10.082C4.08144 10.4089 4.26264 10.7055 4.53317 10.9193C4.8037 11.1332 5.14616 11.2504 5.5 11.2504C5.85384 11.2504 6.1963 11.1332 6.46683 10.9193C6.73736 10.7055 6.91856 10.4089 6.9784 10.082C7.03823 9.75503 6.97285 9.41878 6.79382 9.13265C6.61478 8.84652 6.33361 8.62894 6 8.51836V6.75645L9 9.56895V12.1875H3V2.8125ZM13 12.1875H10V9.375C10.0001 9.31343 9.98716 9.25244 9.96207 9.19554C9.93697 9.13864 9.90017 9.08692 9.85375 9.04336L6 5.43106V2.8125H8V4.21875C7.99995 4.28033 8.01284 4.34131 8.03793 4.39821C8.06303 4.45511 8.09983 4.50683 8.14625 4.55039L9.14625 5.48789C9.04941 5.67693 8.99941 5.88404 9 6.09375C9 6.37188 9.08797 6.64376 9.2528 6.87502C9.41762 7.10628 9.65189 7.28652 9.92597 7.39296C10.2001 7.49939 10.5017 7.52724 10.7926 7.47298C11.0836 7.41872 11.3509 7.28479 11.5607 7.08812C11.7704 6.89145 11.9133 6.64088 11.9712 6.3681C12.0291 6.09531 11.9994 5.81256 11.8858 5.5556C11.7723 5.29864 11.58 5.07902 11.3334 4.9245C11.0867 4.76998 10.7967 4.6875 10.5 4.6875C10.2763 4.68713 10.0553 4.73421 9.85375 4.8252L9 4.02481V2.8125H13V12.1875ZM10.5 5.625C10.5989 5.625 10.6956 5.65249 10.7778 5.704C10.86 5.75551 10.9241 5.82871 10.9619 5.91437C10.9998 6.00002 11.0097 6.09427 10.9904 6.1852C10.9711 6.27613 10.9235 6.35965 10.8536 6.42521C10.7836 6.49076 10.6945 6.53541 10.5975 6.55349C10.5006 6.57158 10.4 6.5623 10.3087 6.52682C10.2173 6.49134 10.1392 6.43126 10.0843 6.35417C10.0293 6.27709 10 6.18646 10 6.09375C10 5.96943 10.0527 5.8502 10.1464 5.76229C10.2402 5.67439 10.3674 5.625 10.5 5.625Z" fill="#081023"/>
</g>
</svg>
