<svg width="15" height="16" viewBox="0 0 15 16" fill="none" xmlns="http://www.w3.org/2000/svg">
<path opacity="0.2" d="M12.6563 8.46875C12.6563 9.48856 12.3538 10.4855 11.7873 11.3334C11.2207 12.1814 10.4154 12.8422 9.47321 13.2325C8.53103 13.6228 7.49428 13.7249 6.49407 13.5259C5.49385 13.327 4.5751 12.8359 3.85398 12.1148C3.13287 11.3937 2.64178 10.4749 2.44283 9.47468C2.24387 8.47447 2.34598 7.43772 2.73625 6.49554C3.12651 5.55336 3.7874 4.74806 4.63534 4.18148C5.48328 3.61491 6.48019 3.3125 7.5 3.3125C8.86752 3.3125 10.179 3.85575 11.146 4.82273C12.113 5.78972 12.6563 7.10123 12.6563 8.46875Z" fill="#207CFD"/>
<path d="M7.5 2.84375C6.38748 2.84375 5.29995 3.17365 4.37492 3.79173C3.44989 4.40982 2.72892 5.28832 2.30318 6.31616C1.87744 7.34399 1.76604 8.47499 1.98309 9.56613C2.20013 10.6573 2.73586 11.6596 3.52253 12.4462C4.3092 13.2329 5.31148 13.7686 6.40262 13.9857C7.49376 14.2027 8.62476 14.0913 9.6526 13.6656C10.6804 13.2398 11.5589 12.5189 12.177 11.5938C12.7951 10.6688 13.125 9.58127 13.125 8.46875C13.1233 6.97743 12.5301 5.54768 11.4756 4.49316C10.4211 3.43864 8.99132 2.84546 7.5 2.84375ZM7.5 13.1562C6.5729 13.1563 5.66662 12.8813 4.89577 12.3663C4.12491 11.8512 3.5241 11.1191 3.16932 10.2626C2.81453 9.40605 2.7217 8.46355 2.90257 7.55426C3.08344 6.64498 3.52988 5.80975 4.18544 5.15419C4.841 4.49863 5.67623 4.05219 6.58552 3.87132C7.4948 3.69045 8.4373 3.78328 9.29383 4.13806C10.1504 4.49285 10.8824 5.09366 11.3975 5.86451C11.9126 6.63537 12.1875 7.54165 12.1875 8.46875C12.1861 9.71152 11.6918 10.903 10.813 11.7818C9.93425 12.6605 8.74278 13.1549 7.5 13.1562ZM10.1754 5.79336C10.219 5.83689 10.2536 5.88859 10.2771 5.9455C10.3007 6.0024 10.3129 6.0634 10.3129 6.125C10.3129 6.1866 10.3007 6.2476 10.2771 6.3045C10.2536 6.36141 10.219 6.41311 10.1754 6.45664L7.83164 8.80039C7.78809 8.84394 7.73639 8.87849 7.67949 8.90206C7.62258 8.92563 7.56159 8.93776 7.5 8.93776C7.43841 8.93776 7.37742 8.92563 7.32052 8.90206C7.26362 8.87849 7.21191 8.84394 7.16836 8.80039C7.12481 8.75684 7.09026 8.70514 7.06669 8.64823C7.04312 8.59133 7.03099 8.53034 7.03099 8.46875C7.03099 8.40716 7.04312 8.34617 7.06669 8.28927C7.09026 8.23236 7.12481 8.18066 7.16836 8.13711L9.51211 5.79336C9.55565 5.74978 9.60735 5.7152 9.66425 5.69161C9.72116 5.66802 9.78215 5.65588 9.84375 5.65588C9.90535 5.65588 9.96635 5.66802 10.0233 5.69161C10.0802 5.7152 10.1319 5.74978 10.1754 5.79336ZM5.625 1.4375C5.625 1.31318 5.67439 1.19395 5.7623 1.10604C5.8502 1.01814 5.96943 0.96875 6.09375 0.96875H8.90625C9.03057 0.96875 9.1498 1.01814 9.23771 1.10604C9.32562 1.19395 9.375 1.31318 9.375 1.4375C9.375 1.56182 9.32562 1.68105 9.23771 1.76896C9.1498 1.85686 9.03057 1.90625 8.90625 1.90625H6.09375C5.96943 1.90625 5.8502 1.85686 5.7623 1.76896C5.67439 1.68105 5.625 1.56182 5.625 1.4375Z" fill="#081023"/>
</svg>
