<svg width="15" height="16" viewBox="0 0 15 16" fill="none" xmlns="http://www.w3.org/2000/svg">
<g id="Users">
<path id="Vector" opacity="0.2" d="M7.96875 6.82812C7.96875 7.43074 7.79006 8.01982 7.45526 8.52088C7.12047 9.02193 6.64461 9.41246 6.08786 9.64307C5.53112 9.87368 4.9185 9.93402 4.32746 9.81645C3.73642 9.69889 3.19352 9.4087 2.76741 8.98259C2.3413 8.55648 2.05111 8.01358 1.93355 7.42254C1.81598 6.8315 1.87632 6.21888 2.10693 5.66214C2.33754 5.10539 2.72807 4.62954 3.22912 4.29474C3.73018 3.95995 4.31926 3.78125 4.92188 3.78125C5.72996 3.78125 6.50494 4.10226 7.07634 4.67366C7.64774 5.24506 7.96875 6.02004 7.96875 6.82812Z" fill="#207CFD"/>
<path id="Vector_2" d="M6.87007 9.75309C7.49831 9.33484 7.97528 8.72552 8.23044 8.01523C8.4856 7.30493 8.50541 6.53138 8.28693 5.80897C8.06845 5.08655 7.62329 4.45362 7.01727 4.00377C6.41126 3.55392 5.67656 3.31104 4.92183 3.31104C4.1671 3.31104 3.4324 3.55392 2.82638 4.00377C2.22036 4.45362 1.7752 5.08655 1.55672 5.80897C1.33825 6.53138 1.35805 7.30493 1.61321 8.01523C1.86837 8.72552 2.34534 9.33484 2.97359 9.75309C1.83715 10.1719 0.866616 10.947 0.206789 11.9627C0.17211 12.0142 0.148023 12.0721 0.135926 12.1331C0.123829 12.194 0.123965 12.2567 0.136325 12.3176C0.148684 12.3785 0.173022 12.4363 0.207922 12.4877C0.242823 12.5391 0.28759 12.583 0.339622 12.6169C0.391654 12.6509 0.449913 12.6741 0.511012 12.6854C0.572111 12.6966 0.634832 12.6956 0.695529 12.6823C0.756225 12.6691 0.813686 12.6439 0.864573 12.6083C0.915459 12.5727 0.958756 12.5273 0.991945 12.4748C1.41756 11.8201 1.99997 11.2822 2.68626 10.9098C3.37256 10.5374 4.14101 10.3424 4.92183 10.3424C5.70265 10.3424 6.47109 10.5374 7.15739 10.9098C7.84369 11.2822 8.42609 11.8201 8.85171 12.4748C8.92046 12.5769 9.02667 12.648 9.14736 12.6725C9.26806 12.697 9.39355 12.673 9.49671 12.6057C9.59986 12.5384 9.67239 12.4333 9.69862 12.3129C9.72485 12.1926 9.70267 12.0668 9.63687 11.9627C8.97704 10.947 8.0065 10.1719 6.87007 9.75309ZM2.3437 6.82809C2.3437 6.31818 2.49491 5.81973 2.77819 5.39576C3.06148 4.97179 3.46413 4.64134 3.93522 4.44621C4.40631 4.25108 4.92469 4.20002 5.42479 4.2995C5.9249 4.39898 6.38428 4.64452 6.74484 5.00508C7.10539 5.36563 7.35094 5.82501 7.45041 6.32512C7.54989 6.82523 7.49884 7.3436 7.3037 7.81469C7.10857 8.28578 6.77813 8.68843 6.35416 8.97172C5.93019 9.25501 5.43173 9.40621 4.92183 9.40621C4.2383 9.40544 3.583 9.13356 3.09967 8.65024C2.61635 8.16692 2.34448 7.51161 2.3437 6.82809ZM14.6566 12.6113C14.5525 12.6792 14.4256 12.7029 14.304 12.6773C14.1824 12.6517 14.0759 12.5789 14.008 12.4748C13.5829 11.8198 13.0005 11.2816 12.3141 10.9094C11.6276 10.5371 10.8589 10.3427 10.0781 10.3437C9.95376 10.3437 9.83453 10.2943 9.74662 10.2064C9.65871 10.1185 9.60933 9.99928 9.60933 9.87496C9.60933 9.75064 9.65871 9.63141 9.74662 9.5435C9.83453 9.4556 9.95376 9.40621 10.0781 9.40621C10.4577 9.40585 10.8327 9.32164 11.176 9.1596C11.5194 8.99755 11.8227 8.76167 12.0643 8.46881C12.3059 8.17595 12.4799 7.83334 12.5737 7.46546C12.6676 7.09757 12.6791 6.7135 12.6073 6.34067C12.5355 5.96785 12.3823 5.61548 12.1585 5.30875C11.9348 5.00201 11.646 4.74848 11.3129 4.56627C10.9799 4.38406 10.6106 4.27766 10.2317 4.25469C9.85269 4.23171 9.47332 4.29272 9.12066 4.43336C9.06316 4.45822 9.00126 4.4713 8.93862 4.47183C8.87597 4.47236 8.81386 4.46032 8.75595 4.43644C8.69804 4.41256 8.6455 4.37731 8.60144 4.33278C8.55738 4.28825 8.5227 4.23534 8.49943 4.17718C8.47617 4.11902 8.4648 4.05678 8.46599 3.99415C8.46718 3.93152 8.48092 3.86976 8.50639 3.81253C8.53185 3.7553 8.56853 3.70375 8.61426 3.66093C8.65998 3.61812 8.71383 3.5849 8.77261 3.56324C9.57971 3.24136 10.4774 3.22978 11.2926 3.53073C12.1077 3.83168 12.7825 4.42384 13.1868 5.19298C13.5911 5.96212 13.6963 6.85373 13.482 7.69581C13.2677 8.53789 12.7491 9.27078 12.0263 9.75309C13.1628 10.1719 14.1333 10.947 14.7931 11.9627C14.861 12.0668 14.8848 12.1936 14.8592 12.3152C14.8336 12.4369 14.7607 12.5434 14.6566 12.6113Z" fill="#081023"/>
</g>
</svg>
