<svg width="22" height="22" viewBox="0 0 22 22" fill="none" xmlns="http://www.w3.org/2000/svg">
<path opacity="0.2" d="M19.25 10.9999C19.2512 12.1569 19.0085 13.3012 18.5376 14.358C18.0667 15.4148 17.3783 16.3605 16.5172 17.1333C15.9995 16.115 15.21 15.2599 14.2362 14.6627C13.2624 14.0656 12.1423 13.7496 11 13.7499C11.6799 13.7499 12.3445 13.5483 12.9098 13.1706C13.4751 12.7929 13.9157 12.256 14.1758 11.6279C14.436 10.9998 14.5041 10.3086 14.3715 9.6418C14.2388 8.97499 13.9114 8.36249 13.4307 7.88175C12.9499 7.401 12.3374 7.07361 11.6706 6.94098C11.0038 6.80834 10.3126 6.87641 9.68453 7.13659C9.05641 7.39677 8.51954 7.83736 8.14183 8.40265C7.76411 8.96795 7.5625 9.63255 7.5625 10.3124C7.5625 11.2241 7.92467 12.0984 8.56932 12.7431C9.21398 13.3878 10.0883 13.7499 11 13.7499C9.85768 13.7496 8.73758 14.0656 7.76378 14.6627C6.78998 15.2599 6.00051 16.115 5.48281 17.1333C4.46038 16.2136 3.68405 15.053 3.22443 13.7569C2.76481 12.4607 2.63647 11.0703 2.85109 9.71196C3.06572 8.35362 3.61649 7.07047 4.45332 5.97921C5.29016 4.88794 6.38651 4.02317 7.64268 3.46354C8.89886 2.90391 10.275 2.66717 11.646 2.77484C13.0169 2.88252 14.3392 3.3312 15.4926 4.08007C16.646 4.82895 17.594 5.85428 18.2502 7.06281C18.9064 8.27134 19.2501 9.62473 19.25 10.9999Z" fill="#207CFD"/>
<path d="M11 2.0625C9.23233 2.0625 7.50436 2.58668 6.03459 3.56874C4.56483 4.55081 3.41929 5.94665 2.74283 7.57977C2.06637 9.21288 1.88938 11.0099 2.23424 12.7436C2.57909 14.4773 3.43031 16.0698 4.68024 17.3198C5.93017 18.5697 7.52268 19.4209 9.25638 19.7658C10.9901 20.1106 12.7871 19.9336 14.4202 19.2572C16.0534 18.5807 17.4492 17.4352 18.4313 15.9654C19.4133 14.4956 19.9375 12.7677 19.9375 11C19.935 8.6304 18.9926 6.35856 17.317 4.683C15.6414 3.00743 13.3696 2.065 11 2.0625ZM6.36625 16.9727C6.8636 16.1948 7.54876 15.5547 8.35856 15.1113C9.16836 14.6679 10.0768 14.4355 11 14.4355C11.9233 14.4355 12.8316 14.6679 13.6414 15.1113C14.4512 15.5547 15.1364 16.1948 15.6338 16.9727C14.3089 18.003 12.6784 18.5624 11 18.5624C9.32162 18.5624 7.69112 18.003 6.36625 16.9727ZM8.25 10.3125C8.25 9.7686 8.41129 9.23692 8.71346 8.78468C9.01564 8.33245 9.44513 7.97997 9.94762 7.77183C10.4501 7.56369 11.0031 7.50923 11.5365 7.61534C12.07 7.72145 12.56 7.98336 12.9445 8.36796C13.3291 8.75255 13.5911 9.24255 13.6972 9.776C13.8033 10.3094 13.7488 10.8624 13.5407 11.3649C13.3325 11.8674 12.9801 12.2969 12.5278 12.599C12.0756 12.9012 11.5439 13.0625 11 13.0625C10.2707 13.0625 9.57119 12.7728 9.05546 12.257C8.53974 11.7413 8.25 11.0418 8.25 10.3125ZM16.6513 16.0196C15.8845 14.9085 14.8063 14.0489 13.5523 13.5489C14.2259 13.0184 14.7175 12.2911 14.9586 11.4683C15.1997 10.6454 15.1784 9.76791 14.8976 8.95773C14.6169 8.14756 14.0906 7.44501 13.3921 6.94778C12.6936 6.45055 11.8574 6.18336 11 6.18336C10.1426 6.18336 9.30644 6.45055 8.6079 6.94778C7.90936 7.44501 7.38313 8.14756 7.10238 8.95773C6.82164 9.76791 6.80034 10.6454 7.04144 11.4683C7.28254 12.2911 7.77407 13.0184 8.44766 13.5489C7.19368 14.0489 6.11552 14.9085 5.34875 16.0196C4.37987 14.9301 3.7466 13.5837 3.5252 12.1425C3.3038 10.7014 3.50372 9.22702 4.10087 7.89688C4.69802 6.56675 5.66696 5.43759 6.89099 4.64538C8.11503 3.85318 9.54197 3.4317 11 3.4317C12.458 3.4317 13.885 3.85318 15.109 4.64538C16.3331 5.43759 17.302 6.56675 17.8991 7.89688C18.4963 9.22702 18.6962 10.7014 18.4748 12.1425C18.2534 13.5837 17.6201 14.9301 16.6513 16.0196Z" fill="#207CFD"/>
</svg>
