<svg width="15" height="16" viewBox="0 0 15 16" fill="none" xmlns="http://www.w3.org/2000/svg">
<path opacity="0.2" d="M11.25 6.125C11.25 6.86668 11.0301 7.5917 10.618 8.20839C10.2059 8.82507 9.62027 9.30572 8.93505 9.58955C8.24983 9.87338 7.49583 9.94764 6.7684 9.80294C6.04097 9.65825 5.37278 9.3011 4.84834 8.77665C4.32389 8.2522 3.96674 7.58402 3.82204 6.85659C3.67735 6.12916 3.75161 5.37516 4.03544 4.68994C4.31927 4.00471 4.79991 3.41904 5.4166 3.00699C6.03328 2.59493 6.75831 2.375 7.49999 2.375C8.49455 2.375 9.44838 2.77009 10.1516 3.47335C10.8549 4.17661 11.25 5.13044 11.25 6.125Z" fill="#207CFD"/>
<path d="M13.5305 12.9219C12.6381 11.3791 11.2629 10.2729 9.65804 9.74844C10.4519 9.27586 11.0687 8.55576 11.4136 7.69871C11.7586 6.84167 11.8127 5.89509 11.5676 5.00432C11.3226 4.11355 10.7919 3.32785 10.0571 2.76789C9.32223 2.20793 8.4239 1.90466 7.50004 1.90466C6.57617 1.90466 5.67785 2.20793 4.94302 2.76789C4.20819 3.32785 3.67749 4.11355 3.43242 5.00432C3.18735 5.89509 3.24146 6.84167 3.58644 7.69871C3.93141 8.55576 4.54818 9.27586 5.34203 9.74844C3.73715 10.2723 2.36195 11.3785 1.46957 12.9219C1.43684 12.9752 1.41514 13.0346 1.40573 13.0965C1.39632 13.1584 1.39941 13.2215 1.4148 13.2822C1.43019 13.3429 1.45758 13.3999 1.49534 13.4498C1.53311 13.4997 1.5805 13.5415 1.6347 13.5728C1.6889 13.6042 1.74883 13.6243 1.81094 13.6321C1.87305 13.6398 1.93609 13.6351 1.99634 13.6181C2.05659 13.6011 2.11282 13.5722 2.16173 13.5332C2.21063 13.4941 2.25122 13.4456 2.28109 13.3906C3.385 11.4828 5.33617 10.3438 7.50004 10.3438C9.6639 10.3438 11.6151 11.4828 12.719 13.3906C12.7489 13.4456 12.7894 13.4941 12.8383 13.5332C12.8873 13.5722 12.9435 13.6011 13.0037 13.6181C13.064 13.6351 13.127 13.6398 13.1891 13.6321C13.2512 13.6243 13.3112 13.6042 13.3654 13.5728C13.4196 13.5415 13.467 13.4997 13.5047 13.4498C13.5425 13.3999 13.5699 13.3429 13.5853 13.2822C13.6007 13.2215 13.6038 13.1584 13.5943 13.0965C13.5849 13.0346 13.5632 12.9752 13.5305 12.9219ZM4.21879 6.12501C4.21879 5.47604 4.41123 4.84164 4.77178 4.30204C5.13233 3.76244 5.64479 3.34188 6.24436 3.09353C6.84393 2.84518 7.50368 2.7802 8.14018 2.90681C8.77668 3.03341 9.36134 3.34592 9.82023 3.80481C10.2791 4.2637 10.5916 4.84837 10.7182 5.48487C10.8448 6.12137 10.7799 6.78112 10.5315 7.38069C10.2832 7.98026 9.8626 8.49272 9.323 8.85327C8.7834 9.21382 8.14901 9.40626 7.50004 9.40626C6.63008 9.40533 5.79602 9.05933 5.18087 8.44417C4.56572 7.82902 4.21972 6.99496 4.21879 6.12501Z" fill="#081023"/>
</svg>
