<svg width="22" height="21" viewBox="0 0 22 21" fill="none" xmlns="http://www.w3.org/2000/svg">
<path opacity="0.2" d="M19.2269 10.4605C19.2281 11.5608 18.9973 12.6489 18.5495 13.6539C18.1017 14.6589 17.447 15.5582 16.6281 16.2931C16.1358 15.3248 15.3851 14.5116 14.459 13.9437C13.533 13.3758 12.4678 13.0754 11.3815 13.0757C12.0281 13.0757 12.6601 12.8839 13.1976 12.5248C13.7352 12.1656 14.1542 11.655 14.4016 11.0577C14.649 10.4604 14.7138 9.80312 14.5876 9.16902C14.4615 8.53491 14.1502 7.95244 13.693 7.49528C13.2358 7.03811 12.6534 6.72678 12.0193 6.60065C11.3852 6.47452 10.7279 6.53925 10.1306 6.78667C9.53325 7.03408 9.02272 7.45307 8.66353 7.99064C8.30433 8.52821 8.11261 9.16022 8.11261 9.80675C8.11261 10.6737 8.45702 11.5052 9.07006 12.1182C9.6831 12.7313 10.5146 13.0757 11.3815 13.0757C10.2952 13.0754 9.23006 13.3758 8.30402 13.9437C7.37798 14.5116 6.62722 15.3248 6.13492 16.2931C5.16263 15.4185 4.42437 14.3148 3.98729 13.0823C3.55021 11.8497 3.42817 10.5275 3.63227 9.23573C3.83637 7.94401 4.36013 6.72379 5.15592 5.68604C5.95171 4.6483 6.9943 3.82594 8.18886 3.29376C9.38343 2.76157 10.6921 2.53644 11.9958 2.63883C13.2995 2.74123 14.557 3.1679 15.6538 3.88005C16.7507 4.59221 17.6521 5.56724 18.2761 6.7165C18.9001 7.86576 19.227 9.15278 19.2269 10.4605Z" fill="#207CFD"/>
<path d="M11.3817 1.96136C9.70077 1.96136 8.05754 2.45983 6.65986 3.39373C5.26218 4.32764 4.17282 5.65503 3.52953 7.20805C2.88625 8.76107 2.71794 10.47 3.04588 12.1186C3.37382 13.7673 4.18329 15.2817 5.37192 16.4704C6.56055 17.659 8.07496 18.4685 9.72364 18.7964C11.3723 19.1244 13.0812 18.956 14.6342 18.3128C16.1873 17.6695 17.5147 16.5801 18.4486 15.1824C19.3825 13.7847 19.8809 12.1415 19.8809 10.4605C19.8785 8.20715 18.9823 6.04673 17.3889 4.45334C15.7956 2.85995 13.6351 1.96374 11.3817 1.96136ZM6.97525 16.1403C7.44821 15.4006 8.09976 14.7919 8.86985 14.3702C9.63994 13.9486 10.5038 13.7275 11.3817 13.7275C12.2597 13.7275 13.1236 13.9486 13.8936 14.3702C14.6637 14.7919 15.3153 15.4006 15.7882 16.1403C14.5284 17.1201 12.9778 17.6521 11.3817 17.6521C9.78568 17.6521 8.23515 17.1201 6.97525 16.1403ZM8.76662 9.80676C8.76662 9.28953 8.91999 8.78393 9.20735 8.35387C9.4947 7.92381 9.90313 7.58863 10.381 7.39069C10.8588 7.19276 11.3847 7.14097 11.8919 7.24188C12.3992 7.34278 12.8652 7.59185 13.2309 7.95758C13.5967 8.32331 13.8457 8.78929 13.9466 9.29657C14.0475 9.80386 13.9957 10.3297 13.7978 10.8075C13.5999 11.2854 13.2647 11.6938 12.8346 11.9812C12.4046 12.2685 11.899 12.4219 11.3817 12.4219C10.6882 12.4219 10.023 12.1464 9.53257 11.6559C9.04214 11.1655 8.76662 10.5003 8.76662 9.80676ZM16.7558 15.234C16.0267 14.1774 15.0014 13.3599 13.8089 12.8844C14.4495 12.3799 14.9169 11.6883 15.1462 10.9058C15.3755 10.1234 15.3552 9.28887 15.0882 8.51844C14.8212 7.748 14.3208 7.0799 13.6565 6.60706C12.9923 6.13421 12.1971 5.88012 11.3817 5.88012C10.5664 5.88012 9.77124 6.13421 9.10696 6.60706C8.44268 7.0799 7.94226 7.748 7.67528 8.51844C7.4083 9.28887 7.38805 10.1234 7.61733 10.9058C7.8466 11.6883 8.31402 12.3799 8.95458 12.8844C7.76209 13.3599 6.73681 14.1774 6.00765 15.234C5.08628 14.1979 4.48407 12.9175 4.27353 11.547C4.06299 10.1766 4.2531 8.77451 4.82097 7.50961C5.38884 6.24471 6.31025 5.17093 7.47426 4.41758C8.63826 3.66422 9.99522 3.26341 11.3817 3.26341C12.7683 3.26341 14.1252 3.66422 15.2892 4.41758C16.4532 5.17093 17.3747 6.24471 17.9425 7.50961C18.5104 8.77451 18.7005 10.1766 18.49 11.547C18.2794 12.9175 17.6772 14.1979 16.7558 15.234Z" fill="#081023"/>
</svg>
