<svg width="22" height="22" viewBox="0 0 22 22" fill="none" xmlns="http://www.w3.org/2000/svg">
<path opacity="0.2" d="M19.25 11C19.2512 12.157 19.0085 13.3013 18.5376 14.3581C18.0667 15.415 17.3783 16.3606 16.5172 17.1334C15.9995 16.1151 15.21 15.26 14.2362 14.6629C13.2624 14.0657 12.1423 13.7498 11 13.75C11.6799 13.75 12.3445 13.5484 12.9098 13.1707C13.4751 12.793 13.9157 12.2561 14.1758 11.628C14.436 10.9999 14.5041 10.3087 14.3715 9.64192C14.2388 8.97511 13.9114 8.36261 13.4307 7.88187C12.9499 7.40112 12.3374 7.07373 11.6706 6.9411C11.0038 6.80846 10.3126 6.87653 9.68453 7.13671C9.05641 7.39689 8.51954 7.83748 8.14183 8.40277C7.76411 8.96807 7.5625 9.63267 7.5625 10.3125C7.5625 11.2242 7.92467 12.0986 8.56932 12.7432C9.21398 13.3879 10.0883 13.75 11 13.75C9.85768 13.7498 8.73758 14.0657 7.76378 14.6629C6.78998 15.26 6.00051 16.1151 5.48281 17.1334C4.46038 16.2137 3.68405 15.0531 3.22443 13.757C2.76481 12.4609 2.63647 11.0704 2.85109 9.71208C3.06572 8.35374 3.61649 7.07059 4.45332 5.97933C5.29016 4.88806 6.38651 4.02329 7.64268 3.46366C8.89886 2.90403 10.275 2.66729 11.646 2.77496C13.0169 2.88264 14.3392 3.33132 15.4926 4.0802C16.646 4.82908 17.594 5.8544 18.2502 7.06293C18.9064 8.27146 19.2501 9.62485 19.25 11Z" fill="#081023"/>
<path d="M11 2.0625C9.23236 2.0625 7.50439 2.58668 6.03463 3.56874C4.56486 4.55081 3.41932 5.94665 2.74286 7.57977C2.0664 9.21288 1.88941 11.0099 2.23427 12.7436C2.57912 14.4773 3.43034 16.0698 4.68027 17.3198C5.9302 18.5697 7.52271 19.4209 9.25641 19.7658C10.9901 20.1106 12.7872 19.9336 14.4203 19.2572C16.0534 18.5807 17.4492 17.4352 18.4313 15.9654C19.4134 14.4956 19.9375 12.7677 19.9375 11C19.935 8.6304 18.9926 6.35856 17.317 4.683C15.6415 3.00743 13.3696 2.065 11 2.0625ZM6.36628 16.9727C6.86363 16.1948 7.54879 15.5547 8.35859 15.1113C9.1684 14.6679 10.0768 14.4355 11 14.4355C11.9233 14.4355 12.8317 14.6679 13.6415 15.1113C14.4513 15.5547 15.1364 16.1948 15.6338 16.9727C14.3089 18.003 12.6784 18.5624 11 18.5624C9.32166 18.5624 7.69115 18.003 6.36628 16.9727ZM8.25003 10.3125C8.25003 9.7686 8.41132 9.23692 8.71349 8.78468C9.01567 8.33245 9.44516 7.97997 9.94765 7.77183C10.4502 7.56369 11.0031 7.50923 11.5365 7.61534C12.07 7.72145 12.56 7.98336 12.9446 8.36796C13.3292 8.75255 13.5911 9.24255 13.6972 9.776C13.8033 10.3094 13.7488 10.8624 13.5407 11.3649C13.3326 11.8674 12.9801 12.2969 12.5279 12.599C12.0756 12.9012 11.5439 13.0625 11 13.0625C10.2707 13.0625 9.57122 12.7728 9.05549 12.257C8.53977 11.7413 8.25003 11.0418 8.25003 10.3125ZM16.6513 16.0196C15.8845 14.9085 14.8064 14.0489 13.5524 13.5489C14.226 13.0184 14.7175 12.2911 14.9586 11.4683C15.1997 10.6454 15.1784 9.76791 14.8977 8.95773C14.6169 8.14756 14.0907 7.44501 13.3921 6.94778C12.6936 6.45055 11.8575 6.18336 11 6.18336C10.1426 6.18336 9.30647 6.45055 8.60793 6.94778C7.90939 7.44501 7.38316 8.14756 7.10241 8.95773C6.82167 9.76791 6.80037 10.6454 7.04147 11.4683C7.28257 12.2911 7.7741 13.0184 8.44769 13.5489C7.19371 14.0489 6.11555 14.9085 5.34878 16.0196C4.3799 14.9301 3.74663 13.5837 3.52523 12.1425C3.30383 10.7014 3.50375 9.22702 4.1009 7.89688C4.69806 6.56675 5.66699 5.43759 6.89102 4.64538C8.11506 3.85318 9.542 3.4317 11 3.4317C12.4581 3.4317 13.885 3.85318 15.109 4.64538C16.3331 5.43759 17.302 6.56675 17.8992 7.89688C18.4963 9.22702 18.6962 10.7014 18.4748 12.1425C18.2534 13.5837 17.6202 14.9301 16.6513 16.0196Z" fill="#081023"/>
</svg>
