<svg width="15" height="16" viewBox="0 0 15 16" fill="none" xmlns="http://www.w3.org/2000/svg">
<g id="Plant">
<path id="Vector" opacity="0.2" d="M8.11751 8.84127C6.2472 5.51565 8.74095 2.19065 14.0408 2.52315C14.3554 8.17627 11.2353 10.8369 8.11751 8.84127ZM0.952672 5.01627C0.730015 9.0544 2.95716 10.9538 5.18373 9.5294C6.51966 7.1544 4.73841 4.77877 0.952672 5.01627Z" fill="#081023"/>
<path id="Vector_2" d="M14.5096 2.4931C14.5029 2.37078 14.4543 2.25534 14.3731 2.1687C14.2918 2.08206 14.1836 2.03025 14.0689 2.0231C11.0361 1.8356 8.60097 2.81935 7.55449 4.66185C6.86308 5.87935 6.86425 7.35935 7.54511 8.7706C7.15799 9.26182 6.87479 9.83635 6.71484 10.455L5.76152 9.43748C6.21972 8.41685 6.20214 7.35248 5.70293 6.46935C4.92714 5.1081 3.14179 4.37498 0.925191 4.51685C0.810515 4.524 0.702289 4.57581 0.621063 4.66245C0.539836 4.74909 0.491263 4.86453 0.484566 4.98685C0.353902 7.35123 1.03886 9.2556 2.31562 10.0806C2.73769 10.3554 3.2227 10.5005 3.71718 10.5C4.19642 10.4937 4.6682 10.3726 5.09765 10.1456L6.5625 11.7081V13.5C6.5625 13.6326 6.61188 13.7598 6.69979 13.8535C6.7877 13.9473 6.90693 14 7.03125 14C7.15557 14 7.27479 13.9473 7.3627 13.8535C7.45061 13.7598 7.5 13.6326 7.5 13.5V11.6569C7.49791 10.8614 7.75168 10.0893 8.21894 9.46935C8.82184 9.80543 9.49049 9.98529 10.1707 9.99435C10.8283 9.99662 11.4738 9.80498 12.0357 9.4406C13.7631 8.3256 14.6877 5.7281 14.5096 2.4931ZM5.04257 8.67123L3.6123 7.14623C3.52368 7.05642 3.40567 7.00709 3.28344 7.00876C3.16121 7.01043 3.04442 7.06296 2.95798 7.15516C2.87154 7.24736 2.82229 7.37193 2.82073 7.50232C2.81916 7.6327 2.86541 7.75857 2.94961 7.8531L4.37988 9.37873C3.81679 9.57748 3.2707 9.5281 2.80136 9.22498C1.90253 8.64435 1.39394 7.26998 1.40625 5.49998C3.06503 5.48435 4.3541 6.02935 4.89843 6.9881C5.18261 7.48873 5.2289 8.07123 5.04257 8.67123ZM11.55 8.58623C10.7648 9.0931 9.84199 9.13185 8.90449 8.71123L12.0504 5.35498C12.1383 5.26124 12.1878 5.13407 12.1878 5.00145C12.1879 4.86882 12.1386 4.74161 12.0507 4.64779C11.9628 4.55397 11.8436 4.50123 11.7192 4.50117C11.5949 4.50111 11.4756 4.55374 11.3877 4.64748L8.24121 7.99998C7.84511 6.99998 7.88086 6.01498 8.35839 5.1781C9.17519 3.7406 11.1123 2.9406 13.5926 3.00123C13.6488 5.64623 12.8988 7.71498 11.55 8.58623Z" fill="#081023"/>
</g>
</svg>
