<svg width="15" height="16" viewBox="0 0 15 16" fill="none" xmlns="http://www.w3.org/2000/svg">
<path opacity="0.2" d="M12.6246 13.1563H2.37536C1.6359 13.1563 1.17184 12.3823 1.53102 11.7553L6.65563 2.85669C7.02477 2.21216 7.97516 2.21216 8.3443 2.85669L13.4689 11.7553C13.8281 12.3823 13.364 13.1563 12.6246 13.1563Z" fill="#D13232"/>
<path d="M13.875 11.5209L8.75096 2.6223C8.62292 2.40429 8.44012 2.22353 8.22069 2.09793C8.00126 1.97232 7.75282 1.90625 7.49999 1.90625C7.24715 1.90625 6.99871 1.97232 6.77928 2.09793C6.55985 2.22353 6.37705 2.40429 6.24901 2.6223L1.12499 11.5209C1.00179 11.7318 0.936859 11.9716 0.936859 12.2159C0.936859 12.4601 1.00179 12.6999 1.12499 12.9108C1.25139 13.1301 1.43388 13.3119 1.65371 13.4374C1.87355 13.5629 2.12283 13.6277 2.37596 13.625H12.624C12.8769 13.6275 13.126 13.5626 13.3456 13.4371C13.5652 13.3116 13.7475 13.1299 13.8738 12.9108C13.9972 12.7 14.0623 12.4602 14.0625 12.216C14.0627 11.9718 13.998 11.7319 13.875 11.5209ZM13.0623 12.4414C13.0176 12.5176 12.9535 12.5806 12.8765 12.6238C12.7995 12.6671 12.7123 12.6891 12.624 12.6875H2.37596C2.28765 12.6891 2.20052 12.6671 2.1235 12.6238C2.04648 12.5806 1.98235 12.5176 1.93768 12.4414C1.89722 12.3729 1.87588 12.2948 1.87588 12.2153C1.87588 12.1357 1.89722 12.0576 1.93768 11.9891L7.06171 3.09047C7.10728 3.01463 7.1717 2.95188 7.24871 2.90831C7.32571 2.86475 7.41268 2.84185 7.50116 2.84185C7.58964 2.84185 7.67661 2.86475 7.75361 2.90831C7.83062 2.95188 7.89504 3.01463 7.94061 3.09047L13.0646 11.9891C13.1047 12.0578 13.1257 12.136 13.1253 12.2156C13.1249 12.2952 13.1031 12.3731 13.0623 12.4414ZM7.03124 8.93754V6.59379C7.03124 6.46947 7.08062 6.35024 7.16853 6.26233C7.25644 6.17442 7.37567 6.12504 7.49999 6.12504C7.62431 6.12504 7.74354 6.17442 7.83144 6.26233C7.91935 6.35024 7.96874 6.46947 7.96874 6.59379V8.93754C7.96874 9.06186 7.91935 9.18109 7.83144 9.269C7.74354 9.3569 7.62431 9.40629 7.49999 9.40629C7.37567 9.40629 7.25644 9.3569 7.16853 9.269C7.08062 9.18109 7.03124 9.06186 7.03124 8.93754ZM8.20311 11.0469C8.20311 11.186 8.16187 11.3219 8.08461 11.4375C8.00735 11.5532 7.89754 11.6433 7.76906 11.6965C7.64058 11.7497 7.49921 11.7637 7.36281 11.7365C7.22642 11.7094 7.10114 11.6424 7.0028 11.5441C6.90447 11.4458 6.8375 11.3205 6.81037 11.1841C6.78324 11.0477 6.79717 10.9063 6.85038 10.7778C6.9036 10.6494 6.99372 10.5395 7.10935 10.4623C7.22498 10.385 7.36092 10.3438 7.49999 10.3438C7.68647 10.3438 7.86531 10.4179 7.99717 10.5497C8.12903 10.6816 8.20311 10.8604 8.20311 11.0469Z" fill="#D13232"/>
</svg>
