<svg width="15" height="15" viewBox="0 0 15 15" fill="none" xmlns="http://www.w3.org/2000/svg">
<g id="Watch">
<path id="Vector" opacity="0.2" d="M11.7188 7.5C11.7188 8.33439 11.4713 9.15004 11.0078 9.84381C10.5442 10.5376 9.88532 11.0783 9.11445 11.3976C8.34357 11.7169 7.49532 11.8005 6.67696 11.6377C5.85861 11.4749 5.1069 11.0731 4.51689 10.4831C3.92689 9.8931 3.5251 9.14139 3.36231 8.32304C3.19953 7.50468 3.28308 6.65643 3.60239 5.88555C3.92169 5.11468 4.46242 4.4558 5.15619 3.99224C5.84996 3.52868 6.66561 3.28125 7.5 3.28125C8.61888 3.28125 9.69194 3.72572 10.4831 4.51689C11.2743 5.30806 11.7188 6.38112 11.7188 7.5Z" fill="#081023"/>
<path id="Vector_2" d="M12.1874 7.5C12.1872 6.7641 12.0137 6.03859 11.6808 5.38228C11.3479 4.72598 10.865 4.15734 10.2714 3.72246L9.90575 1.70801C9.86662 1.49189 9.75286 1.29636 9.58431 1.15554C9.41576 1.01473 9.20312 0.937557 8.98348 0.9375H6.01629C5.79666 0.937557 5.58402 1.01473 5.41546 1.15554C5.24691 1.29636 5.13315 1.49189 5.09403 1.70801L4.7284 3.72246C4.13458 4.15719 3.65161 4.7258 3.31868 5.38213C2.98576 6.03847 2.81226 6.76405 2.81226 7.5C2.81226 8.23595 2.98576 8.96153 3.31868 9.61787C3.65161 10.2742 4.13458 10.8428 4.7284 11.2775L5.09403 13.292C5.13315 13.5081 5.24691 13.7036 5.41546 13.8445C5.58402 13.9853 5.79666 14.0624 6.01629 14.0625H8.98348C9.20312 14.0624 9.41576 13.9853 9.58431 13.8445C9.75286 13.7036 9.86662 13.5081 9.90575 13.292L10.2714 11.2775C10.865 10.8427 11.3479 10.274 11.6808 9.61772C12.0137 8.96141 12.1872 8.2359 12.1874 7.5ZM6.01629 1.875H8.98348L9.21258 3.1377C8.11195 2.70412 6.88783 2.70412 5.78719 3.1377L6.01629 1.875ZM3.74989 7.5C3.74989 6.75832 3.96982 6.0333 4.38188 5.41661C4.79393 4.79993 5.3796 4.31928 6.06482 4.03545C6.75005 3.75162 7.50405 3.67736 8.23148 3.82206C8.9589 3.96675 9.62709 4.3239 10.1515 4.84835C10.676 5.3728 11.0331 6.04098 11.1778 6.76841C11.3225 7.49584 11.2483 8.24984 10.9644 8.93506C10.6806 9.62029 10.2 10.206 9.58327 10.618C8.96659 11.0301 8.24157 11.25 7.49989 11.25C6.50566 11.2489 5.55246 10.8535 4.84944 10.1505C4.14641 9.44743 3.75097 8.49423 3.74989 7.5ZM8.98348 13.125H6.01629L5.78719 11.8623C6.88783 12.2959 8.11195 12.2959 9.21258 11.8623L8.98348 13.125ZM7.03114 7.5V5.15625C7.03114 5.03193 7.08052 4.9127 7.16843 4.82479C7.25634 4.73689 7.37557 4.6875 7.49989 4.6875C7.62421 4.6875 7.74344 4.73689 7.83134 4.82479C7.91925 4.9127 7.96864 5.03193 7.96864 5.15625V7.03125H9.84364C9.96796 7.03125 10.0872 7.08064 10.1751 7.16854C10.263 7.25645 10.3124 7.37568 10.3124 7.5C10.3124 7.62432 10.263 7.74355 10.1751 7.83146C10.0872 7.91936 9.96796 7.96875 9.84364 7.96875H7.49989C7.37557 7.96875 7.25634 7.91936 7.16843 7.83146C7.08052 7.74355 7.03114 7.62432 7.03114 7.5Z" fill="#081023"/>
</g>
</svg>
