<svg width="21" height="22" viewBox="0 0 21 22" fill="none" xmlns="http://www.w3.org/2000/svg">
<path opacity="0.2" d="M10.4605 3.15466C9.08273 3.15449 7.72918 3.51717 6.53606 4.2062C5.34293 4.89524 4.3523 5.88634 3.66383 7.0798C2.97536 8.27325 2.61333 9.62697 2.61415 11.0048C2.61498 12.3826 2.97864 13.7358 3.66854 14.9285L2.64946 17.9841C2.61104 18.0993 2.60547 18.2229 2.63336 18.3411C2.66125 18.4593 2.7215 18.5674 2.80737 18.6532C2.89323 18.7391 3.00131 18.7993 3.1195 18.8272C3.23768 18.8551 3.3613 18.8495 3.47649 18.8111L6.53211 17.792C7.57402 18.3944 8.74056 18.749 9.94145 18.8284C11.1423 18.9077 12.3454 18.7098 13.4575 18.2498C14.5696 17.7897 15.561 17.08 16.355 16.1755C17.1489 15.2711 17.7241 14.196 18.0361 13.0337C18.348 11.8713 18.3884 10.6527 18.154 9.47225C17.9197 8.29178 17.4168 7.18105 16.6845 6.22602C15.9521 5.27098 15.0099 4.49724 13.9306 3.96465C12.8514 3.43207 11.664 3.15492 10.4605 3.15466ZM12.4219 15.5765C10.6879 15.5765 9.02501 14.8877 7.79893 13.6617C6.57285 12.4356 5.88405 10.7726 5.88405 9.03871C5.88405 8.34513 6.15957 7.67996 6.65 7.18953C7.14043 6.6991 7.8056 6.42358 8.49918 6.42358L9.80674 9.03871L8.79992 10.5481C9.1993 11.5024 9.95814 12.2613 10.9125 12.6607L12.4219 11.6538L15.037 12.9614C15.037 13.655 14.7615 14.3202 14.2711 14.8106C13.7806 15.301 13.1155 15.5765 12.4219 15.5765Z" fill="#207CFD"/>
<path d="M15.3295 12.3762L12.7144 11.0687C12.6115 11.0174 12.4968 10.9941 12.382 11.0013C12.2672 11.0085 12.1564 11.0458 12.0606 11.1095L10.8601 11.9104C10.309 11.6075 9.8555 11.154 9.55255 10.6029L10.3534 9.40235C10.4171 9.3066 10.4545 9.19573 10.4617 9.08094C10.4688 8.96616 10.4456 8.85151 10.3943 8.74857L9.08673 6.13344C9.03253 6.02398 8.94876 5.9319 8.84491 5.86763C8.74105 5.80335 8.62127 5.76945 8.49914 5.76977C7.63217 5.76977 6.80071 6.11417 6.18767 6.72721C5.57463 7.34025 5.23023 8.17171 5.23023 9.03868C5.23239 10.9454 5.99077 12.7733 7.33899 14.1215C8.68721 15.4698 10.5152 16.2281 12.4218 16.2303C12.8511 16.2303 13.2762 16.1457 13.6728 15.9815C14.0694 15.8172 14.4298 15.5764 14.7333 15.2729C15.0369 14.9693 15.2776 14.6089 15.4419 14.2123C15.6062 13.8157 15.6908 13.3907 15.6908 12.9614C15.6908 12.8399 15.6571 12.7208 15.5933 12.6175C15.5295 12.5141 15.4382 12.4306 15.3295 12.3762ZM12.4218 14.9227C10.8618 14.921 9.3662 14.3005 8.2631 13.1974C7.16 12.0943 6.53952 10.5987 6.53779 9.03868C6.53767 8.58522 6.69467 8.14572 6.98209 7.79498C7.26951 7.44423 7.66958 7.20392 8.11423 7.11493L9.0524 8.99455L8.25397 10.1828C8.19431 10.2723 8.15765 10.3751 8.14724 10.4822C8.13684 10.5893 8.153 10.6972 8.19431 10.7965C8.66208 11.9083 9.54651 12.7927 10.6583 13.2605C10.7579 13.3036 10.8667 13.3213 10.9748 13.3119C11.083 13.3025 11.1871 13.2663 11.2777 13.2065L12.4725 12.4106L14.3521 13.3487C14.2624 13.794 14.0209 14.1944 13.6689 14.4815C13.3168 14.7685 12.8761 14.9245 12.4218 14.9227ZM10.4605 2.50085C8.99313 2.50053 7.55068 2.88012 6.27354 3.60267C4.99641 4.32521 3.92809 5.3661 3.17259 6.62402C2.41708 7.88194 2.00012 9.31403 1.96228 10.7809C1.92445 12.2478 2.26704 13.6995 2.9567 14.9946L2.02914 17.7773C1.95231 18.0077 1.94116 18.2549 1.99694 18.4913C2.05272 18.7277 2.17323 18.9438 2.34496 19.1156C2.51669 19.2873 2.73285 19.4078 2.96922 19.4636C3.20559 19.5194 3.45283 19.5082 3.68321 19.4314L6.46588 18.5038C7.60572 19.1101 8.8687 19.4487 10.159 19.494C11.4492 19.5393 12.7328 19.29 13.9124 18.7651C15.0919 18.2402 16.1363 17.4535 16.9665 16.4647C17.7966 15.4759 18.3905 14.311 18.7032 13.0584C19.0158 11.8058 19.039 10.4984 18.771 9.2355C18.503 7.97259 17.9507 6.78733 17.1562 5.7697C16.3617 4.75207 15.3458 3.92881 14.1857 3.36242C13.0255 2.79603 11.7515 2.50138 10.4605 2.50085ZM10.4605 18.1916C9.19622 18.1925 7.95413 17.8596 6.85978 17.2265C6.77966 17.18 6.69057 17.1511 6.59843 17.1417C6.50629 17.1322 6.4132 17.1425 6.32531 17.1717L3.26888 18.1916L4.28796 15.1352C4.31734 15.0474 4.32772 14.9543 4.31842 14.8622C4.30912 14.77 4.28036 14.6809 4.23403 14.6007C3.44129 13.2302 3.12301 11.6363 3.32856 10.0664C3.53411 8.49648 4.252 7.03829 5.37086 5.91801C6.48973 4.79773 7.94702 4.078 9.51667 3.87047C11.0863 3.66293 12.6806 3.9792 14.0522 4.7702C15.4237 5.56121 16.4959 6.78273 17.1024 8.24528C17.7089 9.70783 17.8158 11.3296 17.4065 12.8591C16.9972 14.3886 16.0946 15.7403 14.8387 16.7045C13.5828 17.6686 12.0438 18.1914 10.4605 18.1916Z" fill="#081023"/>
</svg>
